M48
; DRILL file {KiCad 9.0.6} date 2025-10-31T11:06:47-0400
; FORMAT={-:-/ absolute / metric / decimal}
; #@! TF.CreationDate,2025-10-31T11:06:47-04:00
; #@! TF.GenerationSoftware,Kicad,Pcbnew,9.0.6
; #@! TF.FileFunction,Plated,1,6,PTH
FMAT,2
METRIC
; #@! TA.AperFunction,Plated,PTH,ViaDrill
T1C0.200
; #@! TA.AperFunction,Plated,PTH,ComponentDrill
T2C0.200
; #@! TA.AperFunction,Plated,PTH,ComponentDrill
T3C0.406
; #@! TA.AperFunction,Plated,PTH,ViaDrill
T4C0.600
; #@! TA.AperFunction,Plated,PTH,ComponentDrill
T5C0.600
; #@! TA.AperFunction,Plated,PTH,ComponentDrill
T6C0.900
; #@! TA.AperFunction,Plated,PTH,ComponentDrill
T7C0.990
; #@! TA.AperFunction,Plated,PTH,ComponentDrill
T8C1.000
; #@! TA.AperFunction,Plated,PTH,ComponentDrill
T9C1.020
; #@! TA.AperFunction,Plated,PTH,ComponentDrill
T10C1.067
; #@! TA.AperFunction,Plated,PTH,ComponentDrill
T11C1.300
; #@! TA.AperFunction,Plated,PTH,ComponentDrill
T12C1.700
; #@! TA.AperFunction,Plated,PTH,ComponentDrill
T13C1.900
; #@! TA.AperFunction,Plated,PTH,ComponentDrill
T14C3.700
%
G90
G05
T1
X118.593Y-92.494
X118.593Y-105.194
X118.593Y-112.814
X118.593Y-125.514
X118.593Y-135.674
X118.593Y-145.834
X118.593Y-152.184
X118.593Y-171.234
X118.593Y-185.204
X118.593Y-192.824
X118.593Y-201.714
X118.703Y-82.204
X118.703Y-88.417
X118.994Y-157.164
X118.994Y-158.264
X118.994Y-159.364
X118.994Y-163.764
X118.994Y-164.864
X119.009Y-168.744
X119.203Y-99.254
X119.863Y-86.144
X120.183Y-94.454
X120.453Y-155.912
X120.603Y-80.304
X121.253Y-80.304
X121.903Y-82.204
X121.953Y-93.954
X122.203Y-153.204
X122.453Y-91.704
X122.453Y-96.704
X123.163Y-98.704
X123.203Y-95.204
X123.453Y-152.954
X124.054Y-109.254
X124.054Y-111.204
X124.054Y-112.204
X124.054Y-114.204
X124.054Y-115.654
X124.104Y-96.704
X124.203Y-97.704
X124.703Y-97.204
X125.203Y-95.454
X125.703Y-112.755
X126.213Y-201.714
X128.203Y-85.051
X128.683Y-126.204
X128.803Y-122.429
X128.803Y-127.729
X128.815Y-130.129
X129.223Y-89.204
X129.693Y-90.454
X129.753Y-122.429
X129.953Y-137.454
X130.023Y-79.794
X130.213Y-155.908
X130.259Y-168.964
X130.453Y-137.454
X130.703Y-124.454
X130.703Y-124.954
X130.703Y-127.454
X130.703Y-127.954
X130.703Y-129.954
X130.703Y-130.454
X130.753Y-120.454
X130.953Y-137.454
X131.203Y-193.204
X131.703Y-151.204
X132.101Y-145.954
X132.953Y-125.454
X132.953Y-131.454
X132.953Y-131.954
X133.203Y-146.204
X133.353Y-193.204
X133.453Y-125.454
X133.453Y-131.454
X133.453Y-131.954
X133.778Y-177.704
X133.778Y-178.704
X133.853Y-125.454
X133.903Y-109.304
X133.953Y-131.454
X133.953Y-131.954
X134.203Y-138.704
X134.453Y-125.454
X134.453Y-131.454
X134.453Y-131.954
X134.603Y-115.42
X134.953Y-125.454
X135.663Y-121.454
X135.663Y-123.454
X135.703Y-122.454
X135.953Y-193.204
X136.303Y-166.204
X136.428Y-160.704
X136.428Y-162.604
X137.103Y-115.44
X137.353Y-111.054
X137.723Y-89.204
X138.103Y-112.554
X138.387Y-112.084
X138.693Y-90.454
X138.703Y-161.654
X138.913Y-79.794
X139.403Y-132.704
X139.403Y-133.704
X139.703Y-137.086
X139.703Y-137.586
X139.703Y-138.336
X139.703Y-139.086
X140.183Y-201.714
X140.203Y-132.704
X140.203Y-133.704
X140.203Y-137.086
X140.203Y-137.586
X140.203Y-138.336
X140.203Y-139.086
X140.453Y-115.89
X141.253Y-193.204
X141.353Y-99.854
X142.103Y-115.44
X142.603Y-118.054
X142.703Y-98.204
X142.853Y-99.854
X142.853Y-111.254
X143.703Y-133.954
X143.703Y-136.954
X144.453Y-131.072
X144.453Y-131.822
X144.703Y-133.954
X144.703Y-136.954
X144.828Y-118.004
X145.203Y-196.154
X145.203Y-199.704
X145.303Y-103.304
X145.303Y-108.804
X145.453Y-124.204
X145.453Y-124.954
X145.453Y-125.704
X145.453Y-126.454
X145.453Y-127.204
X145.453Y-131.072
X145.453Y-131.822
X145.603Y-104.804
X146.203Y-124.204
X146.203Y-124.954
X146.203Y-125.704
X146.203Y-126.454
X146.203Y-127.204
X146.203Y-131.072
X146.203Y-131.822
X146.203Y-133.954
X146.203Y-136.954
X146.533Y-79.794
X146.703Y-89.204
X146.953Y-124.204
X146.953Y-124.954
X146.953Y-125.704
X146.953Y-126.454
X146.953Y-127.204
X147.103Y-117.054
X147.193Y-92.204
X147.203Y-133.954
X147.203Y-136.954
X148.143Y-113.954
X148.239Y-102.804
X148.703Y-133.954
X148.703Y-136.954
X149.036Y-112.666
X149.063Y-97.554
X149.063Y-98.554
X149.063Y-99.554
X149.063Y-100.554
X149.063Y-101.554
X149.103Y-104.554
X149.103Y-105.554
X149.103Y-106.554
X149.103Y-107.554
X149.103Y-108.554
X149.103Y-109.554
X149.103Y-110.554
X149.103Y-111.554
X149.103Y-113.954
X149.703Y-133.954
X149.703Y-136.954
X150.078Y-115.079
X150.453Y-115.454
X150.453Y-131.704
X150.453Y-132.664
X150.578Y-114.579
X150.953Y-114.954
X151.203Y-196.954
X151.387Y-133.862
X151.387Y-134.822
X151.421Y-131.985
X151.441Y-132.965
X151.703Y-188.954
X152.203Y-192.454
X152.703Y-196.954
X152.937Y-134.322
X153.137Y-130.922
X153.187Y-132.322
X153.637Y-131.52
X153.887Y-132.322
X153.887Y-134.322
X153.953Y-128.704
X154.203Y-196.954
X154.478Y-138.929
X154.637Y-135.722
X154.703Y-127.672
X154.853Y-139.304
X155.203Y-89.204
X155.228Y-139.679
X155.453Y-114.454
X155.453Y-115.204
X155.453Y-115.954
X155.603Y-140.054
X155.703Y-196.954
X155.887Y-130.322
X155.953Y-137.454
X155.953Y-140.404
X156.203Y-114.454
X156.203Y-115.204
X156.203Y-115.954
X156.203Y-128.704
X156.703Y-133.322
X156.953Y-114.454
X156.953Y-115.204
X156.953Y-115.954
X157.203Y-197.454
X157.437Y-133.322
X157.703Y-114.454
X157.703Y-115.204
X157.703Y-115.954
X158.203Y-109.454
X158.453Y-114.454
X158.453Y-115.204
X158.453Y-115.954
X158.703Y-196.954
X159.183Y-110.204
X159.233Y-79.794
X160.203Y-196.954
X160.953Y-108.504
X161.203Y-117.704
X161.203Y-118.204
X161.203Y-118.704
X161.553Y-111.254
X161.703Y-196.954
X161.953Y-117.704
X161.953Y-118.204
X161.953Y-118.704
X162.203Y-111.204
X162.453Y-113.954
X162.581Y-113.004
X162.953Y-110.504
X162.953Y-141.954
X163.413Y-114.079
X163.541Y-113.004
X163.953Y-106.954
X163.953Y-119.704
X163.953Y-120.204
X163.953Y-120.704
X163.953Y-107.454
X164.203Y-139.954
X164.448Y-112.959
X164.453Y-177.454
X164.453Y-178.204
X164.703Y-119.704
X164.703Y-120.204
X164.703Y-120.704
X164.953Y-110.504
X164.953Y-111.454
X165.243Y-114.079
X165.243Y-114.954
X165.243Y-115.954
X165.453Y-141.835
X165.453Y-176.704
X165.953Y-177.843
X166.203Y-114.079
X166.203Y-114.954
X166.203Y-115.954
X166.203Y-141.954
X166.353Y-109.754
X166.703Y-143.454
X166.853Y-201.714
X167.453Y-108.504
X168.203Y-141.454
X168.703Y-114.954
X168.703Y-115.704
X168.703Y-116.454
X168.703Y-117.204
X168.703Y-139.954
X169.453Y-187.954
X169.703Y-114.954
X169.703Y-115.704
X169.703Y-116.454
X169.703Y-117.204
X169.703Y-119.704
X169.703Y-120.204
X169.703Y-120.704
X169.953Y-141.204
X170.003Y-97.104
X170.003Y-99.704
X170.166Y-137.954
X170.453Y-108.454
X170.453Y-108.954
X170.453Y-109.454
X170.556Y-138.704
X170.703Y-114.954
X170.703Y-115.704
X170.703Y-116.454
X170.703Y-117.204
X170.703Y-119.704
X170.703Y-120.204
X170.703Y-120.704
X170.946Y-139.204
X170.953Y-128.604
X171.703Y-114.954
X171.703Y-115.704
X171.703Y-116.454
X171.703Y-117.204
X171.703Y-119.704
X171.703Y-120.204
X171.703Y-120.704
X171.933Y-191.554
X172.203Y-137.954
X172.95Y-136.204
X173.229Y-192.254
X173.34Y-136.704
X174.203Y-191.954
X174.229Y-193.974
X174.703Y-136.204
X174.997Y-104.328
X175.229Y-192.204
X175.491Y-133.704
X175.88Y-134.204
X176.229Y-191.704
X176.703Y-104.704
X176.703Y-130.704
X176.876Y-191.877
X177.013Y-79.794
X177.203Y-133.704
X177.229Y-193.974
X177.453Y-95.804
X177.453Y-96.454
X177.556Y-191.851
X178.02Y-132.204
X178.42Y-131.704
X178.43Y-191.892
X178.729Y-193.974
X179.002Y-191.877
X179.203Y-128.204
X179.203Y-130.454
X179.966Y-191.871
X180.229Y-193.974
X180.407Y-129.204
X180.556Y-191.851
X180.957Y-129.204
X181.376Y-191.877
X181.729Y-193.974
X182.056Y-191.851
X182.453Y-125.954
X182.453Y-126.454
X182.453Y-126.954
X182.953Y-125.954
X182.953Y-126.454
X182.953Y-126.954
X183.363Y-191.554
X183.453Y-125.954
X183.453Y-126.454
X183.453Y-126.954
X185.953Y-112.365
X185.953Y-113.204
X187.173Y-79.794
X187.279Y-193.274
X187.279Y-194.234
X188.443Y-201.714
X188.879Y-193.564
X188.88Y-192.967
X188.88Y-194.182
X189.829Y-190.144
X192.529Y-192.374
X192.683Y-180.704
X192.683Y-182.204
X192.683Y-183.704
X192.703Y-179.204
X192.953Y-97.553
X193.169Y-103.417
X193.203Y-94.454
X193.203Y-101.05
X193.203Y-102.25
X193.626Y-111.88
X193.663Y-179.204
X193.703Y-180.704
X193.703Y-182.204
X194.453Y-184.954
X194.953Y-178.454
X195.016Y-107.058
X195.026Y-93.84
X195.026Y-105.86
X195.026Y-108.25
X195.026Y-109.454
X195.265Y-96.248
X195.276Y-110.675
X195.292Y-98.647
X195.815Y-182.554
X196.33Y-98.647
X196.487Y-93.857
X196.487Y-96.248
X196.626Y-110.65
X196.703Y-107.058
X196.703Y-109.45
X196.703Y-140.204
X196.703Y-140.704
X196.703Y-141.204
X196.703Y-184.092
X196.726Y-105.85
X196.726Y-108.25
X196.726Y-111.82
X197.203Y-113.204
X197.203Y-140.204
X197.203Y-140.704
X197.203Y-141.204
X197.203Y-186.704
X197.203Y-187.724
X197.353Y-184.092
X197.703Y-140.204
X197.703Y-140.704
X197.703Y-141.204
X198.003Y-184.092
X198.126Y-101.06
X198.177Y-111.453
X198.203Y-94.204
X198.203Y-97.454
X198.203Y-99.85
X198.203Y-102.204
X198.203Y-177.704
X198.653Y-180.367
X198.653Y-184.204
X198.703Y-186.694
X198.703Y-187.714
X198.953Y-100.204
X198.953Y-100.954
X198.953Y-102.654
X198.953Y-103.204
X198.953Y-111.453
X199.111Y-98.844
X199.111Y-104.432
X199.54Y-182.554
X199.54Y-183.204
X199.619Y-137.452
X199.703Y-110.704
X200.127Y-101.384
X200.203Y-127.704
X200.453Y-184.954
X200.703Y-136.704
X200.703Y-178.704
X201.143Y-201.714
X201.253Y-136.704
X201.651Y-98.844
X201.803Y-101.204
X201.803Y-136.704
X202.353Y-101.204
X202.353Y-136.704
X202.703Y-181.204
X202.703Y-182.704
X202.903Y-136.704
X202.953Y-101.704
X203.203Y-102.204
X203.453Y-136.704
X203.683Y-79.794
X203.749Y-102.269
X204.203Y-100.204
X204.203Y-136.704
X204.298Y-102.19
X204.601Y-102.801
X204.711Y-100.415
X204.753Y-136.704
X204.953Y-182.704
X204.953Y-187.954
X205.153Y-103.204
X205.303Y-136.704
X205.453Y-181.704
X205.703Y-102.704
X205.715Y-101.384
X205.853Y-136.704
X206.253Y-103.203
X206.403Y-136.704
X206.703Y-180.204
X206.731Y-100.368
X206.805Y-102.704
X206.953Y-136.704
X207.356Y-103.203
X207.501Y-137.252
X208.255Y-101.892
X208.479Y-181.934
X208.479Y-182.704
X208.576Y-137.147
X208.763Y-129.324
X208.763Y-131.356
X208.763Y-133.896
X209.176Y-79.35
X209.176Y-80.75
X209.176Y-82.15
X209.176Y-83.75
X209.203Y-136.704
X209.271Y-138.468
X210.084Y-136.807
X210.234Y-132.158
X210.287Y-126.276
X210.384Y-134.508
X210.403Y-85.104
X210.633Y-136.774
X210.783Y-132.124
X210.933Y-134.474
X210.953Y-189.954
X211.202Y-130.721
X211.203Y-128.704
X211.209Y-128.147
X211.234Y-130.172
X211.379Y-181.854
X211.741Y-126.665
X211.803Y-85.104
X211.837Y-125.547
X211.953Y-180.454
X212.203Y-124.808
X212.387Y-125.52
X212.453Y-194.454
X212.953Y-95.064
X212.953Y-201.704
X212.993Y-124.204
X213.068Y-125.839
X214.026Y-85.05
X214.351Y-122.72
X214.479Y-181.934
X214.479Y-182.704
X216.326Y-85.05
X216.703Y-94.954
X216.703Y-179.954
X217.603Y-112.652
X218.453Y-184.954
X218.776Y-85.05
X219.803Y-109.404
X220.203Y-96.204
X220.703Y-96.704
X221.076Y-85.05
X221.203Y-97.204
X221.703Y-169.704
X221.953Y-96.704
X222.479Y-107.988
X222.569Y-188.954
X222.703Y-96.454
X222.733Y-201.714
X223.176Y-85.05
X223.203Y-97.704
X223.703Y-98.204
X224.003Y-109.004
X224.203Y-98.704
X224.203Y-142.454
X224.203Y-144.704
X224.703Y-99.704
X224.703Y-105.579
X224.953Y-96.954
X224.953Y-190.454
X225.003Y-193.751
X225.178Y-193.229
X225.203Y-100.204
X225.203Y-110.204
X225.203Y-173.454
X225.356Y-92.55
X225.453Y-141.204
X225.606Y-189.454
X225.627Y-143.296
X225.696Y-145.261
X225.703Y-101.204
X225.703Y-144.704
X225.734Y-142.672
X225.776Y-85.05
X226.003Y-106.204
X226.176Y-84.15
X226.203Y-94.505
X226.276Y-79.25
X226.453Y-97.704
X226.453Y-110.454
X226.453Y-111.004
X226.609Y-103.409
X226.703Y-101.704
X226.703Y-102.254
X226.703Y-143.954
X226.703Y-146.704
X226.953Y-98.704
X226.953Y-108.25
X226.953Y-108.8
X226.954Y-109.454
X227.108Y-197.016
X227.203Y-94.13
X227.203Y-95.516
X227.426Y-103.05
X227.426Y-105.05
X227.453Y-107.05
X227.505Y-114.554
X227.633Y-197.214
X227.883Y-195.704
X228.703Y-192.184
X228.883Y-195.914
X228.926Y-93.835
X228.926Y-98.67
X228.953Y-190.704
X229.133Y-197.204
X229.203Y-96.204
X229.203Y-96.704
X229.203Y-97.204
X229.303Y-110.804
X229.701Y-104.269
X229.703Y-96.204
X229.703Y-96.704
X229.703Y-97.204
X229.703Y-102.204
X229.703Y-102.754
X229.703Y-107.704
X229.715Y-103.719
X229.883Y-195.914
X230.193Y-192.184
X230.203Y-103.204
X230.203Y-107.204
X230.203Y-108.204
X230.203Y-108.754
X230.203Y-168.679
X230.203Y-182.704
X230.203Y-190.204
X230.203Y-190.704
X230.203Y-191.204
X230.521Y-109.782
X230.529Y-185.896
X230.626Y-99.05
X230.626Y-101.35
X230.633Y-197.214
X230.652Y-100.187
X230.703Y-168.142
X230.703Y-182.704
X230.883Y-195.914
X230.953Y-178.954
X231.076Y-113.55
X231.203Y-167.704
X231.203Y-186.204
X231.203Y-192.244
X231.223Y-187.704
X231.429Y-184.946
X231.429Y-185.646
X231.703Y-186.204
X232.001Y-102.606
X232.126Y-108.204
X232.179Y-105.371
X232.203Y-98.704
X232.203Y-103.204
X232.203Y-104.704
X232.203Y-182.704
X232.203Y-192.244
X232.328Y-105.901
X232.328Y-106.451
X232.329Y-184.821
X232.383Y-195.914
X232.453Y-92.454
X232.483Y-197.214
X232.703Y-93.454
X232.703Y-94.204
X232.703Y-182.704
X232.953Y-177.994
X233.203Y-107.454
X233.344Y-106.704
X233.593Y-104.954
X233.703Y-98.275
X233.741Y-101.165
X233.843Y-103.204
X233.953Y-91.704
X234.191Y-102.215
X234.203Y-182.704
X234.203Y-184.204
X234.203Y-186.204
X234.203Y-191.204
X234.203Y-191.704
X234.203Y-192.204
X234.453Y-113.704
X234.703Y-182.704
X234.703Y-184.204
X234.703Y-186.204
X234.703Y-188.724
X235.203Y-95.954
X235.203Y-96.454
X235.703Y-95.954
X235.703Y-96.454
X235.703Y-187.704
X235.703Y-188.664
X235.953Y-107.204
X235.953Y-110.454
X236.203Y-95.954
X236.203Y-96.454
X236.203Y-182.704
X236.203Y-184.204
X236.203Y-186.204
X236.703Y-79.794
X236.703Y-95.954
X236.703Y-96.454
X236.703Y-182.704
X236.703Y-184.204
X236.703Y-186.204
X237.703Y-194.704
X237.703Y-195.204
X237.703Y-195.704
X238.203Y-186.454
X238.203Y-188.454
X238.479Y-173.054
X238.479Y-174.054
X238.703Y-168.204
X238.703Y-169.704
X238.703Y-186.454
X238.703Y-188.454
X239.203Y-92.204
X239.203Y-186.454
X239.203Y-188.454
X239.478Y-154.354
X239.478Y-175.054
X239.703Y-89.204
X239.703Y-90.204
X239.703Y-91.204
X240.203Y-92.204
X240.203Y-190.704
X240.203Y-191.204
X240.203Y-191.704
X240.513Y-86.144
X240.513Y-97.574
X240.513Y-116.624
X240.513Y-122.974
X240.513Y-130.594
X240.513Y-145.834
X240.513Y-150.914
X240.513Y-182.664
X240.513Y-187.744
X240.513Y-201.714
X240.703Y-190.704
X240.703Y-191.204
X240.703Y-191.704
X241.703Y-155.704
X241.703Y-157.554
X241.703Y-159.054
X241.703Y-162.054
X241.703Y-163.704
X241.703Y-165.204
X241.703Y-166.704
X241.703Y-168.204
X241.703Y-168.954
X241.803Y-160.404
T2
X136.103Y-102.054
X136.103Y-103.054
X136.103Y-104.054
X136.103Y-105.054
X136.103Y-106.054
X136.103Y-107.054
X136.103Y-108.054
X136.103Y-109.054
X137.103Y-102.054
X137.103Y-103.054
X137.103Y-104.054
X137.103Y-105.054
X137.103Y-106.054
X137.103Y-107.054
X137.103Y-108.054
X137.103Y-109.054
X138.103Y-102.054
X138.103Y-103.054
X138.103Y-104.054
X138.103Y-105.054
X138.103Y-106.054
X138.103Y-107.054
X138.103Y-108.054
X138.103Y-109.054
X139.103Y-102.054
X139.103Y-103.054
X139.103Y-104.054
X139.103Y-105.054
X139.103Y-106.054
X139.103Y-107.054
X139.103Y-108.054
X139.103Y-109.054
X140.103Y-102.054
X140.103Y-103.054
X140.103Y-104.054
X140.103Y-105.054
X140.103Y-106.054
X140.103Y-107.054
X140.103Y-108.054
X140.103Y-109.054
X141.103Y-102.054
X141.103Y-103.054
X141.103Y-104.054
X141.103Y-105.054
X141.103Y-106.054
X141.103Y-107.054
X141.103Y-108.054
X141.103Y-109.054
X142.103Y-102.054
X142.103Y-103.054
X142.103Y-104.054
X142.103Y-105.054
X142.103Y-106.054
X142.103Y-107.054
X142.103Y-108.054
X142.103Y-109.054
X143.103Y-102.054
X143.103Y-103.054
X143.103Y-104.054
X143.103Y-105.054
X143.103Y-106.054
X143.103Y-107.054
X143.103Y-108.054
X143.103Y-109.054
X196.878Y-181.429
X196.878Y-182.229
X196.878Y-183.029
X197.678Y-181.429
X197.678Y-182.229
X197.678Y-183.029
X198.478Y-181.429
X198.478Y-182.229
X198.478Y-183.029
T3
X124.82Y-87.031
X124.82Y-87.931
X124.82Y-88.831
X124.82Y-89.731
X124.82Y-90.631
X124.82Y-91.531
X124.82Y-92.431
X125.6Y-87.481
X125.6Y-88.381
X125.6Y-89.281
X125.6Y-90.181
X125.6Y-91.081
X125.6Y-91.981
X125.6Y-92.881
X133.279Y-87.031
X133.279Y-87.931
X133.279Y-88.831
X133.279Y-89.731
X133.279Y-90.631
X133.279Y-91.531
X133.279Y-92.431
X134.059Y-87.481
X134.059Y-88.381
X134.059Y-89.281
X134.059Y-90.181
X134.059Y-91.081
X134.059Y-91.981
X134.059Y-92.881
X142.293Y-87.031
X142.293Y-87.931
X142.293Y-88.831
X142.293Y-89.731
X142.293Y-90.631
X142.293Y-91.531
X142.293Y-92.431
X143.073Y-87.481
X143.073Y-88.381
X143.073Y-89.281
X143.073Y-90.181
X143.073Y-91.081
X143.073Y-91.981
X143.073Y-92.881
X150.779Y-87.031
X150.779Y-87.931
X150.779Y-88.831
X150.779Y-89.731
X150.779Y-90.631
X150.779Y-91.531
X150.779Y-92.431
X151.559Y-87.481
X151.559Y-88.381
X151.559Y-89.281
X151.559Y-90.181
X151.559Y-91.081
X151.559Y-91.981
X151.559Y-92.881
T4
X229.953Y-136.954
X229.953Y-138.454
X230.953Y-139.704
X232.203Y-142.204
X232.703Y-139.704
X233.703Y-142.204
X234.453Y-135.204
X234.453Y-138.204
X234.453Y-140.954
X235.953Y-135.204
X235.953Y-138.204
X236.703Y-136.454
X236.703Y-139.704
X238.453Y-138.204
X238.953Y-140.954
X239.203Y-136.454
X240.703Y-138.204
X240.703Y-139.454
T6
X206.364Y-185.644
X206.364Y-190.704
X207.634Y-188.184
X208.904Y-185.644
X208.904Y-191.974
X210.174Y-188.184
X211.444Y-185.644
X212.714Y-188.184
X213.984Y-185.644
X215.254Y-188.184
X215.254Y-191.974
X216.524Y-185.644
X217.794Y-188.184
X217.794Y-190.704
T7
X120.703Y-122.204
X120.703Y-126.704
X120.703Y-133.204
X120.703Y-137.704
T8
X120.453Y-175.374
X120.453Y-177.914
X120.453Y-180.454
X133.703Y-148.164
X133.703Y-150.704
X136.243Y-148.164
X136.243Y-150.704
X138.783Y-148.164
X138.783Y-150.704
X141.323Y-148.164
X141.323Y-150.704
X142.663Y-155.164
X142.663Y-157.704
X142.663Y-160.244
X142.663Y-162.784
X142.663Y-165.324
X142.663Y-167.864
X142.663Y-170.404
X143.863Y-148.164
X143.863Y-150.704
X145.203Y-155.164
X145.203Y-157.704
X145.203Y-160.244
X145.203Y-162.784
X145.203Y-165.324
X145.203Y-167.864
X145.203Y-170.404
X146.403Y-148.164
X146.403Y-150.704
X148.943Y-148.164
X148.943Y-150.704
X151.483Y-148.164
X151.483Y-150.704
X154.023Y-148.164
X154.023Y-150.704
X156.563Y-148.164
X156.563Y-150.704
X159.103Y-148.164
X159.103Y-150.704
X161.643Y-148.164
X161.643Y-150.704
X164.183Y-148.164
X164.183Y-150.704
X166.723Y-148.164
X166.723Y-150.704
X169.263Y-148.164
X169.263Y-150.704
X171.803Y-148.164
X171.803Y-150.704
X174.343Y-148.164
X174.343Y-150.704
X176.883Y-148.164
X176.883Y-150.704
X179.423Y-148.164
X179.423Y-150.704
X181.963Y-148.164
X181.963Y-150.704
X235.123Y-82.204
X237.663Y-82.204
X240.203Y-82.204
T9
X205.449Y-198.594
X207.989Y-198.594
X216.169Y-198.594
X218.709Y-198.594
T10
X159.479Y-180.954
X159.479Y-183.494
X159.479Y-186.034
X159.479Y-188.574
X167.203Y-180.924
X167.203Y-183.464
X167.203Y-186.004
X167.203Y-188.544
X174.803Y-180.954
X174.803Y-183.494
X174.803Y-186.034
X174.803Y-188.574
X182.849Y-180.951
X182.849Y-183.491
X182.849Y-186.031
X182.849Y-188.571
T11
X123.193Y-120.944
X123.193Y-127.954
X123.193Y-131.944
X123.193Y-138.954
T12
X204.204Y-191.484
X219.954Y-191.484
T13
X162.729Y-83.504
X162.729Y-88.504
X170.229Y-83.504
X170.229Y-88.504
X183.229Y-83.504
X183.229Y-88.504
X190.729Y-83.504
X190.729Y-88.504
T14
X156.703Y-164.704
X176.703Y-164.704
X194.703Y-164.704
X206.703Y-164.704
T5
X119.699Y-108.134G85X118.899Y-108.134
G05
X119.699Y-116.774G85X118.899Y-116.774
G05
X124.029Y-108.134G85X122.929Y-108.134
G05
X124.029Y-116.774G85X122.929Y-116.774
G05
X123.78Y-92.831G85X123.78Y-91.831
G05
X123.791Y-88.109G85X123.791Y-87.109
G05
X126.64Y-88.031G85X126.64Y-87.031
G05
X126.64Y-92.831G85X126.64Y-91.831
G05
X132.239Y-92.831G85X132.239Y-91.831
G05
X132.25Y-88.109G85X132.25Y-87.109
G05
X135.099Y-88.031G85X135.099Y-87.031
G05
X135.099Y-92.831G85X135.099Y-91.831
G05
X141.253Y-92.831G85X141.253Y-91.831
G05
X141.264Y-88.109G85X141.264Y-87.109
G05
X144.113Y-88.031G85X144.113Y-87.031
G05
X144.113Y-92.831G85X144.113Y-91.831
G05
X149.739Y-92.831G85X149.739Y-91.831
G05
X149.75Y-88.109G85X149.75Y-87.109
G05
X152.599Y-88.031G85X152.599Y-87.031
G05
X152.599Y-92.831G85X152.599Y-91.831
G05
X225.063Y-195.824G85X225.063Y-196.824
G05
X225.063Y-200.934G85X225.063Y-202.434
G05
X233.703Y-195.824G85X233.703Y-196.824
G05
X233.703Y-200.934G85X233.703Y-202.434
G05
T6
X170.479Y-193.804G85X170.479Y-195.604
G05
X170.479Y-200.264G85X170.479Y-201.064
G05
X184.979Y-193.804G85X184.979Y-195.604
G05
X184.979Y-200.264G85X184.979Y-201.064
G05
M30
