%TF.GenerationSoftware,KiCad,Pcbnew,9.0.3*%
%TF.CreationDate,2025-08-24T22:17:20-04:00*%
%TF.ProjectId,libreboard,6c696272-6562-46f6-9172-642e6b696361,rev?*%
%TF.SameCoordinates,Original*%
%TF.FileFunction,Paste,Top*%
%TF.FilePolarity,Positive*%
%FSLAX46Y46*%
G04 Gerber Fmt 4.6, Leading zero omitted, Abs format (unit mm)*
G04 Created by KiCad (PCBNEW 9.0.3) date 2025-08-24 22:17:20*
%MOMM*%
%LPD*%
G01*
G04 APERTURE LIST*
G04 Aperture macros list*
%AMRoundRect*
0 Rectangle with rounded corners*
0 $1 Rounding radius*
0 $2 $3 $4 $5 $6 $7 $8 $9 X,Y pos of 4 corners*
0 Add a 4 corners polygon primitive as box body*
4,1,4,$2,$3,$4,$5,$6,$7,$8,$9,$2,$3,0*
0 Add four circle primitives for the rounded corners*
1,1,$1+$1,$2,$3*
1,1,$1+$1,$4,$5*
1,1,$1+$1,$6,$7*
1,1,$1+$1,$8,$9*
0 Add four rect primitives between the rounded corners*
20,1,$1+$1,$2,$3,$4,$5,0*
20,1,$1+$1,$4,$5,$6,$7,0*
20,1,$1+$1,$6,$7,$8,$9,0*
20,1,$1+$1,$8,$9,$2,$3,0*%
G04 Aperture macros list end*
%ADD10C,0.010000*%
%ADD11C,0.000000*%
%ADD12RoundRect,0.140000X0.170000X-0.140000X0.170000X0.140000X-0.170000X0.140000X-0.170000X-0.140000X0*%
%ADD13RoundRect,0.250000X0.250000X0.475000X-0.250000X0.475000X-0.250000X-0.475000X0.250000X-0.475000X0*%
%ADD14R,0.300000X1.300000*%
%ADD15R,1.800000X2.200000*%
%ADD16RoundRect,0.135000X0.185000X-0.135000X0.185000X0.135000X-0.185000X0.135000X-0.185000X-0.135000X0*%
%ADD17RoundRect,0.075000X0.075000X0.200000X-0.075000X0.200000X-0.075000X-0.200000X0.075000X-0.200000X0*%
%ADD18RoundRect,0.162500X0.162500X-0.837500X0.162500X0.837500X-0.162500X0.837500X-0.162500X-0.837500X0*%
%ADD19RoundRect,0.218750X0.256250X-0.218750X0.256250X0.218750X-0.256250X0.218750X-0.256250X-0.218750X0*%
%ADD20RoundRect,0.150000X-0.425000X0.150000X-0.425000X-0.150000X0.425000X-0.150000X0.425000X0.150000X0*%
%ADD21RoundRect,0.075000X-0.500000X0.075000X-0.500000X-0.075000X0.500000X-0.075000X0.500000X0.075000X0*%
%ADD22O,2.100000X1.000000*%
%ADD23O,1.800000X1.000000*%
%ADD24RoundRect,0.100000X-0.100000X0.225000X-0.100000X-0.225000X0.100000X-0.225000X0.100000X0.225000X0*%
%ADD25RoundRect,0.150000X0.512500X0.150000X-0.512500X0.150000X-0.512500X-0.150000X0.512500X-0.150000X0*%
%ADD26R,0.300000X2.600000*%
%ADD27RoundRect,0.250000X-0.350000X-0.450000X0.350000X-0.450000X0.350000X0.450000X-0.350000X0.450000X0*%
%ADD28RoundRect,0.218750X0.218750X0.256250X-0.218750X0.256250X-0.218750X-0.256250X0.218750X-0.256250X0*%
%ADD29R,0.850000X0.650000*%
%ADD30R,0.500000X0.300000*%
%ADD31R,1.100000X0.700000*%
%ADD32R,0.930000X0.900000*%
%ADD33R,0.780000X1.050000*%
%ADD34R,3.330000X0.700000*%
%ADD35R,1.830000X1.140000*%
%ADD36R,2.800000X0.860000*%
%ADD37R,1.550000X0.300000*%
%ADD38R,2.750000X1.200000*%
%ADD39RoundRect,0.200000X0.275000X-0.200000X0.275000X0.200000X-0.275000X0.200000X-0.275000X-0.200000X0*%
%ADD40RoundRect,0.250000X0.475000X-0.250000X0.475000X0.250000X-0.475000X0.250000X-0.475000X-0.250000X0*%
%ADD41RoundRect,0.250000X-0.475000X0.250000X-0.475000X-0.250000X0.475000X-0.250000X0.475000X0.250000X0*%
%ADD42RoundRect,0.140000X-0.140000X-0.170000X0.140000X-0.170000X0.140000X0.170000X-0.140000X0.170000X0*%
%ADD43R,0.540000X0.600000*%
%ADD44RoundRect,0.250000X-0.465000X-2.500000X0.465000X-2.500000X0.465000X2.500000X-0.465000X2.500000X0*%
%ADD45RoundRect,0.140000X-0.170000X0.140000X-0.170000X-0.140000X0.170000X-0.140000X0.170000X0.140000X0*%
%ADD46RoundRect,0.140000X0.140000X0.170000X-0.140000X0.170000X-0.140000X-0.170000X0.140000X-0.170000X0*%
%ADD47RoundRect,0.250000X1.450000X-0.250000X1.450000X0.250000X-1.450000X0.250000X-1.450000X-0.250000X0*%
%ADD48RoundRect,0.135000X0.135000X0.185000X-0.135000X0.185000X-0.135000X-0.185000X0.135000X-0.185000X0*%
%ADD49RoundRect,0.250000X-0.250000X-0.475000X0.250000X-0.475000X0.250000X0.475000X-0.250000X0.475000X0*%
%ADD50RoundRect,0.135000X-0.135000X-0.185000X0.135000X-0.185000X0.135000X0.185000X-0.135000X0.185000X0*%
%ADD51RoundRect,0.250000X-0.325000X-1.100000X0.325000X-1.100000X0.325000X1.100000X-0.325000X1.100000X0*%
%ADD52R,0.300000X0.700000*%
%ADD53R,1.000000X0.700000*%
%ADD54RoundRect,0.150000X0.625000X-0.150000X0.625000X0.150000X-0.625000X0.150000X-0.625000X-0.150000X0*%
%ADD55RoundRect,0.250000X0.650000X-0.350000X0.650000X0.350000X-0.650000X0.350000X-0.650000X-0.350000X0*%
%ADD56RoundRect,0.200000X-0.200000X-0.275000X0.200000X-0.275000X0.200000X0.275000X-0.200000X0.275000X0*%
%ADD57RoundRect,0.225000X-0.225000X-0.250000X0.225000X-0.250000X0.225000X0.250000X-0.225000X0.250000X0*%
%ADD58RoundRect,0.200000X-0.275000X0.200000X-0.275000X-0.200000X0.275000X-0.200000X0.275000X0.200000X0*%
%ADD59RoundRect,0.250000X1.025000X-0.787500X1.025000X0.787500X-1.025000X0.787500X-1.025000X-0.787500X0*%
%ADD60RoundRect,0.050000X0.260000X0.075000X-0.260000X0.075000X-0.260000X-0.075000X0.260000X-0.075000X0*%
%ADD61RoundRect,0.135000X-0.185000X0.135000X-0.185000X-0.135000X0.185000X-0.135000X0.185000X0.135000X0*%
%ADD62RoundRect,0.250000X-0.785000X-1.045000X0.785000X-1.045000X0.785000X1.045000X-0.785000X1.045000X0*%
%ADD63R,1.570000X1.235000*%
%ADD64R,1.570000X1.585000*%
%ADD65RoundRect,0.122500X0.122500X-0.122500X0.122500X0.122500X-0.122500X0.122500X-0.122500X-0.122500X0*%
%ADD66R,0.490000X0.490000*%
%ADD67R,1.400000X1.200000*%
%ADD68RoundRect,0.150000X-0.512500X-0.150000X0.512500X-0.150000X0.512500X0.150000X-0.512500X0.150000X0*%
%ADD69RoundRect,0.227500X-0.227500X-0.227500X0.227500X-0.227500X0.227500X0.227500X-0.227500X0.227500X0*%
%ADD70RoundRect,0.087500X-0.425000X-0.087500X0.425000X-0.087500X0.425000X0.087500X-0.425000X0.087500X0*%
%ADD71RoundRect,0.087500X-0.087500X-0.425000X0.087500X-0.425000X0.087500X0.425000X-0.087500X0.425000X0*%
%ADD72RoundRect,0.150000X-0.150000X0.512500X-0.150000X-0.512500X0.150000X-0.512500X0.150000X0.512500X0*%
%ADD73RoundRect,0.500000X0.900000X-0.500000X0.900000X0.500000X-0.900000X0.500000X-0.900000X-0.500000X0*%
%ADD74RoundRect,0.249999X0.450001X1.450001X-0.450001X1.450001X-0.450001X-1.450001X0.450001X-1.450001X0*%
%ADD75O,0.889000X1.905000*%
%ADD76R,0.249999X0.499999*%
%ADD77R,2.650000X1.000000*%
%ADD78RoundRect,0.250000X-1.100000X0.325000X-1.100000X-0.325000X1.100000X-0.325000X1.100000X0.325000X0*%
%ADD79RoundRect,0.200000X0.250000X-0.200000X0.250000X0.200000X-0.250000X0.200000X-0.250000X-0.200000X0*%
%ADD80RoundRect,0.537500X1.712500X-0.537500X1.712500X0.537500X-1.712500X0.537500X-1.712500X-0.537500X0*%
%ADD81RoundRect,0.250000X-0.325000X-0.650000X0.325000X-0.650000X0.325000X0.650000X-0.325000X0.650000X0*%
%ADD82R,1.200000X1.000000*%
%ADD83R,1.200000X0.700000*%
%ADD84R,1.200000X0.450000*%
%ADD85R,0.700000X0.200000*%
%ADD86RoundRect,0.079500X-0.100500X0.079500X-0.100500X-0.079500X0.100500X-0.079500X0.100500X0.079500X0*%
%ADD87R,1.750000X1.750000*%
%ADD88R,1.500000X0.300000*%
%ADD89R,0.300000X1.500000*%
%ADD90RoundRect,0.150000X-0.150000X-0.625000X0.150000X-0.625000X0.150000X0.625000X-0.150000X0.625000X0*%
%ADD91RoundRect,0.250000X-0.350000X-0.650000X0.350000X-0.650000X0.350000X0.650000X-0.350000X0.650000X0*%
G04 APERTURE END LIST*
D10*
%TO.C,U14*%
X144375600Y-127055100D02*
X144377600Y-127055100D01*
X144380600Y-127056100D01*
X144382600Y-127056100D01*
X144385600Y-127057100D01*
X144387600Y-127058100D01*
X144390600Y-127059100D01*
X144392600Y-127061100D01*
X144394600Y-127062100D01*
X144396600Y-127064100D01*
X144398600Y-127065100D01*
X144400600Y-127067100D01*
X144402600Y-127069100D01*
X144404600Y-127071100D01*
X144406600Y-127073100D01*
X144407600Y-127075100D01*
X144409600Y-127077100D01*
X144410600Y-127079100D01*
X144412600Y-127081100D01*
X144413600Y-127084100D01*
X144414600Y-127086100D01*
X144415600Y-127089100D01*
X144415600Y-127091100D01*
X144416600Y-127094100D01*
X144416600Y-127096100D01*
X144417600Y-127099100D01*
X144417600Y-127101100D01*
X144417600Y-127104100D01*
X144417600Y-128104100D01*
X144417600Y-128107100D01*
X144417600Y-128109100D01*
X144416600Y-128112100D01*
X144416600Y-128114100D01*
X144415600Y-128117100D01*
X144415600Y-128119100D01*
X144414600Y-128122100D01*
X144413600Y-128124100D01*
X144412600Y-128127100D01*
X144410600Y-128129100D01*
X144409600Y-128131100D01*
X144407600Y-128133100D01*
X144406600Y-128135100D01*
X144404600Y-128137100D01*
X144402600Y-128139100D01*
X144400600Y-128141100D01*
X144398600Y-128143100D01*
X144396600Y-128144100D01*
X144394600Y-128146100D01*
X144392600Y-128147100D01*
X144390600Y-128149100D01*
X144387600Y-128150100D01*
X144385600Y-128151100D01*
X144382600Y-128152100D01*
X144380600Y-128152100D01*
X144377600Y-128153100D01*
X144375600Y-128153100D01*
X144372600Y-128154100D01*
X144370600Y-128154100D01*
X144367600Y-128154100D01*
X143257600Y-128154100D01*
X143254600Y-128154100D01*
X143252600Y-128154100D01*
X143249600Y-128153100D01*
X143247600Y-128153100D01*
X143244600Y-128152100D01*
X143242600Y-128152100D01*
X143239600Y-128151100D01*
X143237600Y-128150100D01*
X143234600Y-128149100D01*
X143232600Y-128147100D01*
X143230600Y-128146100D01*
X143228600Y-128144100D01*
X143226600Y-128143100D01*
X143224600Y-128141100D01*
X143222600Y-128139100D01*
X143220600Y-128137100D01*
X143218600Y-128135100D01*
X143217600Y-128133100D01*
X143215600Y-128131100D01*
X143214600Y-128129100D01*
X143212600Y-128127100D01*
X143211600Y-128124100D01*
X143210600Y-128122100D01*
X143209600Y-128119100D01*
X143209600Y-128117100D01*
X143208600Y-128114100D01*
X143208600Y-128112100D01*
X143207600Y-128109100D01*
X143207600Y-128107100D01*
X143207600Y-128104100D01*
X143207600Y-127104100D01*
X143207600Y-127101100D01*
X143207600Y-127099100D01*
X143208600Y-127096100D01*
X143208600Y-127094100D01*
X143209600Y-127091100D01*
X143209600Y-127089100D01*
X143210600Y-127086100D01*
X143211600Y-127084100D01*
X143212600Y-127081100D01*
X143214600Y-127079100D01*
X143215600Y-127077100D01*
X143217600Y-127075100D01*
X143218600Y-127073100D01*
X143220600Y-127071100D01*
X143222600Y-127069100D01*
X143224600Y-127067100D01*
X143226600Y-127065100D01*
X143228600Y-127064100D01*
X143230600Y-127062100D01*
X143232600Y-127061100D01*
X143234600Y-127059100D01*
X143237600Y-127058100D01*
X143239600Y-127057100D01*
X143242600Y-127056100D01*
X143244600Y-127056100D01*
X143247600Y-127055100D01*
X143249600Y-127055100D01*
X143252600Y-127054100D01*
X143254600Y-127054100D01*
X143257600Y-127054100D01*
X144367600Y-127054100D01*
X144370600Y-127054100D01*
X144372600Y-127054100D01*
X144375600Y-127055100D01*
G36*
X144375600Y-127055100D02*
G01*
X144377600Y-127055100D01*
X144380600Y-127056100D01*
X144382600Y-127056100D01*
X144385600Y-127057100D01*
X144387600Y-127058100D01*
X144390600Y-127059100D01*
X144392600Y-127061100D01*
X144394600Y-127062100D01*
X144396600Y-127064100D01*
X144398600Y-127065100D01*
X144400600Y-127067100D01*
X144402600Y-127069100D01*
X144404600Y-127071100D01*
X144406600Y-127073100D01*
X144407600Y-127075100D01*
X144409600Y-127077100D01*
X144410600Y-127079100D01*
X144412600Y-127081100D01*
X144413600Y-127084100D01*
X144414600Y-127086100D01*
X144415600Y-127089100D01*
X144415600Y-127091100D01*
X144416600Y-127094100D01*
X144416600Y-127096100D01*
X144417600Y-127099100D01*
X144417600Y-127101100D01*
X144417600Y-127104100D01*
X144417600Y-128104100D01*
X144417600Y-128107100D01*
X144417600Y-128109100D01*
X144416600Y-128112100D01*
X144416600Y-128114100D01*
X144415600Y-128117100D01*
X144415600Y-128119100D01*
X144414600Y-128122100D01*
X144413600Y-128124100D01*
X144412600Y-128127100D01*
X144410600Y-128129100D01*
X144409600Y-128131100D01*
X144407600Y-128133100D01*
X144406600Y-128135100D01*
X144404600Y-128137100D01*
X144402600Y-128139100D01*
X144400600Y-128141100D01*
X144398600Y-128143100D01*
X144396600Y-128144100D01*
X144394600Y-128146100D01*
X144392600Y-128147100D01*
X144390600Y-128149100D01*
X144387600Y-128150100D01*
X144385600Y-128151100D01*
X144382600Y-128152100D01*
X144380600Y-128152100D01*
X144377600Y-128153100D01*
X144375600Y-128153100D01*
X144372600Y-128154100D01*
X144370600Y-128154100D01*
X144367600Y-128154100D01*
X143257600Y-128154100D01*
X143254600Y-128154100D01*
X143252600Y-128154100D01*
X143249600Y-128153100D01*
X143247600Y-128153100D01*
X143244600Y-128152100D01*
X143242600Y-128152100D01*
X143239600Y-128151100D01*
X143237600Y-128150100D01*
X143234600Y-128149100D01*
X143232600Y-128147100D01*
X143230600Y-128146100D01*
X143228600Y-128144100D01*
X143226600Y-128143100D01*
X143224600Y-128141100D01*
X143222600Y-128139100D01*
X143220600Y-128137100D01*
X143218600Y-128135100D01*
X143217600Y-128133100D01*
X143215600Y-128131100D01*
X143214600Y-128129100D01*
X143212600Y-128127100D01*
X143211600Y-128124100D01*
X143210600Y-128122100D01*
X143209600Y-128119100D01*
X143209600Y-128117100D01*
X143208600Y-128114100D01*
X143208600Y-128112100D01*
X143207600Y-128109100D01*
X143207600Y-128107100D01*
X143207600Y-128104100D01*
X143207600Y-127104100D01*
X143207600Y-127101100D01*
X143207600Y-127099100D01*
X143208600Y-127096100D01*
X143208600Y-127094100D01*
X143209600Y-127091100D01*
X143209600Y-127089100D01*
X143210600Y-127086100D01*
X143211600Y-127084100D01*
X143212600Y-127081100D01*
X143214600Y-127079100D01*
X143215600Y-127077100D01*
X143217600Y-127075100D01*
X143218600Y-127073100D01*
X143220600Y-127071100D01*
X143222600Y-127069100D01*
X143224600Y-127067100D01*
X143226600Y-127065100D01*
X143228600Y-127064100D01*
X143230600Y-127062100D01*
X143232600Y-127061100D01*
X143234600Y-127059100D01*
X143237600Y-127058100D01*
X143239600Y-127057100D01*
X143242600Y-127056100D01*
X143244600Y-127056100D01*
X143247600Y-127055100D01*
X143249600Y-127055100D01*
X143252600Y-127054100D01*
X143254600Y-127054100D01*
X143257600Y-127054100D01*
X144367600Y-127054100D01*
X144370600Y-127054100D01*
X144372600Y-127054100D01*
X144375600Y-127055100D01*
G37*
X144375600Y-125755100D02*
X144377600Y-125755100D01*
X144380600Y-125756100D01*
X144382600Y-125756100D01*
X144385600Y-125757100D01*
X144387600Y-125758100D01*
X144390600Y-125759100D01*
X144392600Y-125761100D01*
X144394600Y-125762100D01*
X144396600Y-125764100D01*
X144398600Y-125765100D01*
X144400600Y-125767100D01*
X144402600Y-125769100D01*
X144404600Y-125771100D01*
X144406600Y-125773100D01*
X144407600Y-125775100D01*
X144409600Y-125777100D01*
X144410600Y-125779100D01*
X144412600Y-125781100D01*
X144413600Y-125784100D01*
X144414600Y-125786100D01*
X144415600Y-125789100D01*
X144415600Y-125791100D01*
X144416600Y-125794100D01*
X144416600Y-125796100D01*
X144417600Y-125799100D01*
X144417600Y-125801100D01*
X144417600Y-125804100D01*
X144417600Y-126804100D01*
X144417600Y-126807100D01*
X144417600Y-126809100D01*
X144416600Y-126812100D01*
X144416600Y-126814100D01*
X144415600Y-126817100D01*
X144415600Y-126819100D01*
X144414600Y-126822100D01*
X144413600Y-126824100D01*
X144412600Y-126827100D01*
X144410600Y-126829100D01*
X144409600Y-126831100D01*
X144407600Y-126833100D01*
X144406600Y-126835100D01*
X144404600Y-126837100D01*
X144402600Y-126839100D01*
X144400600Y-126841100D01*
X144398600Y-126843100D01*
X144396600Y-126844100D01*
X144394600Y-126846100D01*
X144392600Y-126847100D01*
X144390600Y-126849100D01*
X144387600Y-126850100D01*
X144385600Y-126851100D01*
X144382600Y-126852100D01*
X144380600Y-126852100D01*
X144377600Y-126853100D01*
X144375600Y-126853100D01*
X144372600Y-126854100D01*
X144370600Y-126854100D01*
X144367600Y-126854100D01*
X143257600Y-126854100D01*
X143254600Y-126854100D01*
X143252600Y-126854100D01*
X143249600Y-126853100D01*
X143247600Y-126853100D01*
X143244600Y-126852100D01*
X143242600Y-126852100D01*
X143239600Y-126851100D01*
X143237600Y-126850100D01*
X143234600Y-126849100D01*
X143232600Y-126847100D01*
X143230600Y-126846100D01*
X143228600Y-126844100D01*
X143226600Y-126843100D01*
X143224600Y-126841100D01*
X143222600Y-126839100D01*
X143220600Y-126837100D01*
X143218600Y-126835100D01*
X143217600Y-126833100D01*
X143215600Y-126831100D01*
X143214600Y-126829100D01*
X143212600Y-126827100D01*
X143211600Y-126824100D01*
X143210600Y-126822100D01*
X143209600Y-126819100D01*
X143209600Y-126817100D01*
X143208600Y-126814100D01*
X143208600Y-126812100D01*
X143207600Y-126809100D01*
X143207600Y-126807100D01*
X143207600Y-126804100D01*
X143207600Y-125804100D01*
X143207600Y-125801100D01*
X143207600Y-125799100D01*
X143208600Y-125796100D01*
X143208600Y-125794100D01*
X143209600Y-125791100D01*
X143209600Y-125789100D01*
X143210600Y-125786100D01*
X143211600Y-125784100D01*
X143212600Y-125781100D01*
X143214600Y-125779100D01*
X143215600Y-125777100D01*
X143217600Y-125775100D01*
X143218600Y-125773100D01*
X143220600Y-125771100D01*
X143222600Y-125769100D01*
X143224600Y-125767100D01*
X143226600Y-125765100D01*
X143228600Y-125764100D01*
X143230600Y-125762100D01*
X143232600Y-125761100D01*
X143234600Y-125759100D01*
X143237600Y-125758100D01*
X143239600Y-125757100D01*
X143242600Y-125756100D01*
X143244600Y-125756100D01*
X143247600Y-125755100D01*
X143249600Y-125755100D01*
X143252600Y-125754100D01*
X143254600Y-125754100D01*
X143257600Y-125754100D01*
X144367600Y-125754100D01*
X144370600Y-125754100D01*
X144372600Y-125754100D01*
X144375600Y-125755100D01*
G36*
X144375600Y-125755100D02*
G01*
X144377600Y-125755100D01*
X144380600Y-125756100D01*
X144382600Y-125756100D01*
X144385600Y-125757100D01*
X144387600Y-125758100D01*
X144390600Y-125759100D01*
X144392600Y-125761100D01*
X144394600Y-125762100D01*
X144396600Y-125764100D01*
X144398600Y-125765100D01*
X144400600Y-125767100D01*
X144402600Y-125769100D01*
X144404600Y-125771100D01*
X144406600Y-125773100D01*
X144407600Y-125775100D01*
X144409600Y-125777100D01*
X144410600Y-125779100D01*
X144412600Y-125781100D01*
X144413600Y-125784100D01*
X144414600Y-125786100D01*
X144415600Y-125789100D01*
X144415600Y-125791100D01*
X144416600Y-125794100D01*
X144416600Y-125796100D01*
X144417600Y-125799100D01*
X144417600Y-125801100D01*
X144417600Y-125804100D01*
X144417600Y-126804100D01*
X144417600Y-126807100D01*
X144417600Y-126809100D01*
X144416600Y-126812100D01*
X144416600Y-126814100D01*
X144415600Y-126817100D01*
X144415600Y-126819100D01*
X144414600Y-126822100D01*
X144413600Y-126824100D01*
X144412600Y-126827100D01*
X144410600Y-126829100D01*
X144409600Y-126831100D01*
X144407600Y-126833100D01*
X144406600Y-126835100D01*
X144404600Y-126837100D01*
X144402600Y-126839100D01*
X144400600Y-126841100D01*
X144398600Y-126843100D01*
X144396600Y-126844100D01*
X144394600Y-126846100D01*
X144392600Y-126847100D01*
X144390600Y-126849100D01*
X144387600Y-126850100D01*
X144385600Y-126851100D01*
X144382600Y-126852100D01*
X144380600Y-126852100D01*
X144377600Y-126853100D01*
X144375600Y-126853100D01*
X144372600Y-126854100D01*
X144370600Y-126854100D01*
X144367600Y-126854100D01*
X143257600Y-126854100D01*
X143254600Y-126854100D01*
X143252600Y-126854100D01*
X143249600Y-126853100D01*
X143247600Y-126853100D01*
X143244600Y-126852100D01*
X143242600Y-126852100D01*
X143239600Y-126851100D01*
X143237600Y-126850100D01*
X143234600Y-126849100D01*
X143232600Y-126847100D01*
X143230600Y-126846100D01*
X143228600Y-126844100D01*
X143226600Y-126843100D01*
X143224600Y-126841100D01*
X143222600Y-126839100D01*
X143220600Y-126837100D01*
X143218600Y-126835100D01*
X143217600Y-126833100D01*
X143215600Y-126831100D01*
X143214600Y-126829100D01*
X143212600Y-126827100D01*
X143211600Y-126824100D01*
X143210600Y-126822100D01*
X143209600Y-126819100D01*
X143209600Y-126817100D01*
X143208600Y-126814100D01*
X143208600Y-126812100D01*
X143207600Y-126809100D01*
X143207600Y-126807100D01*
X143207600Y-126804100D01*
X143207600Y-125804100D01*
X143207600Y-125801100D01*
X143207600Y-125799100D01*
X143208600Y-125796100D01*
X143208600Y-125794100D01*
X143209600Y-125791100D01*
X143209600Y-125789100D01*
X143210600Y-125786100D01*
X143211600Y-125784100D01*
X143212600Y-125781100D01*
X143214600Y-125779100D01*
X143215600Y-125777100D01*
X143217600Y-125775100D01*
X143218600Y-125773100D01*
X143220600Y-125771100D01*
X143222600Y-125769100D01*
X143224600Y-125767100D01*
X143226600Y-125765100D01*
X143228600Y-125764100D01*
X143230600Y-125762100D01*
X143232600Y-125761100D01*
X143234600Y-125759100D01*
X143237600Y-125758100D01*
X143239600Y-125757100D01*
X143242600Y-125756100D01*
X143244600Y-125756100D01*
X143247600Y-125755100D01*
X143249600Y-125755100D01*
X143252600Y-125754100D01*
X143254600Y-125754100D01*
X143257600Y-125754100D01*
X144367600Y-125754100D01*
X144370600Y-125754100D01*
X144372600Y-125754100D01*
X144375600Y-125755100D01*
G37*
D11*
%TO.C,U4*%
G36*
X124762600Y-191809099D02*
G01*
X124762600Y-192659099D01*
X124712600Y-192709099D01*
X123642600Y-192709099D01*
X123592600Y-192659099D01*
X123592600Y-191809099D01*
X123642600Y-191759099D01*
X124712600Y-191759099D01*
X124762600Y-191809099D01*
G37*
G36*
X126132600Y-191809099D02*
G01*
X126132600Y-192659099D01*
X126082600Y-192709099D01*
X125012600Y-192709099D01*
X124962600Y-192659099D01*
X124962600Y-191809099D01*
X125012600Y-191759099D01*
X126082600Y-191759099D01*
X126132600Y-191809099D01*
G37*
%TD*%
D12*
%TO.C,C1*%
X211378891Y-182814302D03*
X211378891Y-181854302D03*
%TD*%
D13*
%TO.C,C5*%
X138202600Y-166204100D03*
X136302600Y-166204100D03*
%TD*%
D12*
%TO.C,C12*%
X187278891Y-194234302D03*
X187278891Y-193274302D03*
%TD*%
%TO.C,C13*%
X192528891Y-193334302D03*
X192528891Y-192374302D03*
%TD*%
D14*
%TO.C,J5*%
X161702600Y-196954302D03*
X161202600Y-196954302D03*
X160702600Y-196954302D03*
X160202600Y-196954302D03*
X159702600Y-196954302D03*
X159202600Y-196954302D03*
X158702600Y-196954302D03*
X158202600Y-196954302D03*
X157702600Y-196954302D03*
X157202600Y-196954302D03*
X156702600Y-196954302D03*
X156202600Y-196954302D03*
X155702600Y-196954302D03*
X155202600Y-196954302D03*
X154702600Y-196954302D03*
X154202600Y-196954302D03*
X153702600Y-196954302D03*
X153202600Y-196954302D03*
X152702600Y-196954302D03*
X152202600Y-196954302D03*
X151702600Y-196954302D03*
X151202600Y-196954302D03*
D15*
X149302600Y-200204302D03*
X163602600Y-200204302D03*
%TD*%
D16*
%TO.C,R10*%
X120202600Y-83724100D03*
X120202600Y-82704100D03*
%TD*%
D17*
%TO.C,U1*%
X215478891Y-181934302D03*
X214978891Y-181934302D03*
X214478891Y-181934302D03*
X213978891Y-181934302D03*
X213478891Y-181934302D03*
X213478891Y-182704302D03*
X213978891Y-182704302D03*
X214478891Y-182704302D03*
X214978891Y-182704302D03*
X215478891Y-182704302D03*
%TD*%
D18*
%TO.C,U12*%
X188878891Y-193564302D03*
X190778891Y-193564302D03*
X189828891Y-190144302D03*
%TD*%
D19*
%TO.C,D2*%
X118702600Y-88854100D03*
X118702600Y-87279100D03*
%TD*%
D16*
%TO.C,R3*%
X218202600Y-182224100D03*
X218202600Y-181204100D03*
%TD*%
%TO.C,R2*%
X219702600Y-182224100D03*
X219702600Y-181204100D03*
%TD*%
D20*
%TO.C,J11*%
X124053891Y-109254100D03*
X124053891Y-110054100D03*
D21*
X124053891Y-111204100D03*
X124053891Y-112204100D03*
X124053891Y-112704100D03*
X124053891Y-113704100D03*
D20*
X124053891Y-114854100D03*
X124053891Y-115654100D03*
X124053891Y-115654100D03*
X124053891Y-114854100D03*
D21*
X124053891Y-114204100D03*
X124053891Y-113204100D03*
X124053891Y-111704100D03*
X124053891Y-110704100D03*
D20*
X124053891Y-110054100D03*
X124053891Y-109254100D03*
D22*
X123478891Y-108134100D03*
D23*
X119298891Y-108134100D03*
D22*
X123478891Y-116774100D03*
D23*
X119298891Y-116774100D03*
%TD*%
D19*
%TO.C,D1*%
X118702600Y-83779100D03*
X118702600Y-82204100D03*
%TD*%
D16*
%TO.C,R1*%
X120202600Y-88724100D03*
X120202600Y-87704100D03*
%TD*%
D24*
%TO.C,U5*%
X123702600Y-80804100D03*
X123052600Y-80804100D03*
X122402600Y-80804100D03*
X122402600Y-82704100D03*
X123702600Y-82704100D03*
%TD*%
D25*
%TO.C,U18*%
X138702600Y-162604100D03*
X138702600Y-161654100D03*
X138702600Y-160704100D03*
X136427600Y-160704100D03*
X136427600Y-162604100D03*
%TD*%
D26*
%TO.C,J22*%
X182228891Y-193974302D03*
X181728891Y-193974302D03*
X181228891Y-193974302D03*
X180728891Y-193974302D03*
X180228891Y-193974302D03*
X179728891Y-193974302D03*
X179228891Y-193974302D03*
X178728891Y-193974302D03*
X178228891Y-193974302D03*
X177728891Y-193974302D03*
X177228891Y-193974302D03*
X176728891Y-193974302D03*
X176228891Y-193974302D03*
X175728891Y-193974302D03*
X175228891Y-193974302D03*
X174728891Y-193974302D03*
X174228891Y-193974302D03*
X173728891Y-193974302D03*
X173228891Y-193974302D03*
%TD*%
D17*
%TO.C,U2*%
X209478891Y-181934302D03*
X208978891Y-181934302D03*
X208478891Y-181934302D03*
X207978891Y-181934302D03*
X207478891Y-181934302D03*
X207478891Y-182704302D03*
X207978891Y-182704302D03*
X208478891Y-182704302D03*
X208978891Y-182704302D03*
X209478891Y-182704302D03*
%TD*%
D27*
%TO.C,R4*%
X228826309Y-87250393D03*
X230826309Y-87250393D03*
%TD*%
%TO.C,R5*%
X228826309Y-89750393D03*
X230826309Y-89750393D03*
%TD*%
D28*
%TO.C,D3*%
X240277600Y-178704100D03*
X238702600Y-178704100D03*
%TD*%
D29*
%TO.C,U8*%
X230428891Y-184083211D03*
X230428891Y-183208211D03*
D30*
X231328891Y-184395711D03*
X231328891Y-183895711D03*
X231328891Y-183395711D03*
X231328891Y-182895711D03*
X229528891Y-182895711D03*
X229528891Y-183395711D03*
X229528891Y-183895711D03*
X229528891Y-184395711D03*
%TD*%
D31*
%TO.C,J7*%
X118993891Y-164864302D03*
X118993891Y-163764302D03*
X118993891Y-162664302D03*
X118993891Y-161564302D03*
X118993891Y-160464302D03*
X118993891Y-159364302D03*
X118993891Y-158264302D03*
X118993891Y-157164302D03*
D32*
X131458891Y-166654302D03*
D33*
X131533891Y-162389302D03*
D34*
X130258891Y-168964302D03*
D35*
X119008891Y-168744302D03*
D36*
X119493891Y-156084302D03*
D34*
X130258891Y-156004302D03*
%TD*%
D37*
%TO.C,J4*%
X240252600Y-155454100D03*
X232702600Y-155704100D03*
X240252600Y-155954100D03*
X232702600Y-156204100D03*
X240252600Y-156454100D03*
X232702600Y-156704100D03*
X240252600Y-156954100D03*
X232702600Y-157204100D03*
X240252600Y-157454100D03*
X232702600Y-157704100D03*
X240252600Y-157954100D03*
X232702600Y-158204100D03*
X240252600Y-158454100D03*
X232702600Y-158704100D03*
X240252600Y-158954100D03*
X232702600Y-159204100D03*
X240252600Y-159454100D03*
X232702600Y-159704100D03*
X240252600Y-159954100D03*
X232702600Y-160204100D03*
X240252600Y-160454100D03*
X232702600Y-160704100D03*
X240252600Y-160954100D03*
X232702600Y-161204100D03*
X240252600Y-161454100D03*
X232702600Y-161704100D03*
X240252600Y-161954100D03*
X232702600Y-162204100D03*
X240252600Y-162454100D03*
X232702600Y-162704100D03*
X240252600Y-162954100D03*
X232702600Y-163204100D03*
X240252600Y-163454100D03*
X232702600Y-163704100D03*
X240252600Y-163954100D03*
X232702600Y-164204100D03*
X240252600Y-164454100D03*
X232702600Y-164704100D03*
X240252600Y-164954100D03*
X232702600Y-165204100D03*
X240252600Y-165454100D03*
X232702600Y-165704100D03*
X240252600Y-165954100D03*
X232702600Y-166204100D03*
X240252600Y-166454100D03*
X232702600Y-166704100D03*
X240252600Y-166954100D03*
X232702600Y-167204100D03*
X240252600Y-167454100D03*
X232702600Y-167704100D03*
X240252600Y-167954100D03*
X232702600Y-168204100D03*
X240252600Y-168454100D03*
X232702600Y-168704100D03*
X240252600Y-168954100D03*
X232702600Y-169204100D03*
X240252600Y-169454100D03*
X232702600Y-169704100D03*
X240252600Y-171954100D03*
X232702600Y-172204100D03*
X240252600Y-172454100D03*
X232702600Y-172704100D03*
X240252600Y-172954100D03*
X232702600Y-173204100D03*
X240252600Y-173454100D03*
X232702600Y-173704100D03*
X240252600Y-173954100D03*
D38*
X239477600Y-154354100D03*
X239477600Y-175054100D03*
%TD*%
D39*
%TO.C,R13*%
X123842600Y-184674100D03*
X123842600Y-183024100D03*
%TD*%
D40*
%TO.C,C6*%
X235428891Y-184145711D03*
X235428891Y-182245711D03*
%TD*%
%TO.C,C30*%
X127202600Y-185134100D03*
X127202600Y-183234100D03*
%TD*%
D41*
%TO.C,C16*%
X233428891Y-178745711D03*
X233428891Y-180645711D03*
%TD*%
D42*
%TO.C,C34*%
X164202600Y-97704100D03*
X165162600Y-97704100D03*
%TD*%
D43*
%TO.C,FB1*%
X165202600Y-102704100D03*
X164338600Y-102704100D03*
%TD*%
D42*
%TO.C,C37*%
X164202600Y-100704100D03*
X165162600Y-100704100D03*
%TD*%
D44*
%TO.C,L3*%
X150662600Y-127204100D03*
X154702600Y-127204100D03*
%TD*%
D45*
%TO.C,C32*%
X232202600Y-192244100D03*
X232202600Y-193204100D03*
%TD*%
D42*
%TO.C,C40*%
X164242600Y-105704100D03*
X165202600Y-105704100D03*
%TD*%
%TO.C,C43*%
X164242600Y-108704100D03*
X165202600Y-108704100D03*
%TD*%
D46*
%TO.C,C47*%
X165202600Y-114204100D03*
X164242600Y-114204100D03*
%TD*%
D45*
%TO.C,C10*%
X234702600Y-185704100D03*
X234702600Y-186664100D03*
%TD*%
D47*
%TO.C,R20*%
X120702600Y-184134100D03*
X120702600Y-182634100D03*
%TD*%
D12*
%TO.C,C11*%
X232702600Y-186704100D03*
X232702600Y-185744100D03*
%TD*%
D42*
%TO.C,C41*%
X164242600Y-106704100D03*
X165202600Y-106704100D03*
%TD*%
D48*
%TO.C,R22*%
X202702600Y-182704100D03*
X201682600Y-182704100D03*
%TD*%
D16*
%TO.C,R25*%
X228702600Y-193204100D03*
X228702600Y-192184100D03*
%TD*%
D12*
%TO.C,C33*%
X231202600Y-193204100D03*
X231202600Y-192244100D03*
%TD*%
D49*
%TO.C,C8*%
X134802600Y-107479100D03*
X136702600Y-107479100D03*
%TD*%
D50*
%TO.C,R35*%
X136702600Y-89204100D03*
X137722600Y-89204100D03*
%TD*%
%TO.C,R37*%
X154182600Y-89204100D03*
X155202600Y-89204100D03*
%TD*%
D51*
%TO.C,C20*%
X135586309Y-183633898D03*
X138536309Y-183633898D03*
%TD*%
D52*
%TO.C,J15*%
X226382600Y-195914100D03*
X226882600Y-195914100D03*
X227382600Y-195914100D03*
X227882600Y-195914100D03*
X228382600Y-195914100D03*
X228882600Y-195914100D03*
X229882600Y-195914100D03*
X230382600Y-195914100D03*
X230882600Y-195914100D03*
X231382600Y-195914100D03*
X231882600Y-195914100D03*
X232382600Y-195914100D03*
D53*
X232482600Y-197214100D03*
D52*
X231632600Y-197214100D03*
X231132600Y-197214100D03*
X230632600Y-197214100D03*
X230132600Y-197214100D03*
X229632600Y-197214100D03*
X229132600Y-197214100D03*
X228632600Y-197214100D03*
X228132600Y-197214100D03*
X227632600Y-197214100D03*
X227132600Y-197214100D03*
D53*
X226282600Y-197214100D03*
%TD*%
D54*
%TO.C,J14*%
X239702600Y-92204100D03*
X239702600Y-91204100D03*
X239702600Y-90204100D03*
X239702600Y-89204100D03*
D55*
X237177600Y-93504100D03*
X237177600Y-87904100D03*
%TD*%
D56*
%TO.C,R8*%
X127052600Y-194204100D03*
X128702600Y-194204100D03*
%TD*%
D41*
%TO.C,C27*%
X120702600Y-188734100D03*
X120702600Y-190634100D03*
%TD*%
D50*
%TO.C,R34*%
X128202600Y-89204100D03*
X129222600Y-89204100D03*
%TD*%
%TO.C,R46*%
X229202600Y-188704100D03*
X230222600Y-188704100D03*
%TD*%
D57*
%TO.C,C22*%
X135466309Y-187013898D03*
X137016309Y-187013898D03*
%TD*%
D45*
%TO.C,C26*%
X122572600Y-189674100D03*
X122572600Y-190634100D03*
%TD*%
D13*
%TO.C,C2*%
X138652600Y-100204100D03*
X136752600Y-100204100D03*
%TD*%
D58*
%TO.C,R44*%
X145802600Y-132204100D03*
X145802600Y-133854100D03*
%TD*%
D59*
%TO.C,C3*%
X141302600Y-111204100D03*
X141302600Y-104979100D03*
%TD*%
D60*
%TO.C,U14*%
X145202600Y-128204100D03*
X145202600Y-127704100D03*
X145202600Y-127204100D03*
X145202600Y-126704100D03*
X145202600Y-126204100D03*
X145202600Y-125704100D03*
X142422600Y-125704100D03*
X142422600Y-126204100D03*
X142422600Y-126704100D03*
X142422600Y-127204100D03*
X142422600Y-127704100D03*
X142422600Y-128204100D03*
%TD*%
D41*
%TO.C,C17*%
X231428891Y-178758211D03*
X231428891Y-180658211D03*
%TD*%
D12*
%TO.C,C49*%
X150702600Y-115569774D03*
X150702600Y-114609774D03*
%TD*%
D56*
%TO.C,R18*%
X132202600Y-199704100D03*
X133852600Y-199704100D03*
%TD*%
D61*
%TO.C,R21*%
X198202600Y-177704100D03*
X198202600Y-178724100D03*
%TD*%
D62*
%TO.C,C57*%
X234202600Y-191204100D03*
X240442600Y-191204100D03*
%TD*%
D12*
%TO.C,C50*%
X153202600Y-115589774D03*
X153202600Y-114629774D03*
%TD*%
D16*
%TO.C,R24*%
X197202600Y-187724100D03*
X197202600Y-186704100D03*
%TD*%
D41*
%TO.C,C56*%
X238202600Y-185804100D03*
X238202600Y-187704100D03*
%TD*%
D45*
%TO.C,C48*%
X158702600Y-118204100D03*
X158702600Y-119164100D03*
%TD*%
D63*
%TO.C,Q1*%
X122107600Y-179261600D03*
X124297600Y-179261600D03*
D64*
X122107600Y-177351600D03*
X124297600Y-177351600D03*
D65*
X121297600Y-181264100D03*
X122567600Y-181264100D03*
X123837600Y-181264100D03*
X125107600Y-181264100D03*
D66*
X121297600Y-175664100D03*
X122567600Y-175664100D03*
X123837600Y-175664100D03*
X125107600Y-175664100D03*
%TD*%
D67*
%TO.C,U7*%
X228002600Y-176404100D03*
X230202600Y-176404100D03*
X230202600Y-174704100D03*
X228002600Y-174704100D03*
%TD*%
D42*
%TO.C,C35*%
X164202600Y-98704100D03*
X165162600Y-98704100D03*
%TD*%
D39*
%TO.C,R43*%
X148202600Y-122204100D03*
X148202600Y-120554100D03*
%TD*%
D16*
%TO.C,R23*%
X198702600Y-187714100D03*
X198702600Y-186694100D03*
%TD*%
D48*
%TO.C,R17*%
X238722600Y-177204100D03*
X237702600Y-177204100D03*
%TD*%
D68*
%TO.C,U13*%
X160927600Y-117204100D03*
X160927600Y-118154100D03*
X160927600Y-119104100D03*
X163202600Y-119104100D03*
X163202600Y-117204100D03*
%TD*%
D69*
%TO.C,U10*%
X197152600Y-181704100D03*
X197152600Y-182754100D03*
X198202600Y-181704100D03*
X198202600Y-182754100D03*
D70*
X195815100Y-181254100D03*
X195815100Y-181904100D03*
X195815100Y-182554100D03*
X195815100Y-183204100D03*
D71*
X196702600Y-184091600D03*
X197352600Y-184091600D03*
X198002600Y-184091600D03*
X198652600Y-184091600D03*
D70*
X199540100Y-183204100D03*
X199540100Y-182554100D03*
X199540100Y-181904100D03*
X199540100Y-181254100D03*
D71*
X198652600Y-180366600D03*
X198002600Y-180366600D03*
X197352600Y-180366600D03*
X196702600Y-180366600D03*
%TD*%
D72*
%TO.C,U6*%
X134652600Y-102204100D03*
X133702600Y-102204100D03*
X132752600Y-102204100D03*
X132752600Y-104479100D03*
X133702600Y-104479100D03*
X134652600Y-104479100D03*
%TD*%
D73*
%TO.C,L1*%
X225528891Y-184545711D03*
X225528891Y-180045711D03*
%TD*%
D74*
%TO.C,C25*%
X132802600Y-196704100D03*
X128702600Y-196704100D03*
%TD*%
D42*
%TO.C,C45*%
X164242600Y-110704100D03*
X165202600Y-110704100D03*
%TD*%
D51*
%TO.C,C29*%
X137252600Y-193204100D03*
X140202600Y-193204100D03*
%TD*%
D42*
%TO.C,C39*%
X164242600Y-104704100D03*
X165202600Y-104704100D03*
%TD*%
D61*
%TO.C,R27*%
X158202600Y-114569774D03*
X158202600Y-115589774D03*
%TD*%
D42*
%TO.C,C18*%
X140702600Y-103204100D03*
X141662600Y-103204100D03*
%TD*%
D49*
%TO.C,C59*%
X235702600Y-194704100D03*
X237602600Y-194704100D03*
%TD*%
D50*
%TO.C,R40*%
X131182600Y-90704100D03*
X132202600Y-90704100D03*
%TD*%
D75*
%TO.C,J6*%
X135099200Y-92331201D03*
X132239200Y-92331201D03*
X135099200Y-87531200D03*
X132239200Y-87531200D03*
%TD*%
D13*
%TO.C,C54*%
X145202600Y-140204100D03*
X143302600Y-140204100D03*
%TD*%
D41*
%TO.C,C53*%
X147702600Y-126304100D03*
X147702600Y-128204100D03*
%TD*%
D50*
%TO.C,R31*%
X201682600Y-181204100D03*
X202702600Y-181204100D03*
%TD*%
D48*
%TO.C,R32*%
X193702600Y-183704100D03*
X192682600Y-183704100D03*
%TD*%
D39*
%TO.C,R19*%
X126702600Y-201204100D03*
X126702600Y-199554100D03*
%TD*%
D61*
%TO.C,R16*%
X233702600Y-185704100D03*
X233702600Y-186724100D03*
%TD*%
D50*
%TO.C,R28*%
X146682600Y-105704100D03*
X147702600Y-105704100D03*
%TD*%
%TO.C,R39*%
X140182600Y-90704100D03*
X141202600Y-90704100D03*
%TD*%
D49*
%TO.C,C7*%
X134815100Y-109879100D03*
X136715100Y-109879100D03*
%TD*%
D39*
%TO.C,R11*%
X120702600Y-187634100D03*
X120702600Y-185984100D03*
%TD*%
D16*
%TO.C,R15*%
X231692600Y-186724100D03*
X231692600Y-185704100D03*
%TD*%
D50*
%TO.C,R41*%
X122702600Y-90704100D03*
X123722600Y-90704100D03*
%TD*%
D58*
%TO.C,R45*%
X142477600Y-132054100D03*
X142477600Y-133704100D03*
%TD*%
D48*
%TO.C,R12*%
X132212600Y-106204100D03*
X131192600Y-106204100D03*
%TD*%
D75*
%TO.C,J10*%
X144112800Y-92331201D03*
X141252800Y-92331201D03*
X144112800Y-87531200D03*
X141252800Y-87531200D03*
%TD*%
D76*
%TO.C,U4*%
X126112600Y-191284101D03*
X125612598Y-191284101D03*
X125112600Y-191284101D03*
X124612600Y-191284101D03*
X124112599Y-191284101D03*
X123612600Y-191284101D03*
X123612600Y-193184100D03*
X124112599Y-193184100D03*
X124612600Y-193184100D03*
X125112600Y-193184100D03*
X125612598Y-193184100D03*
X126112600Y-193184100D03*
D77*
X124862600Y-192234102D03*
%TD*%
D41*
%TO.C,C15*%
X235428891Y-178745711D03*
X235428891Y-180645711D03*
%TD*%
D42*
%TO.C,C46*%
X164242600Y-111704100D03*
X165202600Y-111704100D03*
%TD*%
D41*
%TO.C,C14*%
X229428891Y-178745711D03*
X229428891Y-180645711D03*
%TD*%
D49*
%TO.C,C52*%
X137302600Y-129704100D03*
X139202600Y-129704100D03*
%TD*%
D48*
%TO.C,R30*%
X193702600Y-182204100D03*
X192682600Y-182204100D03*
%TD*%
D42*
%TO.C,C9*%
X140702600Y-101204100D03*
X141662600Y-101204100D03*
%TD*%
D16*
%TO.C,R26*%
X230192600Y-193204100D03*
X230192600Y-192184100D03*
%TD*%
D78*
%TO.C,C21*%
X131202599Y-186518662D03*
X131202599Y-189468662D03*
%TD*%
D56*
%TO.C,R6*%
X135416309Y-189523898D03*
X137066309Y-189523898D03*
%TD*%
D42*
%TO.C,C42*%
X164242600Y-107704100D03*
X165202600Y-107704100D03*
%TD*%
D75*
%TO.C,J17*%
X152599200Y-92331201D03*
X149739200Y-92331201D03*
X152599200Y-87531200D03*
X149739200Y-87531200D03*
%TD*%
D43*
%TO.C,FB2*%
X164338600Y-113204100D03*
X165202600Y-113204100D03*
%TD*%
D50*
%TO.C,R38*%
X148682600Y-90704100D03*
X149702600Y-90704100D03*
%TD*%
%TO.C,R14*%
X229202600Y-185704100D03*
X230222600Y-185704100D03*
%TD*%
D42*
%TO.C,C38*%
X164202600Y-101704100D03*
X165162600Y-101704100D03*
%TD*%
D79*
%TO.C,Y1*%
X154702600Y-116039774D03*
X156552600Y-116039774D03*
X156552600Y-114589774D03*
X154702600Y-114589774D03*
%TD*%
D61*
%TO.C,R33*%
X149570307Y-114589774D03*
X149570307Y-115609774D03*
%TD*%
D58*
%TO.C,R7*%
X130202600Y-192134100D03*
X130202600Y-193784100D03*
%TD*%
D42*
%TO.C,C44*%
X164242600Y-109704100D03*
X165202600Y-109704100D03*
%TD*%
D75*
%TO.C,J1*%
X126640000Y-92331201D03*
X123780000Y-92331201D03*
X126640000Y-87531200D03*
X123780000Y-87531200D03*
%TD*%
D80*
%TO.C,L2*%
X130702600Y-180634100D03*
X130702600Y-177204100D03*
X139202600Y-177204100D03*
X139202600Y-180634100D03*
%TD*%
D81*
%TO.C,C28*%
X123702600Y-173634100D03*
X126652600Y-173634100D03*
%TD*%
D82*
%TO.C,U9*%
X119202600Y-93354100D03*
D83*
X119202600Y-94704100D03*
D84*
X119202600Y-95729100D03*
D82*
X119202600Y-96954100D03*
%TD*%
D85*
%TO.C,Module1*%
X231366309Y-113050393D03*
X228286309Y-113050393D03*
X231366309Y-112650393D03*
X228286309Y-112650393D03*
X231366309Y-112250393D03*
X228286309Y-112250393D03*
X231366309Y-111850393D03*
X228286309Y-111850393D03*
X231366309Y-111450393D03*
X228286309Y-111450393D03*
X231366309Y-111050393D03*
X228286309Y-111050393D03*
X231366309Y-110650393D03*
X228286309Y-110650393D03*
X231366309Y-110250393D03*
X228286309Y-110250393D03*
X231366309Y-109850393D03*
X228286309Y-109850393D03*
X231366309Y-109450393D03*
X228286309Y-109450393D03*
X231366309Y-109050393D03*
X228286309Y-109050393D03*
X231366309Y-108650393D03*
X228286309Y-108650393D03*
X231366309Y-108250393D03*
X228286309Y-108250393D03*
X231366309Y-107850393D03*
X228286309Y-107850393D03*
X231366309Y-107450393D03*
X228286309Y-107450393D03*
X231366309Y-107050393D03*
X228286309Y-107050393D03*
X231366309Y-106650393D03*
X228286309Y-106650393D03*
X231366309Y-106250393D03*
X228286309Y-106250393D03*
X231366309Y-105850393D03*
X228286309Y-105850393D03*
X231366309Y-105450393D03*
X228286309Y-105450393D03*
X231366309Y-105050393D03*
X228286309Y-105050393D03*
X231366309Y-104650393D03*
X228286309Y-104650393D03*
X231366309Y-104250393D03*
X228286309Y-104250393D03*
X231366309Y-103850393D03*
X228286309Y-103850393D03*
X231366309Y-103450393D03*
X228286309Y-103450393D03*
X231366309Y-103050393D03*
X228286309Y-103050393D03*
X231366309Y-102650393D03*
X228286309Y-102650393D03*
X231366309Y-102250393D03*
X228286309Y-102250393D03*
X231366309Y-101850393D03*
X228286309Y-101850393D03*
X231366309Y-101450393D03*
X228286309Y-101450393D03*
X231366309Y-101050393D03*
X228286309Y-101050393D03*
X231366309Y-100650393D03*
X228286309Y-100650393D03*
X231366309Y-100250393D03*
X228286309Y-100250393D03*
X231366309Y-99850393D03*
X228286309Y-99850393D03*
X231366309Y-99450393D03*
X228286309Y-99450393D03*
X231366309Y-99050393D03*
X228286309Y-99050393D03*
X231366309Y-98650393D03*
X228286309Y-98650393D03*
X231366309Y-98250393D03*
X228286309Y-98250393D03*
X231366309Y-97850393D03*
X228286309Y-97850393D03*
X231366309Y-97450393D03*
X228286309Y-97450393D03*
X231366309Y-97050393D03*
X228286309Y-97050393D03*
X231366309Y-96650393D03*
X228286309Y-96650393D03*
X231366309Y-96250393D03*
X228286309Y-96250393D03*
X231366309Y-95850393D03*
X228286309Y-95850393D03*
X231366309Y-95450393D03*
X228286309Y-95450393D03*
X231366309Y-95050393D03*
X228286309Y-95050393D03*
X231366309Y-94650393D03*
X228286309Y-94650393D03*
X231366309Y-94250393D03*
X228286309Y-94250393D03*
X231366309Y-93850393D03*
X228286309Y-93850393D03*
X231366309Y-93450393D03*
X228286309Y-93450393D03*
X197366309Y-113050393D03*
X194286309Y-113050393D03*
X197366309Y-112650393D03*
X194286309Y-112650393D03*
X197366309Y-112250393D03*
X194286309Y-112250393D03*
X197366309Y-111850393D03*
X194286309Y-111850393D03*
X197366309Y-111450393D03*
X194286309Y-111450393D03*
X197366309Y-111050393D03*
X194286309Y-111050393D03*
X197366309Y-110650393D03*
X194286309Y-110650393D03*
X197366309Y-110250393D03*
X194286309Y-110250393D03*
X197366309Y-109850393D03*
X194286309Y-109850393D03*
X197366309Y-109450393D03*
X194286309Y-109450393D03*
X197366309Y-109050393D03*
X194286309Y-109050393D03*
X197366309Y-108650393D03*
X194286309Y-108650393D03*
X197366309Y-108250393D03*
X194286309Y-108250393D03*
X197366309Y-107850393D03*
X194286309Y-107850393D03*
X197366309Y-107450393D03*
X194286309Y-107450393D03*
X197366309Y-107050393D03*
X194286309Y-107050393D03*
X197366309Y-106650393D03*
X194286309Y-106650393D03*
X197366309Y-106250393D03*
X194286309Y-106250393D03*
X197366309Y-105850393D03*
X194286309Y-105850393D03*
X197366309Y-105450393D03*
X194286309Y-105450393D03*
X197366309Y-105050393D03*
X194286309Y-105050393D03*
X197366309Y-104650393D03*
X194286309Y-104650393D03*
X197366309Y-104250393D03*
X194286309Y-104250393D03*
X197366309Y-103850393D03*
X194286309Y-103850393D03*
X197366309Y-103450393D03*
X194286309Y-103450393D03*
X197366309Y-103050393D03*
X194286309Y-103050393D03*
X197366309Y-102650393D03*
X194286309Y-102650393D03*
X197366309Y-102250393D03*
X194286309Y-102250393D03*
X197366309Y-101850393D03*
X194286309Y-101850393D03*
X197366309Y-101450393D03*
X194286309Y-101450393D03*
X197366309Y-101050393D03*
X194286309Y-101050393D03*
X197366309Y-100650393D03*
X194286309Y-100650393D03*
X197366309Y-100250393D03*
X194286309Y-100250393D03*
X197366309Y-99850393D03*
X194286309Y-99850393D03*
X197366309Y-99450393D03*
X194286309Y-99450393D03*
X197366309Y-99050393D03*
X194286309Y-99050393D03*
X197366309Y-98650393D03*
X194286309Y-98650393D03*
X197366309Y-98250393D03*
X194286309Y-98250393D03*
X197366309Y-97850393D03*
X194286309Y-97850393D03*
X197366309Y-97450393D03*
X194286309Y-97450393D03*
X197366309Y-97050393D03*
X194286309Y-97050393D03*
X197366309Y-96650393D03*
X194286309Y-96650393D03*
X197366309Y-96250393D03*
X194286309Y-96250393D03*
X197366309Y-95850393D03*
X194286309Y-95850393D03*
X197366309Y-95450393D03*
X194286309Y-95450393D03*
X197366309Y-95050393D03*
X194286309Y-95050393D03*
X197366309Y-94650393D03*
X194286309Y-94650393D03*
X197366309Y-94250393D03*
X194286309Y-94250393D03*
X197366309Y-93850393D03*
X194286309Y-93850393D03*
X197366309Y-93450393D03*
X194286309Y-93450393D03*
%TD*%
D42*
%TO.C,C36*%
X164202600Y-99704100D03*
X165162600Y-99704100D03*
%TD*%
D57*
%TO.C,C23*%
X124337254Y-189634100D03*
X125887254Y-189634100D03*
%TD*%
D72*
%TO.C,U15*%
X225152600Y-188566600D03*
X224202600Y-188566600D03*
X223252600Y-188566600D03*
X223252600Y-190841600D03*
X224202600Y-190841600D03*
X225152600Y-190841600D03*
%TD*%
D40*
%TO.C,C4*%
X233428891Y-184145711D03*
X233428891Y-182245711D03*
%TD*%
D86*
%TO.C,C24*%
X127202600Y-191704100D03*
X127202600Y-192394100D03*
%TD*%
D42*
%TO.C,C19*%
X228223181Y-177546994D03*
X229183181Y-177546994D03*
%TD*%
D87*
%TO.C,U11*%
X154602600Y-104604100D03*
X154602600Y-106804100D03*
X156802600Y-104604100D03*
X156802600Y-106804100D03*
D88*
X150002600Y-101954100D03*
X150002600Y-102454100D03*
X150002600Y-102954100D03*
X150002600Y-103454100D03*
X150002600Y-103954100D03*
X150002600Y-104454100D03*
X150002600Y-104954100D03*
X150002600Y-105454100D03*
X150002600Y-105954100D03*
X150002600Y-106454100D03*
X150002600Y-106954100D03*
X150002600Y-107454100D03*
X150002600Y-107954100D03*
X150002600Y-108454100D03*
X150002600Y-108954100D03*
X150002600Y-109454100D03*
D89*
X151952600Y-111404100D03*
X152452600Y-111404100D03*
X152952600Y-111404100D03*
X153452600Y-111404100D03*
X153952600Y-111404100D03*
X154452600Y-111404100D03*
X154952600Y-111404100D03*
X155452600Y-111404100D03*
X155952600Y-111404100D03*
X156452600Y-111404100D03*
X156952600Y-111404100D03*
X157452600Y-111404100D03*
X157952600Y-111404100D03*
X158452600Y-111404100D03*
X158952600Y-111404100D03*
X159452600Y-111404100D03*
D88*
X161402600Y-109454100D03*
X161402600Y-108954100D03*
X161402600Y-108454100D03*
X161402600Y-107954100D03*
X161402600Y-107454100D03*
X161402600Y-106954100D03*
X161402600Y-106454100D03*
X161402600Y-105954100D03*
X161402600Y-105454100D03*
X161402600Y-104954100D03*
X161402600Y-104454100D03*
X161402600Y-103954100D03*
X161402600Y-103454100D03*
X161402600Y-102954100D03*
X161402600Y-102454100D03*
X161402600Y-101954100D03*
D89*
X159452600Y-100004100D03*
X158952600Y-100004100D03*
X158452600Y-100004100D03*
X157952600Y-100004100D03*
X157452600Y-100004100D03*
X156952600Y-100004100D03*
X156452600Y-100004100D03*
X155952600Y-100004100D03*
X155452600Y-100004100D03*
X154952600Y-100004100D03*
X154452600Y-100004100D03*
X153952600Y-100004100D03*
X153452600Y-100004100D03*
X152952600Y-100004100D03*
X152452600Y-100004100D03*
X151952600Y-100004100D03*
%TD*%
D42*
%TO.C,C31*%
X192702600Y-179204100D03*
X193662600Y-179204100D03*
%TD*%
D48*
%TO.C,R29*%
X193702600Y-180704100D03*
X192682600Y-180704100D03*
%TD*%
D13*
%TO.C,C58*%
X232102600Y-190704100D03*
X230202600Y-190704100D03*
%TD*%
%TO.C,C55*%
X145202600Y-136704100D03*
X143302600Y-136704100D03*
%TD*%
D50*
%TO.C,R36*%
X145682600Y-89204100D03*
X146702600Y-89204100D03*
%TD*%
D90*
%TO.C,J16*%
X206002600Y-159729100D03*
X207002600Y-159729100D03*
X208002600Y-159729100D03*
X209002600Y-159729100D03*
D91*
X204702600Y-157204100D03*
X210302600Y-157204100D03*
%TD*%
D39*
%TO.C,R42*%
X145702600Y-122204100D03*
X145702600Y-120554100D03*
%TD*%
D50*
%TO.C,R9*%
X140682600Y-102204100D03*
X141702600Y-102204100D03*
%TD*%
D49*
%TO.C,C51*%
X137252600Y-125704100D03*
X139152600Y-125704100D03*
%TD*%
M02*
