G04 #@! TF.GenerationSoftware,KiCad,Pcbnew,9.0.6*
G04 #@! TF.CreationDate,2025-10-31T11:06:38-04:00*
G04 #@! TF.ProjectId,libreboard,6c696272-6562-46f6-9172-642e6b696361,rev?*
G04 #@! TF.SameCoordinates,Original*
G04 #@! TF.FileFunction,Copper,L6,Bot*
G04 #@! TF.FilePolarity,Positive*
%FSLAX46Y46*%
G04 Gerber Fmt 4.6, Leading zero omitted, Abs format (unit mm)*
G04 Created by KiCad (PCBNEW 9.0.6) date 2025-10-31 11:06:38*
%MOMM*%
%LPD*%
G01*
G04 APERTURE LIST*
G04 Aperture macros list*
%AMRoundRect*
0 Rectangle with rounded corners*
0 $1 Rounding radius*
0 $2 $3 $4 $5 $6 $7 $8 $9 X,Y pos of 4 corners*
0 Add a 4 corners polygon primitive as box body*
4,1,4,$2,$3,$4,$5,$6,$7,$8,$9,$2,$3,0*
0 Add four circle primitives for the rounded corners*
1,1,$1+$1,$2,$3*
1,1,$1+$1,$4,$5*
1,1,$1+$1,$6,$7*
1,1,$1+$1,$8,$9*
0 Add four rect primitives between the rounded corners*
20,1,$1+$1,$2,$3,$4,$5,0*
20,1,$1+$1,$4,$5,$6,$7,0*
20,1,$1+$1,$6,$7,$8,$9,0*
20,1,$1+$1,$8,$9,$2,$3,0*%
G04 Aperture macros list end*
G04 #@! TA.AperFunction,ComponentPad*
%ADD10C,0.609600*%
G04 #@! TD*
G04 #@! TA.AperFunction,ComponentPad*
%ADD11O,0.889000X1.905000*%
G04 #@! TD*
G04 #@! TA.AperFunction,HeatsinkPad*
%ADD12C,0.500000*%
G04 #@! TD*
G04 #@! TA.AperFunction,HeatsinkPad*
%ADD13R,2.100000X2.100000*%
G04 #@! TD*
G04 #@! TA.AperFunction,ComponentPad*
%ADD14R,1.700000X1.700000*%
G04 #@! TD*
G04 #@! TA.AperFunction,ComponentPad*
%ADD15C,1.700000*%
G04 #@! TD*
G04 #@! TA.AperFunction,HeatsinkPad*
%ADD16O,2.100000X1.000000*%
G04 #@! TD*
G04 #@! TA.AperFunction,HeatsinkPad*
%ADD17O,1.800000X1.000000*%
G04 #@! TD*
G04 #@! TA.AperFunction,ComponentPad*
%ADD18RoundRect,0.250500X-0.499500X-0.499500X0.499500X-0.499500X0.499500X0.499500X-0.499500X0.499500X0*%
G04 #@! TD*
G04 #@! TA.AperFunction,ComponentPad*
%ADD19C,1.500000*%
G04 #@! TD*
G04 #@! TA.AperFunction,ComponentPad*
%ADD20C,2.500000*%
G04 #@! TD*
G04 #@! TA.AperFunction,ComponentPad*
%ADD21O,1.500000X3.300000*%
G04 #@! TD*
G04 #@! TA.AperFunction,ComponentPad*
%ADD22O,1.500000X2.300000*%
G04 #@! TD*
G04 #@! TA.AperFunction,ComponentPad*
%ADD23C,5.800000*%
G04 #@! TD*
G04 #@! TA.AperFunction,ComponentPad*
%ADD24C,1.574800*%
G04 #@! TD*
G04 #@! TA.AperFunction,ComponentPad*
%ADD25C,2.850000*%
G04 #@! TD*
G04 #@! TA.AperFunction,HeatsinkPad*
%ADD26O,1.100000X2.100000*%
G04 #@! TD*
G04 #@! TA.AperFunction,HeatsinkPad*
%ADD27O,1.100000X2.600000*%
G04 #@! TD*
G04 #@! TA.AperFunction,ComponentPad*
%ADD28C,2.100000*%
G04 #@! TD*
G04 #@! TA.AperFunction,ComponentPad*
%ADD29C,1.750000*%
G04 #@! TD*
G04 #@! TA.AperFunction,SMDPad,CuDef*
%ADD30C,1.000000*%
G04 #@! TD*
G04 #@! TA.AperFunction,SMDPad,CuDef*
%ADD31C,1.500000*%
G04 #@! TD*
G04 #@! TA.AperFunction,HeatsinkPad*
%ADD32R,7.500000X7.500000*%
G04 #@! TD*
G04 #@! TA.AperFunction,ViaPad*
%ADD33C,0.450000*%
G04 #@! TD*
G04 #@! TA.AperFunction,ViaPad*
%ADD34C,1.000000*%
G04 #@! TD*
G04 #@! TA.AperFunction,Conductor*
%ADD35C,0.500000*%
G04 #@! TD*
G04 #@! TA.AperFunction,Conductor*
%ADD36C,0.130000*%
G04 #@! TD*
G04 #@! TA.AperFunction,Conductor*
%ADD37C,0.147000*%
G04 #@! TD*
G04 #@! TA.AperFunction,Conductor*
%ADD38C,0.100000*%
G04 #@! TD*
G04 #@! TA.AperFunction,Conductor*
%ADD39C,0.127000*%
G04 #@! TD*
G04 #@! TA.AperFunction,Conductor*
%ADD40C,0.300000*%
G04 #@! TD*
G04 #@! TA.AperFunction,Conductor*
%ADD41C,0.230000*%
G04 #@! TD*
G04 APERTURE END LIST*
D10*
X151559200Y-87481200D03*
X151559200Y-88381201D03*
X151559200Y-89281199D03*
X151559200Y-90181200D03*
X151559200Y-91081200D03*
X151559200Y-91981199D03*
X151559200Y-92881199D03*
X150779199Y-92431199D03*
X150779199Y-91531199D03*
X150779199Y-90631200D03*
X150779199Y-89731200D03*
X150779199Y-88831199D03*
X150779199Y-87931201D03*
X150779199Y-87031200D03*
D11*
X152599200Y-92331201D03*
X152599200Y-87531200D03*
X149750500Y-87608528D03*
X149739200Y-92331201D03*
D10*
X143072800Y-87481200D03*
X143072800Y-88381201D03*
X143072800Y-89281199D03*
X143072800Y-90181200D03*
X143072800Y-91081200D03*
X143072800Y-91981199D03*
X143072800Y-92881199D03*
X142292799Y-92431199D03*
X142292799Y-91531199D03*
X142292799Y-90631200D03*
X142292799Y-89731200D03*
X142292799Y-88831199D03*
X142292799Y-87931201D03*
X142292799Y-87031200D03*
D11*
X144112800Y-92331201D03*
X144112800Y-87531200D03*
X141264100Y-87608528D03*
X141252800Y-92331201D03*
D10*
X134059200Y-87481200D03*
X134059200Y-88381201D03*
X134059200Y-89281199D03*
X134059200Y-90181200D03*
X134059200Y-91081200D03*
X134059200Y-91981199D03*
X134059200Y-92881199D03*
X133279199Y-92431199D03*
X133279199Y-91531199D03*
X133279199Y-90631200D03*
X133279199Y-89731200D03*
X133279199Y-88831199D03*
X133279199Y-87931201D03*
X133279199Y-87031200D03*
D11*
X135099200Y-92331201D03*
X135099200Y-87531200D03*
X132250500Y-87608528D03*
X132239200Y-92331201D03*
D10*
X125600000Y-87481200D03*
X125600000Y-88381201D03*
X125600000Y-89281199D03*
X125600000Y-90181200D03*
X125600000Y-91081200D03*
X125600000Y-91981199D03*
X125600000Y-92881199D03*
X124819999Y-92431199D03*
X124819999Y-91531199D03*
X124819999Y-90631200D03*
X124819999Y-89731200D03*
X124819999Y-88831199D03*
X124819999Y-87931201D03*
X124819999Y-87031200D03*
D11*
X126640000Y-92331201D03*
X126640000Y-87531200D03*
X123791300Y-87608528D03*
X123780000Y-92331201D03*
D12*
X196877600Y-181429100D03*
X196877600Y-182229100D03*
X196877600Y-183029100D03*
X197677600Y-181429100D03*
X197677600Y-182229100D03*
D13*
X197677600Y-182229100D03*
D12*
X197677600Y-183029100D03*
X198477600Y-181429100D03*
X198477600Y-182229100D03*
X198477600Y-183029100D03*
D14*
X181962600Y-148164100D03*
D15*
X181962600Y-150704100D03*
X179422600Y-148164100D03*
X179422600Y-150704100D03*
X176882600Y-148164100D03*
X176882600Y-150704100D03*
X174342600Y-148164100D03*
X174342600Y-150704100D03*
X171802600Y-148164100D03*
X171802600Y-150704100D03*
X169262600Y-148164100D03*
X169262600Y-150704100D03*
X166722600Y-148164100D03*
X166722600Y-150704100D03*
X164182600Y-148164100D03*
X164182600Y-150704100D03*
X161642600Y-148164100D03*
X161642600Y-150704100D03*
X159102600Y-148164100D03*
X159102600Y-150704100D03*
X156562600Y-148164100D03*
X156562600Y-150704100D03*
X154022600Y-148164100D03*
X154022600Y-150704100D03*
X151482600Y-148164100D03*
X151482600Y-150704100D03*
X148942600Y-148164100D03*
X148942600Y-150704100D03*
X146402600Y-148164100D03*
X146402600Y-150704100D03*
X143862600Y-148164100D03*
X143862600Y-150704100D03*
X141322600Y-148164100D03*
X141322600Y-150704100D03*
X138782600Y-148164100D03*
X138782600Y-150704100D03*
X136242600Y-148164100D03*
X136242600Y-150704100D03*
X133702600Y-148164100D03*
X133702600Y-150704100D03*
D16*
X123478891Y-108134100D03*
D17*
X119298891Y-108134100D03*
D16*
X123478891Y-116774100D03*
D17*
X119298891Y-116774100D03*
D18*
X206363891Y-185644302D03*
D19*
X207633891Y-188184302D03*
X208903891Y-185644302D03*
X210173891Y-188184302D03*
X211443891Y-185644302D03*
X212713891Y-188184302D03*
X213983891Y-185644302D03*
X215253891Y-188184302D03*
X216523891Y-185644302D03*
X217793891Y-188184302D03*
X206363891Y-190704302D03*
X208903891Y-191974302D03*
X215253891Y-191974302D03*
X217793891Y-190704302D03*
X205448891Y-198594302D03*
X207988891Y-198594302D03*
X216168891Y-198594302D03*
X218708891Y-198594302D03*
D20*
X204203891Y-191484302D03*
X219953891Y-191484302D03*
D21*
X184978891Y-194704302D03*
X170478891Y-194704302D03*
D22*
X170478891Y-200664302D03*
X184978891Y-200664302D03*
D14*
X145202600Y-170404100D03*
D15*
X142662600Y-170404100D03*
X145202600Y-167864100D03*
X142662600Y-167864100D03*
X145202600Y-165324100D03*
X142662600Y-165324100D03*
X145202600Y-162784100D03*
X142662600Y-162784100D03*
X145202600Y-160244100D03*
X142662600Y-160244100D03*
X145202600Y-157704100D03*
X142662600Y-157704100D03*
X145202600Y-155164100D03*
X142662600Y-155164100D03*
D14*
X240202600Y-82204100D03*
D15*
X237662600Y-82204100D03*
X235122600Y-82204100D03*
D23*
X206702600Y-164704100D03*
X194702600Y-164704100D03*
X176702600Y-164704100D03*
X156702600Y-164704100D03*
D24*
X167202600Y-180924100D03*
X167202600Y-183464100D03*
X167202600Y-186004100D03*
X167202600Y-188544100D03*
D25*
X190728891Y-83504302D03*
X183228891Y-83504302D03*
X190728891Y-88504302D03*
X183228891Y-88504302D03*
D24*
X174802600Y-180954100D03*
X174802600Y-183494100D03*
X174802600Y-186034100D03*
X174802600Y-188574100D03*
D26*
X225062600Y-196324100D03*
D27*
X225062600Y-201684100D03*
D26*
X233702600Y-196324100D03*
D27*
X233702600Y-201684100D03*
D28*
X123192600Y-138954100D03*
X123192600Y-131944100D03*
D29*
X120702600Y-137704100D03*
X120702600Y-133204100D03*
D28*
X123192600Y-127954100D03*
X123192600Y-120944100D03*
D29*
X120702600Y-126704100D03*
X120702600Y-122204100D03*
D14*
X120452600Y-180454100D03*
D15*
X120452600Y-177914100D03*
X120452600Y-175374100D03*
D24*
X159478891Y-180954302D03*
X159478891Y-183494302D03*
X159478891Y-186034302D03*
X159478891Y-188574302D03*
D25*
X170228891Y-83504302D03*
X162728891Y-83504302D03*
X170228891Y-88504302D03*
X162728891Y-88504302D03*
D24*
X182849400Y-180950736D03*
X182849400Y-183490736D03*
X182849400Y-186030736D03*
X182849400Y-188570736D03*
D30*
X224289042Y-105794540D03*
D31*
X171202600Y-119954100D03*
X134202600Y-138704100D03*
X130452600Y-137454100D03*
X217602600Y-112652100D03*
X229452600Y-96704100D03*
X224952600Y-96954100D03*
X145202600Y-192604100D03*
X145202600Y-189054100D03*
X224702600Y-173454100D03*
X145202600Y-196154100D03*
X221202600Y-169704100D03*
X145202600Y-199704100D03*
X170952600Y-128604100D03*
D30*
X226202600Y-106454100D03*
D31*
X219802600Y-109404100D03*
D12*
X136102600Y-102054100D03*
X136102600Y-103054100D03*
X136102600Y-104054100D03*
X136102600Y-105054100D03*
X136102600Y-106054100D03*
X136102600Y-107054100D03*
X136102600Y-108054100D03*
X136102600Y-109054100D03*
X137102600Y-102054100D03*
X137102600Y-103054100D03*
X137102600Y-104054100D03*
X137102600Y-105054100D03*
X137102600Y-106054100D03*
X137102600Y-107054100D03*
X137102600Y-108054100D03*
X137102600Y-109054100D03*
X138102600Y-102054100D03*
X138102600Y-103054100D03*
X138102600Y-104054100D03*
X138102600Y-105054100D03*
X138102600Y-106054100D03*
X138102600Y-107054100D03*
X138102600Y-108054100D03*
X138102600Y-109054100D03*
X139102600Y-102054100D03*
X139102600Y-103054100D03*
X139102600Y-104054100D03*
X139102600Y-105054100D03*
X139102600Y-106054100D03*
X139102600Y-107054100D03*
X139102600Y-108054100D03*
X139102600Y-109054100D03*
D32*
X139602600Y-105554100D03*
D12*
X140102600Y-102054100D03*
X140102600Y-103054100D03*
X140102600Y-104054100D03*
X140102600Y-105054100D03*
X140102600Y-106054100D03*
X140102600Y-107054100D03*
X140102600Y-108054100D03*
X140102600Y-109054100D03*
X141102600Y-102054100D03*
X141102600Y-103054100D03*
X141102600Y-104054100D03*
X141102600Y-105054100D03*
X141102600Y-106054100D03*
X141102600Y-107054100D03*
X141102600Y-108054100D03*
X141102600Y-109054100D03*
X142102600Y-102054100D03*
X142102600Y-103054100D03*
X142102600Y-104054100D03*
X142102600Y-105054100D03*
X142102600Y-106054100D03*
X142102600Y-107054100D03*
X142102600Y-108054100D03*
X142102600Y-109054100D03*
X143102600Y-102054100D03*
X143102600Y-103054100D03*
X143102600Y-104054100D03*
X143102600Y-105054100D03*
X143102600Y-106054100D03*
X143102600Y-107054100D03*
X143102600Y-108054100D03*
X143102600Y-109054100D03*
D33*
X150452600Y-132664100D03*
X152936545Y-134321992D03*
X155952600Y-137454100D03*
X151386545Y-134821990D03*
X145452600Y-124954100D03*
X153886545Y-132321990D03*
X146202600Y-133954100D03*
X150452600Y-131704100D03*
X144702600Y-136954100D03*
X151386545Y-133861990D03*
X154477600Y-138929100D03*
X146952600Y-127204100D03*
X153186545Y-132321990D03*
X144702600Y-133954100D03*
X146202600Y-124954100D03*
X146952600Y-126454100D03*
X146952600Y-124954100D03*
X146202600Y-126454100D03*
X145452600Y-127204100D03*
X144452600Y-131821990D03*
X146952600Y-124204100D03*
X145452600Y-125704100D03*
X155952600Y-140404100D03*
X148702600Y-136954100D03*
X156702600Y-133321991D03*
X146202600Y-136954100D03*
X151441296Y-132965404D03*
X145452600Y-131821990D03*
X145452600Y-131071990D03*
X153952600Y-128704100D03*
X146202600Y-124204100D03*
X151421296Y-131985404D03*
X148702600Y-133954100D03*
X147202600Y-133954100D03*
X145452600Y-124204100D03*
X146952600Y-125704100D03*
X155227600Y-139679100D03*
X143702600Y-133954100D03*
X145452600Y-126454100D03*
X154852600Y-139304100D03*
X146202600Y-125704100D03*
X144452600Y-131071990D03*
X146202600Y-131821990D03*
X149702600Y-136954100D03*
X153886545Y-134321992D03*
X143702600Y-136954100D03*
X149702600Y-133954100D03*
X146202600Y-127204100D03*
X155602600Y-140054100D03*
X155886545Y-130321990D03*
X147202600Y-136954100D03*
X146202600Y-131071990D03*
X224202600Y-144704100D03*
X224202600Y-142454100D03*
X225452600Y-141204100D03*
X226702600Y-143954100D03*
X226702600Y-146704100D03*
X210952600Y-189954100D03*
X204952600Y-187954100D03*
X212452600Y-194454100D03*
X212952600Y-201704100D03*
X141252600Y-193204100D03*
X232202600Y-98704100D03*
X234452600Y-113704100D03*
X226452600Y-97704100D03*
X225202600Y-173454100D03*
X132101100Y-145954100D03*
X233952600Y-91704100D03*
X225202600Y-110204100D03*
X226452600Y-110454100D03*
X197202600Y-113204100D03*
X131702600Y-151204100D03*
X196702600Y-140704100D03*
X182952600Y-126454100D03*
X197702600Y-140704100D03*
X229202600Y-96204100D03*
X230192600Y-192184100D03*
X197702600Y-140204100D03*
X192682600Y-183704100D03*
X197202600Y-141204100D03*
X198702600Y-187714100D03*
X151202600Y-196954302D03*
X196702600Y-140204100D03*
X145202600Y-196154100D03*
X192682600Y-180704100D03*
X217602600Y-112652100D03*
X229702600Y-97204100D03*
X136427600Y-162604100D03*
X202702600Y-182704100D03*
X195815100Y-182554100D03*
X118702600Y-82204100D03*
X197202600Y-140204100D03*
X229702600Y-96704100D03*
X118702600Y-88416600D03*
X202702600Y-181204100D03*
X192682600Y-182204100D03*
X197702600Y-141204100D03*
X229202600Y-97204100D03*
X121902600Y-82204100D03*
X198202600Y-177704100D03*
X229702600Y-96204100D03*
X228702600Y-192184100D03*
X197202600Y-187724100D03*
X192702600Y-179204100D03*
X197202600Y-140704100D03*
X196702600Y-141204100D03*
X133777600Y-177704100D03*
X229202600Y-96704100D03*
X232452600Y-92454100D03*
X227202600Y-95516097D03*
X133202600Y-146204100D03*
X211202600Y-128704100D03*
X225626922Y-143295988D03*
X225734383Y-142672317D03*
X211209381Y-128147316D03*
X211201570Y-130721340D03*
X225695819Y-145260884D03*
X211234383Y-130172317D03*
X225702600Y-144704100D03*
X230702600Y-168142219D03*
X212386768Y-125519932D03*
X241702600Y-168204100D03*
X212993102Y-124204100D03*
X241702600Y-168954100D03*
X212202600Y-124807807D03*
X207356131Y-103202998D03*
X208575702Y-137146741D03*
X206804619Y-102704100D03*
X207501114Y-137252281D03*
X206952615Y-136704100D03*
X206253374Y-103203329D03*
X205702600Y-102704100D03*
X206402612Y-136704100D03*
X205152888Y-103204390D03*
X205852609Y-136704100D03*
X205302606Y-136704100D03*
X204600600Y-102801063D03*
X204297898Y-102189943D03*
X204752603Y-136704100D03*
X203748722Y-102269322D03*
X204202600Y-136704100D03*
X203452615Y-136704100D03*
X203202600Y-102204100D03*
X202902612Y-136704100D03*
X202952600Y-101704100D03*
X225356307Y-92550393D03*
X202352609Y-101204100D03*
X232702600Y-93454100D03*
X202352609Y-136704100D03*
X201802606Y-136704100D03*
X201802606Y-101204100D03*
X201252603Y-136704100D03*
X152202600Y-192454100D03*
X204710736Y-100414578D03*
X204202600Y-100204100D03*
X200702600Y-136704100D03*
X151702600Y-188954100D03*
X234191308Y-102215392D03*
X118993891Y-157164302D03*
X118993891Y-158264302D03*
X233842600Y-103204100D03*
X233344025Y-106704100D03*
X122202600Y-153204100D03*
X226952600Y-98704100D03*
X123452600Y-152954100D03*
X118993891Y-163764302D03*
X233592600Y-104954100D03*
X118993891Y-164864302D03*
X233741308Y-101165392D03*
X226702600Y-101704100D03*
X226702600Y-102254103D03*
X225702600Y-101204100D03*
X229702600Y-102204100D03*
X229702600Y-102754103D03*
X226608664Y-103409351D03*
X230202600Y-103204100D03*
X225202600Y-100204100D03*
X224702600Y-99704100D03*
X232202600Y-103204100D03*
X229714650Y-103719153D03*
X124702600Y-97204100D03*
X224202600Y-98704100D03*
X223702600Y-98204100D03*
X229700988Y-104268986D03*
X223202600Y-97704100D03*
X232179337Y-105370999D03*
X232327600Y-105900641D03*
X221202600Y-97204100D03*
X220702600Y-96704100D03*
X230202600Y-107204100D03*
X220202600Y-96204100D03*
X226952600Y-108250393D03*
X229702600Y-107704100D03*
X226952600Y-108800396D03*
X230202600Y-108204100D03*
X230202600Y-108754103D03*
X124053891Y-111204100D03*
X212952600Y-95064100D03*
X226202600Y-94505240D03*
X198176828Y-111453100D03*
X124053891Y-112204100D03*
X185952600Y-112365039D03*
X125702600Y-112755039D03*
X198952600Y-111453100D03*
X185952600Y-113204100D03*
X227202600Y-94130240D03*
X216702600Y-94954100D03*
X124053891Y-114204100D03*
X229132600Y-197204100D03*
X210383769Y-134507806D03*
X229882600Y-195914100D03*
X210932729Y-134473971D03*
X228882600Y-195914100D03*
X227632600Y-197214100D03*
X210782730Y-132123970D03*
X210233770Y-132157806D03*
X227107599Y-197016259D03*
X225177600Y-193229100D03*
X210632730Y-136773970D03*
X210083707Y-136806783D03*
X225003240Y-193750734D03*
X198952600Y-100204100D03*
X198952600Y-100954100D03*
X235952600Y-110454100D03*
X239702600Y-89204100D03*
X226452600Y-111004103D03*
X239702600Y-91204100D03*
X235952600Y-107204100D03*
X174997058Y-104328100D03*
X168202600Y-141454100D03*
X173228891Y-192254302D03*
X198952600Y-102654097D03*
X174202600Y-191954100D03*
X170165600Y-137954100D03*
X170555600Y-138704100D03*
X175228891Y-192204100D03*
X176702600Y-104704100D03*
X198952600Y-103204100D03*
X170945600Y-139204100D03*
X176228891Y-191704100D03*
X172949620Y-136204100D03*
X176875846Y-191877346D03*
X177555645Y-191851055D03*
X173339620Y-136704100D03*
X178430435Y-191892321D03*
X175491120Y-133704100D03*
X179001924Y-191876855D03*
X175879620Y-134204100D03*
X179966205Y-191871085D03*
X178019600Y-132204100D03*
X178419620Y-131704100D03*
X180555645Y-191851055D03*
X181375846Y-191877346D03*
X180406617Y-129204100D03*
X180956620Y-129204100D03*
X182055645Y-191851055D03*
X233202600Y-107454100D03*
X128202600Y-85051393D03*
X136427600Y-160704100D03*
X233702600Y-98275393D03*
X232702600Y-94204100D03*
X121252600Y-80304100D03*
X211741308Y-126665392D03*
X230528891Y-185895711D03*
X230202600Y-168679102D03*
X211837425Y-125546859D03*
X231202600Y-167704100D03*
X213068104Y-125838596D03*
X200202600Y-127704100D03*
X199702600Y-110704100D03*
X209202600Y-136704100D03*
X128802600Y-122429100D03*
X222568891Y-188954100D03*
X157702600Y-115204100D03*
X157702600Y-115954100D03*
X159182600Y-110204100D03*
X155452600Y-114454100D03*
X156952600Y-115954100D03*
X155452600Y-115204100D03*
X162952600Y-110504100D03*
X162452600Y-113954100D03*
X156952600Y-114454100D03*
X156202600Y-114454100D03*
X156952600Y-115204100D03*
X162581262Y-113004100D03*
X158452600Y-115954100D03*
X157702600Y-114454100D03*
X156202600Y-115204100D03*
X158452600Y-115204100D03*
X156202600Y-115954100D03*
X155452600Y-115954100D03*
X158452600Y-114454100D03*
X140202600Y-138336210D03*
X139702600Y-138336210D03*
X139702600Y-137086210D03*
X134202600Y-138704100D03*
X139702600Y-139086210D03*
X140202600Y-137586210D03*
X140202600Y-137086210D03*
X140202600Y-139086210D03*
X139702600Y-137586210D03*
X197202600Y-186704100D03*
X197352600Y-184091600D03*
X169452600Y-187954100D03*
X196702600Y-184091600D03*
X198702600Y-186694100D03*
X198652600Y-184204100D03*
X198002600Y-184091600D03*
X199540100Y-182554100D03*
X199540100Y-183204100D03*
X198652600Y-180366600D03*
X123202600Y-95204100D03*
X122452600Y-96704100D03*
X133902600Y-109304100D03*
X130702600Y-124954100D03*
X132952600Y-125454100D03*
X134952600Y-125454100D03*
X134452600Y-125454100D03*
X128802600Y-127729100D03*
X133452600Y-125454100D03*
X130702600Y-124454100D03*
X128815100Y-130129100D03*
X133852600Y-125454100D03*
X234202600Y-192204100D03*
X234202600Y-191704100D03*
X234202600Y-191204100D03*
X230882600Y-195914100D03*
X230632600Y-197214100D03*
X227882600Y-195704100D03*
X227452600Y-107050393D03*
X234202600Y-184204100D03*
X129752600Y-122429100D03*
X195291765Y-98647438D03*
X240702600Y-190704100D03*
X118592600Y-125514100D03*
X201650600Y-98844100D03*
X138692600Y-90454100D03*
X181728891Y-193974302D03*
X120182600Y-94454100D03*
X168702600Y-139954100D03*
X240512600Y-130594100D03*
X170952600Y-128604100D03*
X226276309Y-79250393D03*
X239477600Y-154354100D03*
X216326309Y-85050393D03*
X239477600Y-175054100D03*
D34*
X236702600Y-136454100D03*
D33*
X241702600Y-162054302D03*
X210286600Y-126276100D03*
X177228891Y-193974302D03*
X135662600Y-123454100D03*
X122452600Y-91704100D03*
X236702600Y-182704100D03*
X131202600Y-193204100D03*
X219802600Y-109404100D03*
X140202600Y-133704100D03*
X195276309Y-110675393D03*
X135702600Y-122454100D03*
X234702600Y-188724100D03*
X205714600Y-101384100D03*
X128682600Y-126204100D03*
X130702600Y-129954100D03*
D34*
X232702600Y-139704100D03*
D33*
X224952600Y-190454100D03*
X193202600Y-102250393D03*
X174702600Y-136204100D03*
X194952600Y-178454100D03*
X230202600Y-182704100D03*
X129692600Y-90454100D03*
X240702600Y-191204100D03*
X193626309Y-111880403D03*
D34*
X229952600Y-136954100D03*
D33*
X119008891Y-168744302D03*
X133777600Y-178704100D03*
X232202600Y-182704100D03*
X118592600Y-135674100D03*
X170452600Y-108954100D03*
X238478891Y-173054302D03*
X222732600Y-201714100D03*
X230702600Y-182704100D03*
X134452600Y-131454100D03*
X218452600Y-184954100D03*
X119862600Y-86144100D03*
X216702600Y-179954100D03*
D34*
X234452600Y-135204100D03*
D33*
X240512600Y-150914100D03*
X226953912Y-109454100D03*
X230202600Y-190204100D03*
X155202600Y-89204100D03*
X236202600Y-184204100D03*
D34*
X229952600Y-138454100D03*
D33*
X240512600Y-86144100D03*
X124053891Y-115654100D03*
X240202600Y-190704100D03*
X163952600Y-120204100D03*
X130752600Y-120454100D03*
X154702600Y-127671990D03*
X118592600Y-192824100D03*
X163952601Y-107454100D03*
X132952600Y-131454100D03*
X231076309Y-113550393D03*
X203682600Y-79794100D03*
X163541262Y-113004100D03*
X170452600Y-108454100D03*
X238202600Y-188454100D03*
X195026309Y-108250393D03*
X130702600Y-130454100D03*
X208478891Y-181934302D03*
X196487236Y-96248009D03*
X161202600Y-118704100D03*
X171932600Y-191554100D03*
X195015887Y-107058172D03*
D34*
X238952600Y-140954100D03*
D33*
X228926309Y-98670403D03*
X195026309Y-105860403D03*
X155702600Y-196954302D03*
X231202600Y-186204100D03*
X158702600Y-196954302D03*
X241702600Y-165204100D03*
X133452600Y-131454100D03*
X239702600Y-90204100D03*
X161202600Y-117704100D03*
X189828891Y-190144302D03*
D34*
X240702600Y-139454100D03*
D33*
X241702600Y-155704100D03*
X206730600Y-100368100D03*
X118592600Y-92494100D03*
X230202600Y-190704100D03*
X164702600Y-119704100D03*
X235702600Y-188664100D03*
X159232600Y-79794100D03*
X132952600Y-131954100D03*
X224002600Y-109004100D03*
X238702600Y-188454100D03*
X174228891Y-193974302D03*
X177012600Y-79794100D03*
X230651762Y-100187216D03*
D34*
X234452600Y-140954100D03*
D33*
X125202600Y-95454100D03*
X209176309Y-79350393D03*
X176702600Y-130704100D03*
X240512600Y-201714100D03*
X232126309Y-108204100D03*
X208762600Y-129324100D03*
X211952600Y-180454100D03*
X200452600Y-184954100D03*
X139402600Y-133704100D03*
X118592600Y-112814100D03*
X236202600Y-182704100D03*
X183362600Y-191554100D03*
X208254600Y-101892100D03*
X123162600Y-98704100D03*
X145202600Y-199704100D03*
X133952600Y-131454100D03*
X198202600Y-102204100D03*
X133452600Y-131954100D03*
X232952600Y-177994100D03*
X130258891Y-168964302D03*
X118592600Y-185204100D03*
X129222600Y-89204100D03*
X129952600Y-137454100D03*
X225776309Y-85050393D03*
X195026309Y-93840383D03*
X134452600Y-131954100D03*
X196329592Y-98647438D03*
X196702600Y-107058172D03*
D34*
X235952600Y-135204100D03*
D33*
X211378891Y-181854302D03*
X230521271Y-109781766D03*
X196726309Y-111820383D03*
X209176309Y-80750393D03*
X193169331Y-103417124D03*
X198202600Y-99850393D03*
X204952600Y-182704100D03*
X166352601Y-109754099D03*
X118993891Y-159364302D03*
X138702600Y-161654100D03*
X240512600Y-97574100D03*
X162952600Y-141954100D03*
X164702600Y-120204100D03*
X158202600Y-109454100D03*
X154636546Y-135721991D03*
X165242600Y-114954100D03*
X137722600Y-89204100D03*
X130213431Y-155907627D03*
X241702600Y-163704100D03*
X208762600Y-131356100D03*
X130952600Y-137454100D03*
X188442600Y-201714100D03*
X224952600Y-96954100D03*
X166702600Y-143454100D03*
X118592600Y-152184100D03*
X157202600Y-197454100D03*
X196626309Y-110650393D03*
X237702600Y-194704100D03*
X193202600Y-94454100D03*
X214350600Y-122720100D03*
X209176309Y-82150393D03*
X161702600Y-196954302D03*
X135662600Y-121454100D03*
X163952600Y-106954100D03*
X227504809Y-114553770D03*
X231222600Y-187704100D03*
X187172600Y-79794100D03*
X240202600Y-191704100D03*
D34*
X239202600Y-136454100D03*
D33*
X133952600Y-131954100D03*
X120602600Y-80304100D03*
X236702600Y-184204100D03*
X231428891Y-184945711D03*
X140182600Y-201714100D03*
X230626309Y-101350393D03*
D34*
X233702600Y-142204100D03*
X238452600Y-138204100D03*
D33*
X146532600Y-79794100D03*
X195265491Y-96248009D03*
X231202600Y-192244100D03*
D34*
X230952600Y-139704100D03*
D33*
X196702600Y-109450393D03*
X146702600Y-89204100D03*
X211802600Y-85104100D03*
X164447600Y-112959100D03*
X194452600Y-184954100D03*
X170002600Y-99704101D03*
X214478891Y-181934302D03*
X193662600Y-179204100D03*
X192952600Y-97553373D03*
X172202600Y-137954100D03*
X214478891Y-182704302D03*
X240512600Y-122974100D03*
X154202600Y-196954302D03*
X218776309Y-85050393D03*
D34*
X235952600Y-138204100D03*
X234452600Y-138204100D03*
D33*
X187278891Y-193274302D03*
D34*
X236702600Y-139704100D03*
D33*
X232202600Y-104704100D03*
X196487236Y-93857066D03*
X237702600Y-195204100D03*
X221076309Y-85050393D03*
X119202600Y-99254100D03*
X200126600Y-101384100D03*
X230202600Y-191204100D03*
X192528891Y-192374302D03*
X240202600Y-191204100D03*
X230952600Y-178954100D03*
X240512600Y-187744100D03*
X179202600Y-128204100D03*
X208478891Y-182704302D03*
X140202600Y-132704100D03*
X178728891Y-193974302D03*
X196726309Y-108250393D03*
X161952600Y-118704100D03*
X199110600Y-104432100D03*
X231428891Y-185645711D03*
X198202600Y-94204100D03*
X240512600Y-182664100D03*
X198202600Y-97454100D03*
X228926309Y-93835383D03*
X195026309Y-109454100D03*
X118592600Y-171234100D03*
X240702600Y-191704100D03*
X135952600Y-193204100D03*
X136302600Y-166204100D03*
D34*
X240702600Y-138204100D03*
D33*
X237702600Y-195704100D03*
X239202600Y-188454100D03*
X238478891Y-174054302D03*
X241702600Y-157554302D03*
X199110600Y-98844100D03*
X152702600Y-196954302D03*
X130452600Y-137454100D03*
X139402600Y-132704100D03*
X221702600Y-169704100D03*
X163952600Y-120704100D03*
X200702600Y-178704100D03*
X241702600Y-166704100D03*
X126212600Y-201714100D03*
X236702600Y-79794100D03*
X196726309Y-105850393D03*
X118592600Y-145834100D03*
X130022600Y-79794100D03*
X227426309Y-105050393D03*
X210402600Y-85104100D03*
D34*
X232202600Y-142204100D03*
D33*
X232702600Y-182704100D03*
X232482600Y-197214100D03*
X201142600Y-201714100D03*
X130702600Y-127454100D03*
X228952600Y-190704100D03*
X193202600Y-101050393D03*
X198126309Y-101060403D03*
X163952600Y-119704100D03*
X130702600Y-127954100D03*
X118592600Y-201714100D03*
X165242600Y-114079100D03*
X138912600Y-79794100D03*
X164202600Y-139954100D03*
X169952600Y-141204100D03*
X222478600Y-107988100D03*
X223176309Y-85050393D03*
X165242600Y-115954100D03*
X147192600Y-92204100D03*
X124053891Y-109254100D03*
X209176309Y-83750393D03*
X232202600Y-192244100D03*
X232382600Y-195914100D03*
X205452600Y-181704100D03*
X160202600Y-196954302D03*
X234202600Y-182704100D03*
X180228891Y-193974302D03*
X161952600Y-117704100D03*
X170452600Y-109454100D03*
X227426309Y-103050393D03*
X234702600Y-184204100D03*
X177202600Y-133704100D03*
X230626309Y-99050393D03*
X163412600Y-114079100D03*
X206702600Y-180204100D03*
X231702600Y-186204100D03*
X120452600Y-155912100D03*
X118592600Y-105194100D03*
X166852600Y-201714100D03*
X240512600Y-145834100D03*
X164702600Y-120704100D03*
X179202600Y-130454100D03*
X214026309Y-85050393D03*
X133352600Y-193204100D03*
X238702600Y-168204100D03*
X238702600Y-169704100D03*
X234702600Y-182704100D03*
X240512600Y-116624100D03*
X241702600Y-159054302D03*
X124103600Y-96704100D03*
X161202600Y-118204100D03*
X208762600Y-133896100D03*
X226176309Y-84150393D03*
X209270600Y-138468100D03*
X161952600Y-118204100D03*
X199618600Y-137452100D03*
X229302600Y-110804100D03*
X232328891Y-184820711D03*
X167452600Y-108504100D03*
X160952600Y-108504100D03*
X165952600Y-177842600D03*
X162202600Y-111204100D03*
X177452600Y-96454100D03*
X166202600Y-141954100D03*
X193702600Y-182204100D03*
X156202600Y-128704100D03*
X232327600Y-106450644D03*
X153636545Y-131520155D03*
X221952600Y-96704100D03*
X226002600Y-106204100D03*
X164452600Y-178204100D03*
X165452600Y-141834925D03*
X177452600Y-95804101D03*
X193702600Y-180704100D03*
X164452600Y-177454100D03*
X153136544Y-130921991D03*
X224702600Y-105579100D03*
X165452600Y-176704100D03*
X161552601Y-111254101D03*
X222702600Y-96454100D03*
X236702600Y-186204100D03*
X235702600Y-96454100D03*
X171702600Y-119704100D03*
X170702600Y-116454100D03*
X170702600Y-117204100D03*
X169702600Y-119704100D03*
X234202600Y-186204100D03*
X170702600Y-115704100D03*
X169702600Y-114954100D03*
X236702600Y-96454100D03*
X188880176Y-194182016D03*
X239202600Y-186454100D03*
X170702600Y-114954100D03*
X166202600Y-114954100D03*
X168702600Y-117204100D03*
X238702600Y-186454100D03*
X164952602Y-110504100D03*
X171702600Y-114954100D03*
X168702600Y-114954100D03*
X166202600Y-115954100D03*
X168702600Y-115704100D03*
X171702600Y-115704100D03*
X234702600Y-186204100D03*
X188878891Y-193564302D03*
X170702600Y-120204100D03*
X169702600Y-116454100D03*
X166202600Y-114079100D03*
X168702600Y-116454100D03*
X236702600Y-95954100D03*
X238202600Y-186454100D03*
X235702600Y-187704100D03*
X171702600Y-120704100D03*
X169702600Y-117204100D03*
X171702600Y-120204100D03*
X170702600Y-120704100D03*
X171702600Y-117204100D03*
X235702600Y-95954100D03*
X171702600Y-116454100D03*
X164952602Y-111454100D03*
X236202600Y-186204100D03*
X239202600Y-92204100D03*
X170702600Y-119704100D03*
X169702600Y-115704100D03*
X236202600Y-96454100D03*
X188880176Y-192967446D03*
X187278891Y-194234302D03*
X169702600Y-120704100D03*
X169702600Y-120204100D03*
X225605600Y-189454100D03*
X240202600Y-92204100D03*
X236202600Y-95954100D03*
X235202600Y-95954100D03*
X235202600Y-96454100D03*
X170002600Y-97104101D03*
X124202600Y-97704100D03*
X150077600Y-115079100D03*
X150952600Y-114954100D03*
X183452600Y-126954100D03*
X145302600Y-103304100D03*
X150452600Y-115454100D03*
X183452600Y-126454100D03*
X145302600Y-108804100D03*
X182452600Y-126954100D03*
X149102600Y-105554100D03*
X182952600Y-125954100D03*
X148238600Y-102804100D03*
X149102600Y-107554100D03*
X140452600Y-115889774D03*
X149036338Y-112665664D03*
X142852600Y-111254100D03*
X182452600Y-125954100D03*
X145602600Y-104804100D03*
X149102600Y-111554100D03*
X150577600Y-114579100D03*
X138102600Y-112554100D03*
X138387479Y-112083628D03*
X149102600Y-108554100D03*
X149062600Y-101554100D03*
X149062600Y-98554100D03*
X149102600Y-106554100D03*
X134602600Y-115419774D03*
X149062600Y-100554100D03*
X142852600Y-99854100D03*
X137102600Y-115439774D03*
X182452600Y-126454100D03*
X149062600Y-99554100D03*
X232000536Y-102606164D03*
X121952600Y-93954100D03*
X141352600Y-99854100D03*
X148142600Y-113954100D03*
X149102600Y-110554100D03*
X142702600Y-98204100D03*
X149102600Y-113954100D03*
X241802600Y-160404100D03*
X142602600Y-118054100D03*
X149102600Y-109554100D03*
X137352600Y-111054100D03*
X149062600Y-97554100D03*
X142102600Y-115439774D03*
X182952600Y-126954100D03*
X144827600Y-118004100D03*
X183452600Y-125954100D03*
X149102600Y-104554100D03*
X147102600Y-117054100D03*
D35*
X155886545Y-130321990D02*
X155886545Y-137388045D01*
X155886545Y-137388045D02*
X155952600Y-137454100D01*
D36*
X210173891Y-186914302D02*
X211443891Y-185644302D01*
X210173891Y-188184302D02*
X210173891Y-186914302D01*
X220649961Y-114954100D02*
X193857600Y-141746461D01*
X144825301Y-188138100D02*
X144823180Y-188138100D01*
X233202600Y-114954100D02*
X220649961Y-114954100D01*
X144286600Y-188676801D02*
X141252600Y-191710801D01*
X234452600Y-113704100D02*
X233202600Y-114954100D01*
X231202600Y-97704100D02*
X226452600Y-97704100D01*
X141252600Y-191710801D02*
X141252600Y-193204100D01*
X232202600Y-98704100D02*
X231202600Y-97704100D01*
X193857600Y-152932520D02*
X187522547Y-159267572D01*
X187522547Y-159267572D02*
X173695829Y-159267572D01*
X144286600Y-188674680D02*
X144286600Y-188676801D01*
X144823180Y-188138100D02*
X144286600Y-188674680D01*
X193857600Y-141746461D02*
X193857600Y-152932520D01*
X173695829Y-159267572D02*
X144825301Y-188138100D01*
X121976600Y-139457784D02*
X121976600Y-139436571D01*
X120702600Y-138162571D02*
X120702600Y-137704100D01*
X122710129Y-140170100D02*
X122688916Y-140170100D01*
X128494129Y-145954100D02*
X122710129Y-140170100D01*
X121976600Y-139436571D02*
X120702600Y-138162571D01*
X132101100Y-145954100D02*
X128494129Y-145954100D01*
X122688916Y-140170100D02*
X121976600Y-139457784D01*
D35*
X118702600Y-82204100D02*
X118702600Y-88416600D01*
X118702600Y-82204100D02*
X121902600Y-82204100D01*
D36*
X121854931Y-134856431D02*
X133202600Y-146204100D01*
X120702600Y-126704100D02*
X121854931Y-127856431D01*
X121854931Y-127856431D02*
X121854931Y-134856431D01*
D37*
X225626922Y-143128422D02*
X225626922Y-143295988D01*
X211202600Y-128704100D02*
X225626922Y-143128422D01*
X211209381Y-128147316D02*
X225702600Y-142640535D01*
X225702600Y-142704100D02*
X225734383Y-142672317D01*
X225702600Y-142640535D02*
X225702600Y-142704100D01*
X211201570Y-130721340D02*
X211201570Y-130766635D01*
X211201570Y-130766635D02*
X225695819Y-145260884D01*
X225702600Y-144640534D02*
X225702600Y-144704100D01*
X211234383Y-130172317D02*
X225702600Y-144640534D01*
D36*
X230702600Y-168142219D02*
X230702600Y-144026684D01*
X230702600Y-144026684D02*
X212386768Y-125710852D01*
X212386768Y-125710852D02*
X212386768Y-125519932D01*
D37*
X241702600Y-168204100D02*
X240002600Y-168204100D01*
X240002600Y-168204100D02*
X232202600Y-160404100D01*
X232202600Y-160404100D02*
X232202600Y-143843840D01*
X212993102Y-124634342D02*
X212993102Y-124204100D01*
X232202600Y-143843840D02*
X212993102Y-124634342D01*
X231702600Y-162304100D02*
X231702600Y-143909527D01*
X212600880Y-124807807D02*
X212202600Y-124807807D01*
X241702600Y-168954100D02*
X241677602Y-168929102D01*
X231702600Y-143909527D02*
X212600880Y-124807807D01*
X241677602Y-168929102D02*
X238327602Y-168929102D01*
X238327602Y-168929102D02*
X231702600Y-162304100D01*
D36*
X231626309Y-92550393D02*
X232530016Y-93454100D01*
X225356307Y-92550393D02*
X231626309Y-92550393D01*
X232530016Y-93454100D02*
X232702600Y-93454100D01*
X145202600Y-192604100D02*
X152052600Y-192604100D01*
X152052600Y-192604100D02*
X152202600Y-192454100D01*
X145202600Y-189054100D02*
X151602600Y-189054100D01*
X151602600Y-189054100D02*
X151702600Y-188954100D01*
X221073908Y-113454100D02*
X193164600Y-141363408D01*
X131742399Y-157164302D02*
X118993891Y-157164302D01*
X234452600Y-108454100D02*
X229452600Y-113454100D01*
X229452600Y-113454100D02*
X221073908Y-113454100D01*
X189121968Y-156688100D02*
X132218601Y-156688100D01*
X234452600Y-102476684D02*
X234452600Y-108454100D01*
X234191308Y-102215392D02*
X234452600Y-102476684D01*
X132218601Y-156688100D02*
X131742399Y-157164302D01*
X193164600Y-141363408D02*
X193164600Y-152645468D01*
X193164600Y-152645468D02*
X189121968Y-156688100D01*
X234202600Y-103564100D02*
X233842600Y-103204100D01*
X118602891Y-157002344D02*
X118831933Y-156773302D01*
X189048283Y-156435100D02*
X192933600Y-152549784D01*
X192933600Y-152549784D02*
X192933600Y-141209597D01*
X131806715Y-156773302D02*
X132125917Y-156454100D01*
X220939097Y-113204100D02*
X229202600Y-113204100D01*
X192933600Y-141209597D02*
X220939097Y-113204100D01*
X229202600Y-113204100D02*
X234202600Y-108204100D01*
X132125917Y-156454100D02*
X188952600Y-156454100D01*
X188952600Y-156454100D02*
X188971600Y-156435100D01*
X234202600Y-108204100D02*
X234202600Y-103564100D01*
X188971600Y-156435100D02*
X189048283Y-156435100D01*
X118602891Y-157873302D02*
X118602891Y-157002344D01*
X118993891Y-158264302D02*
X118602891Y-157873302D01*
X118831933Y-156773302D02*
X131806715Y-156773302D01*
X233364558Y-108095100D02*
X233362198Y-108095100D01*
X228753198Y-112704100D02*
X220655760Y-112704100D01*
X220655760Y-112704100D02*
X192418600Y-140941260D01*
X233362198Y-108095100D02*
X228753198Y-112704100D01*
X233702600Y-107062675D02*
X233702600Y-107754698D01*
X122702600Y-153704100D02*
X122202600Y-153204100D01*
X233344025Y-106704100D02*
X233535959Y-106896033D01*
X233593600Y-107863698D02*
X233593600Y-107866058D01*
X124106917Y-153935100D02*
X123875916Y-153704100D01*
X233593600Y-107866058D02*
X233364558Y-108095100D01*
X123875916Y-153704100D02*
X122702600Y-153704100D01*
X192418600Y-140941260D02*
X192418600Y-152411416D01*
X233344025Y-106704100D02*
X233702600Y-107062675D01*
X233702600Y-107754698D02*
X233593600Y-107863698D01*
X192418600Y-152411416D02*
X190894916Y-153935100D01*
X190894916Y-153935100D02*
X124106917Y-153935100D01*
X192452600Y-140532367D02*
X220530867Y-112454100D01*
X192452600Y-140580576D02*
X192452600Y-140532367D01*
X190799232Y-153704100D02*
X192187600Y-152315732D01*
X232723025Y-102479398D02*
X230934009Y-100690382D01*
X229886320Y-100690382D02*
X227900038Y-98704100D01*
X124202600Y-153704100D02*
X190799232Y-153704100D01*
X123452600Y-152954100D02*
X124202600Y-153704100D01*
X232723025Y-108183675D02*
X232723025Y-102479398D01*
X227900038Y-98704100D02*
X226952600Y-98704100D01*
X230934009Y-100690382D02*
X229886320Y-100690382D01*
X228452600Y-112454100D02*
X232723025Y-108183675D01*
X192187600Y-140845576D02*
X192452600Y-140580576D01*
X220530867Y-112454100D02*
X228452600Y-112454100D01*
X192187600Y-152315732D02*
X192187600Y-140845576D01*
X192702600Y-141042283D02*
X192702600Y-152454100D01*
X233952600Y-105068808D02*
X233952600Y-107954100D01*
X233952600Y-107954100D02*
X228952600Y-112954100D01*
X117818145Y-162588555D02*
X118993891Y-163764302D01*
X228952600Y-112954100D02*
X220790783Y-112954100D01*
X131853600Y-156303100D02*
X118975452Y-156303100D01*
X131952600Y-156204100D02*
X131853600Y-156303100D01*
X233837892Y-104954100D02*
X233952600Y-105068808D01*
X233592600Y-104954100D02*
X233837892Y-104954100D01*
X220790783Y-112954100D02*
X192702600Y-141042283D01*
X188952600Y-156204100D02*
X131952600Y-156204100D01*
X118975452Y-156303100D02*
X117818145Y-157460407D01*
X192702600Y-152454100D02*
X188952600Y-156204100D01*
X117818145Y-157460407D02*
X117818145Y-162588555D01*
X147668600Y-158738100D02*
X147202600Y-159204100D01*
X147202600Y-159204100D02*
X124654093Y-159204100D01*
X124654093Y-159204100D02*
X118993891Y-164864302D01*
X229811462Y-113704100D02*
X221195638Y-113704100D01*
X234702600Y-102126684D02*
X234702600Y-108812962D01*
X193395600Y-141504138D02*
X193395600Y-152741152D01*
X187398652Y-158738100D02*
X147668600Y-158738100D01*
X193395600Y-152741152D02*
X187398652Y-158738100D01*
X221195638Y-113704100D02*
X193395600Y-141504138D01*
X233741308Y-101165392D02*
X234702600Y-102126684D01*
X234702600Y-108812962D02*
X229811462Y-113704100D01*
X216452600Y-101704100D02*
X226702600Y-101704100D01*
X179422600Y-138734100D02*
X216452600Y-101704100D01*
X179422600Y-148164100D02*
X179662600Y-148164100D01*
X179662600Y-148164100D02*
X179702600Y-148204100D01*
X179422600Y-148164100D02*
X179422600Y-138734100D01*
X226702600Y-102204100D02*
X226734345Y-102204100D01*
X177898600Y-149180100D02*
X176882600Y-148164100D01*
X226702600Y-102204100D02*
X226702600Y-102254103D01*
X179843441Y-149180100D02*
X177898600Y-149180100D01*
X226652597Y-102204100D02*
X216375916Y-102204100D01*
X180471600Y-148551941D02*
X179843441Y-149180100D01*
X180471600Y-138108417D02*
X180471600Y-148551941D01*
X216375916Y-102204100D02*
X180471600Y-138108417D01*
X226702600Y-102254103D02*
X226652597Y-102204100D01*
X225702600Y-101204100D02*
X216452600Y-101204100D01*
X216452600Y-101204100D02*
X174342600Y-143314100D01*
X174342600Y-143314100D02*
X174342600Y-148164100D01*
X175358600Y-149688100D02*
X179843441Y-149688100D01*
X228942412Y-102648190D02*
X229386502Y-102204100D01*
X180702600Y-148828941D02*
X180702600Y-138204100D01*
X216258510Y-102648190D02*
X228942412Y-102648190D01*
X179843441Y-149688100D02*
X180702600Y-148828941D01*
X174342600Y-150704100D02*
X175358600Y-149688100D01*
X180702600Y-138204100D02*
X216258510Y-102648190D01*
X229386502Y-102204100D02*
X229702600Y-102204100D01*
X183452600Y-151204100D02*
X182936600Y-151720100D01*
X183452600Y-135954100D02*
X183452600Y-151204100D01*
X182936600Y-151720100D02*
X172818600Y-151720100D01*
X227264351Y-103441393D02*
X226841309Y-103018351D01*
X216388349Y-103018351D02*
X183452600Y-135954100D01*
X229702600Y-102754103D02*
X229015310Y-103441393D01*
X226841309Y-103018351D02*
X216388349Y-103018351D01*
X229015310Y-103441393D02*
X227264351Y-103441393D01*
X172818600Y-151720100D02*
X171802600Y-150704100D01*
X168246600Y-151124941D02*
X168246600Y-149180100D01*
X183903600Y-151303351D02*
X183002851Y-152204100D01*
X226563915Y-103454100D02*
X216452600Y-103454100D01*
X216452600Y-103454100D02*
X183903600Y-136003100D01*
X183903600Y-136003100D02*
X183903600Y-151303351D01*
X183002851Y-152204100D02*
X169325759Y-152204100D01*
X226608664Y-103409351D02*
X226563915Y-103454100D01*
X168246600Y-149180100D02*
X169262600Y-148164100D01*
X169325759Y-152204100D02*
X168246600Y-151124941D01*
X216327600Y-100829100D02*
X216343600Y-100813100D01*
X228864558Y-100813100D02*
X230202600Y-102151142D01*
X216327600Y-100829100D02*
X170737509Y-146419191D01*
X170737509Y-146419191D02*
X170737509Y-149229191D01*
X170737509Y-149229191D02*
X169262600Y-150704100D01*
X230202600Y-102151142D02*
X230202600Y-103204100D01*
X216343600Y-100813100D02*
X228864558Y-100813100D01*
X169508600Y-147148100D02*
X168841759Y-147148100D01*
X225202600Y-100204100D02*
X216452600Y-100204100D01*
X216452600Y-100204100D02*
X169508600Y-147148100D01*
X168841759Y-147148100D02*
X168246600Y-147743259D01*
X168246600Y-147743259D02*
X168246600Y-148164100D01*
X168246600Y-148164100D02*
X166722600Y-148164100D01*
X169452600Y-146704100D02*
X165642600Y-146704100D01*
X216452600Y-99704100D02*
X169452600Y-146704100D01*
X224702600Y-99704100D02*
X216452600Y-99704100D01*
X165642600Y-146704100D02*
X164182600Y-148164100D01*
X169625916Y-146204100D02*
X216356917Y-99473100D01*
X231875435Y-103204100D02*
X232202600Y-103204100D01*
X162835964Y-147751756D02*
X164383620Y-146204100D01*
X164383620Y-146204100D02*
X169625916Y-146204100D01*
X216356917Y-99473100D02*
X216625916Y-99204100D01*
X227875435Y-99204100D02*
X231875435Y-103204100D01*
X216625916Y-99204100D02*
X227875435Y-99204100D01*
X162835964Y-149357464D02*
X162835964Y-147751756D01*
X164182600Y-150704100D02*
X162835964Y-149357464D01*
X189952600Y-130454100D02*
X189952600Y-151954100D01*
X229596432Y-103837371D02*
X216569329Y-103837371D01*
X189952600Y-151954100D02*
X189202600Y-152704100D01*
X189202600Y-152704100D02*
X163642600Y-152704100D01*
X229714650Y-103719153D02*
X229596432Y-103837371D01*
X216569329Y-103837371D02*
X189952600Y-130454100D01*
X163642600Y-152704100D02*
X161642600Y-150704100D01*
X139798600Y-147743259D02*
X139798600Y-148076941D01*
X125202600Y-97704100D02*
X125202600Y-102627416D01*
X169452600Y-145954100D02*
X216702600Y-98704100D01*
X159102600Y-148164100D02*
X161312600Y-145954100D01*
X126452600Y-103877416D02*
X126452600Y-138223100D01*
X135028441Y-142973100D02*
X139798600Y-147743259D01*
X124702600Y-97204100D02*
X125202600Y-97704100D01*
X139798600Y-148076941D02*
X140901759Y-149180100D01*
X131202600Y-142973100D02*
X135028441Y-142973100D01*
X126452600Y-138223100D02*
X131202600Y-142973100D01*
X161312600Y-145954100D02*
X169452600Y-145954100D01*
X216702600Y-98704100D02*
X224202600Y-98704100D01*
X140901759Y-149180100D02*
X158086600Y-149180100D01*
X158086600Y-149180100D02*
X159102600Y-148164100D01*
X125202600Y-102627416D02*
X126452600Y-103877416D01*
X216702600Y-98204100D02*
X223702600Y-98204100D01*
X223702600Y-98204100D02*
X223702600Y-98318788D01*
X156562600Y-148164100D02*
X159022600Y-145704100D01*
X169202600Y-145704100D02*
X216702600Y-98204100D01*
X159022600Y-145704100D02*
X169202600Y-145704100D01*
X158812600Y-152954100D02*
X156562600Y-150704100D01*
X190471600Y-130358417D02*
X190239782Y-130590234D01*
X229700988Y-104268986D02*
X229546013Y-104114011D01*
X229546013Y-104114011D02*
X216716005Y-104114011D01*
X189452600Y-152954100D02*
X158812600Y-152954100D01*
X190239782Y-152166918D02*
X189452600Y-152954100D01*
X216716005Y-104114011D02*
X190471600Y-130358417D01*
X190239782Y-130590234D02*
X190239782Y-152166918D01*
X154022600Y-148164100D02*
X156713600Y-145473100D01*
X156713600Y-145473100D02*
X169106916Y-145473100D01*
X169106916Y-145473100D02*
X216606917Y-97973099D01*
X216606917Y-97973099D02*
X216875916Y-97704100D01*
X216875916Y-97704100D02*
X223202600Y-97704100D01*
X190702600Y-130454100D02*
X190702600Y-152454100D01*
X216751600Y-104405100D02*
X190702600Y-130454100D01*
X189952600Y-153204100D02*
X156522600Y-153204100D01*
X229284144Y-104405100D02*
X216751600Y-104405100D01*
X230250043Y-105370999D02*
X229284144Y-104405100D01*
X190702600Y-152454100D02*
X189952600Y-153204100D01*
X156522600Y-153204100D02*
X154022600Y-150704100D01*
X232179337Y-105370999D02*
X230250043Y-105370999D01*
X154232600Y-153454100D02*
X151482600Y-150704100D01*
X226186856Y-104688356D02*
X216811506Y-104688356D01*
X190952600Y-152704100D02*
X190202600Y-153454100D01*
X232249132Y-105900641D02*
X232102594Y-105754103D01*
X216811506Y-104688356D02*
X190952600Y-130547262D01*
X190952600Y-130547262D02*
X190952600Y-152704100D01*
X190202600Y-153454100D02*
X154232600Y-153454100D01*
X227252603Y-105754103D02*
X226186856Y-104688356D01*
X232327600Y-105900641D02*
X232249132Y-105900641D01*
X232102594Y-105754103D02*
X227252603Y-105754103D01*
X168952600Y-145204100D02*
X149362600Y-145204100D01*
X149362600Y-145204100D02*
X146402600Y-148164100D01*
X221202600Y-97204100D02*
X216952600Y-97204100D01*
X216952600Y-97204100D02*
X168952600Y-145204100D01*
X220702600Y-96704100D02*
X216952600Y-96704100D01*
X147072600Y-144954100D02*
X143862600Y-148164100D01*
X168702600Y-144954100D02*
X147072600Y-144954100D01*
X216952600Y-96704100D02*
X168702600Y-144954100D01*
X144782600Y-144704100D02*
X141322600Y-148164100D01*
X220202600Y-96204100D02*
X216952600Y-96204100D01*
X168452600Y-144704100D02*
X144782600Y-144704100D01*
X216952600Y-96204100D02*
X168452600Y-144704100D01*
X212952600Y-95064100D02*
X213511460Y-94505240D01*
X213511460Y-94505240D02*
X226202600Y-94505240D01*
D37*
X185952600Y-112365039D02*
X197264889Y-112365039D01*
X197264889Y-112365039D02*
X198176828Y-111453100D01*
X186401661Y-112755039D02*
X197651661Y-112755039D01*
X197651661Y-112755039D02*
X198952600Y-111454100D01*
X198952600Y-111454100D02*
X198952600Y-111453100D01*
X185952600Y-113204100D02*
X186401661Y-112755039D01*
D36*
X216702600Y-94954100D02*
X216795306Y-95046806D01*
X216795306Y-95046806D02*
X226286034Y-95046806D01*
X226286034Y-95046806D02*
X227202600Y-94130240D01*
D37*
X226548682Y-198894100D02*
X226004100Y-198349518D01*
X226175983Y-179457281D02*
X226004100Y-179629164D01*
X229882600Y-195914100D02*
X229132600Y-196664100D01*
X228702600Y-198894100D02*
X226548682Y-198894100D01*
X210383769Y-134507806D02*
X210400879Y-134507806D01*
X229132600Y-198464100D02*
X228702600Y-198894100D01*
X229132600Y-196664100D02*
X229132600Y-197204100D01*
X226004100Y-178954440D02*
X226175983Y-179126323D01*
X226004100Y-198349518D02*
X226004100Y-198204100D01*
X226004100Y-179629164D02*
X226004100Y-198204100D01*
X210400879Y-134507806D02*
X226004100Y-150111027D01*
X229132600Y-197204100D02*
X229132600Y-198464100D01*
X226175983Y-179126323D02*
X226175983Y-179457281D01*
X226004100Y-150111027D02*
X226004100Y-178954440D01*
X226401100Y-149942341D02*
X226401100Y-178790026D01*
X226401100Y-179793578D02*
X226401100Y-198204100D01*
X228702600Y-196094100D02*
X228882600Y-195914100D01*
X210932729Y-134473971D02*
X226401100Y-149942341D01*
X228702600Y-198204100D02*
X228702600Y-196094100D01*
X226572963Y-178961889D02*
X226572962Y-179621716D01*
X226401100Y-198204100D02*
X226711100Y-198514100D01*
X226572962Y-179621716D02*
X226401100Y-179793578D01*
X228392600Y-198514100D02*
X228702600Y-198204100D01*
X226711100Y-198514100D02*
X228392600Y-198514100D01*
X226401100Y-178790026D02*
X226572963Y-178961889D01*
X210782730Y-132123970D02*
X214426309Y-135767550D01*
X228282100Y-183129602D02*
X228282100Y-196564600D01*
X214426309Y-135767550D02*
X214426309Y-135769671D01*
X227349740Y-182197242D02*
X228282100Y-183129602D01*
X227349740Y-148693102D02*
X227349740Y-182197242D01*
X228282100Y-196564600D02*
X227632600Y-197214100D01*
X214426309Y-135769671D02*
X227349740Y-148693102D01*
X210233770Y-132157806D02*
X210250879Y-132157806D01*
X224641316Y-146546122D02*
X224910998Y-146815804D01*
X226969760Y-150239836D02*
X226969760Y-182200636D01*
X227202600Y-196935398D02*
X227107599Y-197030399D01*
X225821372Y-148150442D02*
X225609239Y-148362574D01*
X227107599Y-197030399D02*
X227107599Y-197016259D01*
X214026309Y-135933236D02*
X214028430Y-135933236D01*
X224062470Y-146276440D02*
X224332152Y-146546122D01*
X226669899Y-148574705D02*
X226669900Y-148574706D01*
X226969760Y-148874566D02*
X226969760Y-150239836D01*
X226969760Y-182200636D02*
X227202600Y-182433476D01*
X214028430Y-135933236D02*
X224062470Y-145967276D01*
X210250879Y-132157806D02*
X214026309Y-135933236D01*
X226669900Y-148574706D02*
X226969760Y-148874566D01*
X227202600Y-182433476D02*
X227202600Y-196935398D01*
X224910998Y-146815804D02*
X225821372Y-147726178D01*
X226033503Y-148786838D02*
X226245635Y-148574705D01*
X225609239Y-148362574D02*
G75*
G03*
X225609245Y-148786832I212161J-212126D01*
G01*
X224332152Y-146546122D02*
G75*
G03*
X224486734Y-146546122I77291J77291D01*
G01*
X224062470Y-146121858D02*
G75*
G03*
X224062519Y-146276391I77330J-77242D01*
G01*
X225821372Y-147726178D02*
G75*
G02*
X225821362Y-148150432I-212172J-212122D01*
G01*
X225609239Y-148786838D02*
G75*
G03*
X226033503Y-148786838I212132J212132D01*
G01*
X226245635Y-148574705D02*
G75*
G02*
X226669899Y-148574705I212132J-212132D01*
G01*
X224062470Y-145967276D02*
G75*
G02*
X224062503Y-146121891I-77270J-77324D01*
G01*
X224486734Y-146546122D02*
G75*
G02*
X224641316Y-146546122I77291J-77291D01*
G01*
X223305115Y-149448477D02*
X210632730Y-136776092D01*
X223305115Y-190704100D02*
X223305115Y-149448477D01*
X223305115Y-191356615D02*
X223305115Y-190704100D01*
X210632730Y-136776092D02*
X210632730Y-136773970D01*
X225177600Y-193229100D02*
X223305115Y-191356615D01*
X225003240Y-193750734D02*
X224971536Y-193719030D01*
X223015444Y-149720250D02*
X210101977Y-136806783D01*
X224971536Y-193719030D02*
X224580847Y-193719030D01*
X224580847Y-193719030D02*
X223015444Y-192153627D01*
X223015444Y-192153627D02*
X223015444Y-149720250D01*
X210101977Y-136806783D02*
X210083707Y-136806783D01*
D36*
X241702600Y-91204100D02*
X239702600Y-89204100D01*
X235952600Y-110454100D02*
X241702600Y-104704100D01*
X241702600Y-104704100D02*
X241702600Y-91204100D01*
X235952600Y-107204100D02*
X236952600Y-107204100D01*
X236952600Y-107204100D02*
X241202600Y-102954100D01*
X241202600Y-102954100D02*
X241202600Y-92304100D01*
X241202600Y-92304100D02*
X240102600Y-91204100D01*
X240102600Y-91204100D02*
X239702600Y-91204100D01*
X198902597Y-102704100D02*
X195240857Y-102704100D01*
X193990857Y-103954100D02*
X175371058Y-103954100D01*
X175371058Y-103954100D02*
X174997058Y-104328100D01*
X198952600Y-102654097D02*
X198902597Y-102704100D01*
X195240857Y-102704100D02*
X193990857Y-103954100D01*
X195825560Y-103204100D02*
X194325560Y-104704100D01*
X198952600Y-103204100D02*
X195825560Y-103204100D01*
X194325560Y-104704100D02*
X176702600Y-104704100D01*
X232952600Y-93151142D02*
X232952600Y-91454100D01*
X233093600Y-93292142D02*
X232952600Y-93151142D01*
X233093600Y-94366058D02*
X233093600Y-94042142D01*
X233093600Y-94042142D02*
X232952600Y-93901142D01*
X232952600Y-94507058D02*
X233093600Y-94366058D01*
X232952600Y-102382290D02*
X232952600Y-94507058D01*
X232954025Y-102383714D02*
X232952600Y-102382290D01*
X232952600Y-93757058D02*
X233093600Y-93616058D01*
X232702600Y-91204100D02*
X179202600Y-91204100D01*
X232954025Y-107205525D02*
X232954025Y-102383714D01*
X233093600Y-93616058D02*
X233093600Y-93292142D01*
X232952600Y-93901142D02*
X232952600Y-93757058D01*
X173825341Y-85826841D02*
X128978048Y-85826841D01*
X233202600Y-107454100D02*
X232954025Y-107205525D01*
X128978048Y-85826841D02*
X128202600Y-85051393D01*
X232952600Y-91454100D02*
X232702600Y-91204100D01*
X179202600Y-91204100D02*
X173825341Y-85826841D01*
X229994364Y-114064127D02*
X221213250Y-114064127D01*
X147846969Y-159036572D02*
X145623441Y-161260100D01*
X193626600Y-141650777D02*
X193626600Y-152836836D01*
X187426864Y-159036572D02*
X147846969Y-159036572D01*
X221213250Y-114064127D02*
X193626600Y-141650777D01*
X234952600Y-100608429D02*
X234952600Y-109105891D01*
X234952600Y-109105891D02*
X229994364Y-114064127D01*
X193626600Y-152836836D02*
X187426864Y-159036572D01*
X233702600Y-98275393D02*
X233702600Y-99358429D01*
X136983600Y-161260100D02*
X136427600Y-160704100D01*
X145623441Y-161260100D02*
X136983600Y-161260100D01*
X233702600Y-99358429D02*
X234952600Y-100608429D01*
X173151208Y-86152708D02*
X128401208Y-86152708D01*
X179953600Y-92955100D02*
X173151208Y-86152708D01*
X230720564Y-93954100D02*
X229721564Y-92955100D01*
X122552600Y-80304100D02*
X121252600Y-80304100D01*
X232702600Y-94204100D02*
X232452600Y-93954100D01*
X128401208Y-86152708D02*
X122552600Y-80304100D01*
X229721564Y-92955100D02*
X179953600Y-92955100D01*
X232452600Y-93954100D02*
X230720564Y-93954100D01*
X227952600Y-182319420D02*
X230528891Y-184895711D01*
X230528891Y-184895711D02*
X230528891Y-185895711D01*
X211741308Y-126665392D02*
X227952600Y-142876684D01*
X227952600Y-142876684D02*
X227952600Y-182319420D01*
X230202600Y-143887308D02*
X211862151Y-125546859D01*
X230202600Y-168679102D02*
X230202600Y-143887308D01*
X211862151Y-125546859D02*
X211837425Y-125546859D01*
D37*
X231202600Y-143973092D02*
X213068104Y-125838596D01*
X231202600Y-167704100D02*
X231202600Y-143973092D01*
D36*
X198447964Y-110954100D02*
X197452600Y-110954100D01*
X199702600Y-110704100D02*
X198697964Y-110704100D01*
X131378600Y-142380100D02*
X127702600Y-138704100D01*
X222568891Y-188954100D02*
X222452600Y-188837809D01*
X166379055Y-142380100D02*
X131378600Y-142380100D01*
X198697964Y-110704100D02*
X198447964Y-110954100D01*
X127702600Y-122704100D02*
X127977600Y-122429100D01*
X166628600Y-139278100D02*
X166628600Y-142130555D01*
X197452600Y-110954100D02*
X197202601Y-111204099D01*
X127977600Y-122429100D02*
X128802600Y-122429100D01*
X197202601Y-111204099D02*
X185202600Y-111204099D01*
X173202600Y-132704100D02*
X166628600Y-139278100D01*
X185202600Y-111204099D02*
X173202600Y-123204099D01*
X166628600Y-142130555D02*
X166379055Y-142380100D01*
X127702600Y-138704100D02*
X127702600Y-122704100D01*
X222452600Y-188837809D02*
X222452600Y-149954100D01*
X222452600Y-149954100D02*
X209202600Y-136704100D01*
X173202600Y-123204099D02*
X173202600Y-132704100D01*
X197352600Y-184091600D02*
X197315100Y-184091600D01*
X197202600Y-184204100D02*
X197202600Y-186704100D01*
X197315100Y-184091600D02*
X197202600Y-184204100D01*
X160907251Y-187145942D02*
X193648258Y-187145942D01*
X193648258Y-187145942D02*
X196702600Y-184091600D01*
X159478891Y-188574302D02*
X160907251Y-187145942D01*
X198702600Y-184254100D02*
X198702600Y-186694100D01*
X198652600Y-184204100D02*
X198702600Y-184254100D01*
X168342600Y-187404100D02*
X167202600Y-188544100D01*
X197364558Y-187095100D02*
X198002600Y-186457058D01*
X195234200Y-187404100D02*
X168342600Y-187404100D01*
X195543200Y-187095100D02*
X197364558Y-187095100D01*
X198002600Y-186457058D02*
X198002600Y-184091600D01*
X195234200Y-187404100D02*
X195543200Y-187095100D01*
X174952600Y-186034100D02*
X176182600Y-184804100D01*
X192700600Y-184804100D02*
X197529100Y-179975600D01*
X198814558Y-179975600D02*
X199540100Y-180701142D01*
X197529100Y-179975600D02*
X198814558Y-179975600D01*
X199540100Y-180701142D02*
X199540100Y-182554100D01*
X176182600Y-184804100D02*
X192700600Y-184804100D01*
X199540100Y-183204100D02*
X199540100Y-188366600D01*
X199540100Y-188366600D02*
X198192998Y-189713702D01*
X176092202Y-189713702D02*
X174952600Y-188574100D01*
X198192998Y-189713702D02*
X176092202Y-189713702D01*
X199093600Y-180807600D02*
X199093600Y-187876058D01*
X198652600Y-180366600D02*
X199093600Y-180807600D01*
X199093600Y-187876058D02*
X198345558Y-188624100D01*
X198345558Y-188624100D02*
X182802600Y-188624100D01*
X122452600Y-96704100D02*
X123202600Y-95954100D01*
X123202600Y-95954100D02*
X123202600Y-95204100D01*
D38*
X123621964Y-86427700D02*
X126886664Y-86427700D01*
X123195800Y-88363192D02*
X123195800Y-86853864D01*
X127452600Y-86993636D02*
X127452600Y-89228600D01*
X123663807Y-88831199D02*
X123195800Y-88363192D01*
X123195800Y-86853864D02*
X123621964Y-86427700D01*
X126886664Y-86427700D02*
X127452600Y-86993636D01*
X124819999Y-88831199D02*
X123663807Y-88831199D01*
X127452600Y-89228600D02*
X125600000Y-91081200D01*
X135345864Y-86427700D02*
X135694700Y-86776536D01*
X131893608Y-86427700D02*
X135345864Y-86427700D01*
X132123007Y-88831199D02*
X131655000Y-88363192D01*
X133279199Y-88831199D02*
X132123007Y-88831199D01*
X135694700Y-89445700D02*
X134059200Y-91081200D01*
X131655000Y-86666308D02*
X131893608Y-86427700D01*
X131655000Y-88363192D02*
X131655000Y-86666308D01*
X135694700Y-86776536D02*
X135694700Y-89445700D01*
X141136607Y-88831199D02*
X140668600Y-88363192D01*
X144359464Y-86427700D02*
X144708300Y-86776536D01*
X140668600Y-86853864D02*
X141094764Y-86427700D01*
X144708300Y-89445700D02*
X143072800Y-91081200D01*
X144708300Y-86776536D02*
X144708300Y-89445700D01*
X142292799Y-88831199D02*
X141136607Y-88831199D01*
X140668600Y-88363192D02*
X140668600Y-86853864D01*
X141094764Y-86427700D02*
X144359464Y-86427700D01*
D39*
X153208200Y-86770944D02*
X153208200Y-89432200D01*
X153208200Y-89432200D02*
X151559200Y-91081200D01*
X148952600Y-86704100D02*
X149274492Y-86382208D01*
X149603915Y-88831199D02*
X148952600Y-88179884D01*
X152819464Y-86382208D02*
X153208200Y-86770944D01*
X148952600Y-88179884D02*
X148952600Y-86704100D01*
X150779199Y-88831199D02*
X149603915Y-88831199D01*
X149274492Y-86382208D02*
X152819464Y-86382208D01*
D40*
X167452600Y-108504100D02*
X160952600Y-108504100D01*
D36*
X193631763Y-182204100D02*
X193702600Y-182204100D01*
X165952600Y-177842600D02*
X189270263Y-177842600D01*
X178085100Y-95821600D02*
X177452600Y-96454100D01*
X193072100Y-182042763D02*
X189233437Y-178204100D01*
X193072100Y-182073600D02*
X193072100Y-182042763D01*
X232081056Y-106204100D02*
X232327600Y-106450644D01*
X162202600Y-111204100D02*
X160813100Y-112593600D01*
X193202600Y-182204100D02*
X193072100Y-182073600D01*
X189270263Y-177842600D02*
X193631763Y-182204100D01*
X156202600Y-128704100D02*
X166202600Y-138704100D01*
X167726689Y-109253289D02*
X164953411Y-109253289D01*
X160813100Y-112593600D02*
X160813100Y-124093600D01*
X164953411Y-109253289D02*
X163002600Y-111204100D01*
X217465378Y-95814600D02*
X217458377Y-95821600D01*
X166202600Y-138704100D02*
X166202600Y-141954100D01*
X163002600Y-111204100D02*
X162202600Y-111204100D01*
X177452600Y-96454100D02*
X177452600Y-99527378D01*
X160813100Y-124093600D02*
X156202600Y-128704100D01*
X221952600Y-96704100D02*
X221063100Y-95814600D01*
X226002600Y-106204100D02*
X232081056Y-106204100D01*
X221063100Y-95814600D02*
X217465378Y-95814600D01*
X217458377Y-95821600D02*
X178085100Y-95821600D01*
X189233437Y-178204100D02*
X164452600Y-178204100D01*
X177452600Y-99527378D02*
X167726689Y-109253289D01*
X193702600Y-182204100D02*
X193202600Y-182204100D01*
X193452600Y-176954100D02*
X194452600Y-177954100D01*
X176952600Y-96304101D02*
X176952600Y-99557058D01*
X159323880Y-124734655D02*
X153136544Y-130921991D01*
X165702600Y-176954100D02*
X193452600Y-176954100D01*
X156083316Y-129907490D02*
X154151045Y-129907490D01*
X165452600Y-139276774D02*
X156083316Y-129907490D01*
X193432601Y-180704100D02*
X193702600Y-180704100D01*
X194452600Y-177954100D02*
X194452600Y-179954100D01*
X165452600Y-141834925D02*
X165452600Y-139276774D01*
X165452600Y-176704100D02*
X165702600Y-176954100D01*
X163852602Y-108954100D02*
X161552601Y-111254101D01*
X177802601Y-95454100D02*
X177452600Y-95804101D01*
X190180101Y-177451600D02*
X193432601Y-180704100D01*
X165790642Y-177451600D02*
X190180101Y-177451600D01*
X221702600Y-95454100D02*
X177802601Y-95454100D01*
X177452600Y-95804101D02*
X176952600Y-96304101D01*
X154151045Y-129907490D02*
X153136544Y-130921991D01*
X194452600Y-179954100D02*
X193702600Y-180704100D01*
X159323880Y-113482822D02*
X159323880Y-124734655D01*
X176952600Y-99557058D02*
X167555558Y-108954100D01*
X193702600Y-180704100D02*
X193452600Y-180704100D01*
X164452600Y-177454100D02*
X165788142Y-177454100D01*
X167555558Y-108954100D02*
X163852602Y-108954100D01*
X161552601Y-111254101D02*
X159323880Y-113482822D01*
X222702600Y-96454100D02*
X221702600Y-95454100D01*
X165788142Y-177454100D02*
X165790642Y-177451600D01*
X181962600Y-150704100D02*
X182202600Y-150704100D01*
X144602600Y-101375033D02*
X144054667Y-100827100D01*
X144723300Y-91570324D02*
X144723300Y-97983400D01*
X144102600Y-107604100D02*
X144102600Y-101622612D01*
D39*
X140643800Y-91380199D02*
X142292799Y-89731200D01*
D41*
X143476269Y-111254100D02*
X148238600Y-106491769D01*
D36*
X144602600Y-104554100D02*
X144602600Y-101375033D01*
X149036338Y-112931490D02*
X148142600Y-113825228D01*
X148142600Y-116014100D02*
X147102600Y-117054100D01*
D35*
X118702600Y-90704100D02*
X118702600Y-88416600D01*
D39*
X142702600Y-98204100D02*
X140643800Y-96145300D01*
D41*
X141052600Y-113054100D02*
X142852600Y-111254100D01*
D36*
X141352600Y-99854100D02*
X141779701Y-100281201D01*
D41*
X142852600Y-111254100D02*
X143476269Y-111254100D01*
D36*
X136861995Y-101181819D02*
X126761376Y-91081200D01*
D35*
X121952600Y-93954100D02*
X118702600Y-90704100D01*
D39*
X140643800Y-96145300D02*
X140643800Y-91380199D01*
D36*
X141321487Y-100827100D02*
X138202600Y-97708213D01*
X144102600Y-101622612D02*
X143661807Y-101181819D01*
X126761376Y-91081200D02*
X125600000Y-91081200D01*
D41*
X137352600Y-111054100D02*
X137352600Y-113054100D01*
D36*
X144723300Y-97983400D02*
X142852600Y-99854100D01*
X138202600Y-94063224D02*
X135220576Y-91081200D01*
D41*
X148238600Y-106491769D02*
X148238600Y-102804100D01*
D36*
X141779701Y-100281201D02*
X143849577Y-100281201D01*
X148142600Y-113954100D02*
X148142600Y-116014100D01*
X145602600Y-104804100D02*
X145352600Y-104554100D01*
X144054667Y-100827100D02*
X141321487Y-100827100D01*
X145352600Y-104554100D02*
X144602600Y-104554100D01*
X149036338Y-112665664D02*
X149036338Y-112931490D01*
X143661807Y-101181819D02*
X136861995Y-101181819D01*
X145302600Y-108804100D02*
X144102600Y-107604100D01*
X145302600Y-101734224D02*
X145302600Y-103304100D01*
X138202600Y-97708213D02*
X138202600Y-94063224D01*
X135220576Y-91081200D02*
X134059200Y-91081200D01*
X144234176Y-91081200D02*
X144723300Y-91570324D01*
X143072800Y-91081200D02*
X144234176Y-91081200D01*
D41*
X137352600Y-113054100D02*
X141052600Y-113054100D01*
D36*
X143849577Y-100281201D02*
X145302600Y-101734224D01*
X148142600Y-113825228D02*
X148142600Y-113954100D01*
G04 #@! TA.AperFunction,Conductor*
G36*
X155145639Y-133623785D02*
G01*
X155191394Y-133676589D01*
X155202600Y-133728100D01*
X155202600Y-134547348D01*
X155182915Y-134614387D01*
X155159649Y-134641194D01*
X154667378Y-135066337D01*
X154603775Y-135095258D01*
X154586329Y-135096491D01*
X154574935Y-135096491D01*
X154454101Y-135120526D01*
X154454091Y-135120529D01*
X154340262Y-135167678D01*
X154340253Y-135167683D01*
X154237813Y-135236132D01*
X154237809Y-135236135D01*
X154150690Y-135323254D01*
X154150687Y-135323258D01*
X154082238Y-135425698D01*
X154082233Y-135425707D01*
X154035083Y-135539538D01*
X154035081Y-135539545D01*
X154025896Y-135585724D01*
X153993512Y-135647635D01*
X153985328Y-135655379D01*
X150802600Y-138404099D01*
X150802600Y-141790600D01*
X150782915Y-141857639D01*
X150730111Y-141903394D01*
X150678600Y-141914600D01*
X138526600Y-141914600D01*
X138459561Y-141894915D01*
X138413806Y-141842111D01*
X138402600Y-141790600D01*
X138402600Y-135128100D01*
X138422285Y-135061061D01*
X138475089Y-135015306D01*
X138526600Y-135004100D01*
X150202600Y-135004100D01*
X150590323Y-134616376D01*
X150617776Y-134595668D01*
X150956167Y-134407673D01*
X151024324Y-134392325D01*
X151085272Y-134412969D01*
X151090259Y-134416301D01*
X151204093Y-134463453D01*
X151324934Y-134487489D01*
X151324938Y-134487490D01*
X151324939Y-134487490D01*
X151448152Y-134487490D01*
X151448153Y-134487489D01*
X151568997Y-134463453D01*
X151682831Y-134416301D01*
X151785278Y-134347848D01*
X151872403Y-134260723D01*
X151940856Y-134158276D01*
X151988008Y-134044442D01*
X152012045Y-133923596D01*
X152012045Y-133894037D01*
X152031730Y-133826998D01*
X152075823Y-133785642D01*
X152374513Y-133619704D01*
X152434733Y-133604100D01*
X155078600Y-133604100D01*
X155145639Y-133623785D01*
G37*
G04 #@! TD.AperFunction*
G04 #@! TA.AperFunction,Conductor*
G36*
X168073252Y-109662867D02*
G01*
X168075030Y-109664157D01*
X168139249Y-109711623D01*
X173152305Y-113416925D01*
X173194516Y-113472602D01*
X173202600Y-113516642D01*
X173202600Y-122508563D01*
X173182915Y-122575602D01*
X173166281Y-122596244D01*
X172844744Y-122917781D01*
X172783421Y-122951266D01*
X172757063Y-122954100D01*
X169050543Y-122954100D01*
X168983504Y-122934415D01*
X168937749Y-122881611D01*
X168929915Y-122858821D01*
X168130780Y-119502459D01*
X166452600Y-112454100D01*
X166452599Y-112454100D01*
X164837301Y-112454100D01*
X164770262Y-112434415D01*
X164768410Y-112433202D01*
X164739155Y-112413654D01*
X164739146Y-112413649D01*
X164627135Y-112367253D01*
X164627127Y-112367251D01*
X164508225Y-112343600D01*
X164508221Y-112343600D01*
X164386979Y-112343600D01*
X164350789Y-112350798D01*
X164281198Y-112344569D01*
X164226021Y-112301705D01*
X164202778Y-112235815D01*
X164202600Y-112229180D01*
X164202600Y-110699636D01*
X164222285Y-110632597D01*
X164238916Y-110611957D01*
X165105767Y-109745108D01*
X165167090Y-109711623D01*
X165193448Y-109708789D01*
X165614281Y-109708789D01*
X165681320Y-109728474D01*
X165727075Y-109781278D01*
X165734505Y-109809024D01*
X165735912Y-109808745D01*
X165760752Y-109933626D01*
X165760754Y-109933634D01*
X165807150Y-110045645D01*
X165874510Y-110146456D01*
X165874513Y-110146460D01*
X165960239Y-110232186D01*
X165960243Y-110232189D01*
X166061052Y-110299548D01*
X166173066Y-110345946D01*
X166291975Y-110369598D01*
X166291979Y-110369599D01*
X166291980Y-110369599D01*
X166413223Y-110369599D01*
X166413224Y-110369598D01*
X166532136Y-110345946D01*
X166644150Y-110299548D01*
X166744959Y-110232189D01*
X166830691Y-110146457D01*
X166898050Y-110045648D01*
X166944448Y-109933634D01*
X166968101Y-109814720D01*
X166969290Y-109808745D01*
X166972166Y-109809317D01*
X166993431Y-109756161D01*
X167050336Y-109715619D01*
X167090921Y-109708789D01*
X167786655Y-109708789D01*
X167786657Y-109708789D01*
X167902505Y-109677747D01*
X167939328Y-109656487D01*
X168007225Y-109640015D01*
X168073252Y-109662867D01*
G37*
G04 #@! TD.AperFunction*
M02*
