%TF.GenerationSoftware,KiCad,Pcbnew,9.0.3*%
%TF.CreationDate,2025-08-24T22:17:20-04:00*%
%TF.ProjectId,libreboard,6c696272-6562-46f6-9172-642e6b696361,rev?*%
%TF.SameCoordinates,Original*%
%TF.FileFunction,Legend,Bot*%
%TF.FilePolarity,Positive*%
%FSLAX46Y46*%
G04 Gerber Fmt 4.6, Leading zero omitted, Abs format (unit mm)*
G04 Created by KiCad (PCBNEW 9.0.3) date 2025-08-24 22:17:20*
%MOMM*%
%LPD*%
G01*
G04 APERTURE LIST*
%ADD10C,0.152400*%
%ADD11C,0.127000*%
%ADD12C,0.150000*%
%ADD13C,0.508000*%
%ADD14C,0.120000*%
G04 APERTURE END LIST*
D10*
X189308319Y-96344565D02*
X188727747Y-96344565D01*
X189018033Y-97360565D02*
X189018033Y-96344565D01*
X188389081Y-97360565D02*
X188389081Y-96344565D01*
X188389081Y-96344565D02*
X188002033Y-96344565D01*
X188002033Y-96344565D02*
X187905271Y-96392946D01*
X187905271Y-96392946D02*
X187856890Y-96441327D01*
X187856890Y-96441327D02*
X187808509Y-96538089D01*
X187808509Y-96538089D02*
X187808509Y-96683232D01*
X187808509Y-96683232D02*
X187856890Y-96779994D01*
X187856890Y-96779994D02*
X187905271Y-96828375D01*
X187905271Y-96828375D02*
X188002033Y-96876756D01*
X188002033Y-96876756D02*
X188389081Y-96876756D01*
X187421462Y-97312185D02*
X187276319Y-97360565D01*
X187276319Y-97360565D02*
X187034414Y-97360565D01*
X187034414Y-97360565D02*
X186937652Y-97312185D01*
X186937652Y-97312185D02*
X186889271Y-97263804D01*
X186889271Y-97263804D02*
X186840890Y-97167042D01*
X186840890Y-97167042D02*
X186840890Y-97070280D01*
X186840890Y-97070280D02*
X186889271Y-96973518D01*
X186889271Y-96973518D02*
X186937652Y-96925137D01*
X186937652Y-96925137D02*
X187034414Y-96876756D01*
X187034414Y-96876756D02*
X187227938Y-96828375D01*
X187227938Y-96828375D02*
X187324700Y-96779994D01*
X187324700Y-96779994D02*
X187373081Y-96731613D01*
X187373081Y-96731613D02*
X187421462Y-96634851D01*
X187421462Y-96634851D02*
X187421462Y-96538089D01*
X187421462Y-96538089D02*
X187373081Y-96441327D01*
X187373081Y-96441327D02*
X187324700Y-96392946D01*
X187324700Y-96392946D02*
X187227938Y-96344565D01*
X187227938Y-96344565D02*
X186986033Y-96344565D01*
X186986033Y-96344565D02*
X186840890Y-96392946D01*
X185921652Y-96344565D02*
X186405462Y-96344565D01*
X186405462Y-96344565D02*
X186453843Y-96828375D01*
X186453843Y-96828375D02*
X186405462Y-96779994D01*
X186405462Y-96779994D02*
X186308700Y-96731613D01*
X186308700Y-96731613D02*
X186066795Y-96731613D01*
X186066795Y-96731613D02*
X185970033Y-96779994D01*
X185970033Y-96779994D02*
X185921652Y-96828375D01*
X185921652Y-96828375D02*
X185873271Y-96925137D01*
X185873271Y-96925137D02*
X185873271Y-97167042D01*
X185873271Y-97167042D02*
X185921652Y-97263804D01*
X185921652Y-97263804D02*
X185970033Y-97312185D01*
X185970033Y-97312185D02*
X186066795Y-97360565D01*
X186066795Y-97360565D02*
X186308700Y-97360565D01*
X186308700Y-97360565D02*
X186405462Y-97312185D01*
X186405462Y-97312185D02*
X186453843Y-97263804D01*
X185002414Y-96683232D02*
X185002414Y-97360565D01*
X185244319Y-96296185D02*
X185486224Y-97021899D01*
X185486224Y-97021899D02*
X184857271Y-97021899D01*
X183986414Y-96344565D02*
X184470224Y-96344565D01*
X184470224Y-96344565D02*
X184518605Y-96828375D01*
X184518605Y-96828375D02*
X184470224Y-96779994D01*
X184470224Y-96779994D02*
X184373462Y-96731613D01*
X184373462Y-96731613D02*
X184131557Y-96731613D01*
X184131557Y-96731613D02*
X184034795Y-96779994D01*
X184034795Y-96779994D02*
X183986414Y-96828375D01*
X183986414Y-96828375D02*
X183938033Y-96925137D01*
X183938033Y-96925137D02*
X183938033Y-97167042D01*
X183938033Y-97167042D02*
X183986414Y-97263804D01*
X183986414Y-97263804D02*
X184034795Y-97312185D01*
X184034795Y-97312185D02*
X184131557Y-97360565D01*
X184131557Y-97360565D02*
X184373462Y-97360565D01*
X184373462Y-97360565D02*
X184470224Y-97312185D01*
X184470224Y-97312185D02*
X184518605Y-97263804D01*
X183599367Y-96344565D02*
X182970414Y-96344565D01*
X182970414Y-96344565D02*
X183309081Y-96731613D01*
X183309081Y-96731613D02*
X183163938Y-96731613D01*
X183163938Y-96731613D02*
X183067176Y-96779994D01*
X183067176Y-96779994D02*
X183018795Y-96828375D01*
X183018795Y-96828375D02*
X182970414Y-96925137D01*
X182970414Y-96925137D02*
X182970414Y-97167042D01*
X182970414Y-97167042D02*
X183018795Y-97263804D01*
X183018795Y-97263804D02*
X183067176Y-97312185D01*
X183067176Y-97312185D02*
X183163938Y-97360565D01*
X183163938Y-97360565D02*
X183454224Y-97360565D01*
X183454224Y-97360565D02*
X183550986Y-97312185D01*
X183550986Y-97312185D02*
X183599367Y-97263804D01*
X182002795Y-97360565D02*
X182583367Y-97360565D01*
X182293081Y-97360565D02*
X182293081Y-96344565D01*
X182293081Y-96344565D02*
X182389843Y-96489708D01*
X182389843Y-96489708D02*
X182486605Y-96586470D01*
X182486605Y-96586470D02*
X182583367Y-96634851D01*
X181809272Y-97457327D02*
X181035176Y-97457327D01*
X180938415Y-96344565D02*
X180599748Y-97360565D01*
X180599748Y-97360565D02*
X180261081Y-96344565D01*
X180019177Y-96344565D02*
X179390224Y-96344565D01*
X179390224Y-96344565D02*
X179728891Y-96731613D01*
X179728891Y-96731613D02*
X179583748Y-96731613D01*
X179583748Y-96731613D02*
X179486986Y-96779994D01*
X179486986Y-96779994D02*
X179438605Y-96828375D01*
X179438605Y-96828375D02*
X179390224Y-96925137D01*
X179390224Y-96925137D02*
X179390224Y-97167042D01*
X179390224Y-97167042D02*
X179438605Y-97263804D01*
X179438605Y-97263804D02*
X179486986Y-97312185D01*
X179486986Y-97312185D02*
X179583748Y-97360565D01*
X179583748Y-97360565D02*
X179874034Y-97360565D01*
X179874034Y-97360565D02*
X179970796Y-97312185D01*
X179970796Y-97312185D02*
X180019177Y-97263804D01*
X175168985Y-94318576D02*
X175265747Y-94270195D01*
X175265747Y-94270195D02*
X175410890Y-94270195D01*
X175410890Y-94270195D02*
X175556033Y-94318576D01*
X175556033Y-94318576D02*
X175652795Y-94415338D01*
X175652795Y-94415338D02*
X175701176Y-94512100D01*
X175701176Y-94512100D02*
X175749557Y-94705624D01*
X175749557Y-94705624D02*
X175749557Y-94850767D01*
X175749557Y-94850767D02*
X175701176Y-95044291D01*
X175701176Y-95044291D02*
X175652795Y-95141053D01*
X175652795Y-95141053D02*
X175556033Y-95237815D01*
X175556033Y-95237815D02*
X175410890Y-95286195D01*
X175410890Y-95286195D02*
X175314128Y-95286195D01*
X175314128Y-95286195D02*
X175168985Y-95237815D01*
X175168985Y-95237815D02*
X175120604Y-95189434D01*
X175120604Y-95189434D02*
X175120604Y-94850767D01*
X175120604Y-94850767D02*
X175314128Y-94850767D01*
X174685176Y-95286195D02*
X174685176Y-94270195D01*
X174685176Y-94270195D02*
X174104604Y-95286195D01*
X174104604Y-95286195D02*
X174104604Y-94270195D01*
X173620795Y-95286195D02*
X173620795Y-94270195D01*
X173620795Y-94270195D02*
X173378890Y-94270195D01*
X173378890Y-94270195D02*
X173233747Y-94318576D01*
X173233747Y-94318576D02*
X173136985Y-94415338D01*
X173136985Y-94415338D02*
X173088604Y-94512100D01*
X173088604Y-94512100D02*
X173040223Y-94705624D01*
X173040223Y-94705624D02*
X173040223Y-94850767D01*
X173040223Y-94850767D02*
X173088604Y-95044291D01*
X173088604Y-95044291D02*
X173136985Y-95141053D01*
X173136985Y-95141053D02*
X173233747Y-95237815D01*
X173233747Y-95237815D02*
X173378890Y-95286195D01*
X173378890Y-95286195D02*
X173620795Y-95286195D01*
D11*
X189116010Y-98571901D02*
X189007153Y-98608187D01*
X189007153Y-98608187D02*
X188970867Y-98644473D01*
X188970867Y-98644473D02*
X188934581Y-98717044D01*
X188934581Y-98717044D02*
X188934581Y-98825901D01*
X188934581Y-98825901D02*
X188970867Y-98898473D01*
X188970867Y-98898473D02*
X189007153Y-98934759D01*
X189007153Y-98934759D02*
X189079724Y-98971044D01*
X189079724Y-98971044D02*
X189370010Y-98971044D01*
X189370010Y-98971044D02*
X189370010Y-98209044D01*
X189370010Y-98209044D02*
X189116010Y-98209044D01*
X189116010Y-98209044D02*
X189043439Y-98245330D01*
X189043439Y-98245330D02*
X189007153Y-98281616D01*
X189007153Y-98281616D02*
X188970867Y-98354187D01*
X188970867Y-98354187D02*
X188970867Y-98426759D01*
X188970867Y-98426759D02*
X189007153Y-98499330D01*
X189007153Y-98499330D02*
X189043439Y-98535616D01*
X189043439Y-98535616D02*
X189116010Y-98571901D01*
X189116010Y-98571901D02*
X189370010Y-98571901D01*
X188462867Y-98608187D02*
X188462867Y-98971044D01*
X188716867Y-98209044D02*
X188462867Y-98608187D01*
X188462867Y-98608187D02*
X188208867Y-98209044D01*
X187374296Y-98971044D02*
X187374296Y-98209044D01*
X187374296Y-98209044D02*
X187084010Y-98209044D01*
X187084010Y-98209044D02*
X187011439Y-98245330D01*
X187011439Y-98245330D02*
X186975153Y-98281616D01*
X186975153Y-98281616D02*
X186938867Y-98354187D01*
X186938867Y-98354187D02*
X186938867Y-98463044D01*
X186938867Y-98463044D02*
X186975153Y-98535616D01*
X186975153Y-98535616D02*
X187011439Y-98571901D01*
X187011439Y-98571901D02*
X187084010Y-98608187D01*
X187084010Y-98608187D02*
X187374296Y-98608187D01*
X186467153Y-98209044D02*
X186322010Y-98209044D01*
X186322010Y-98209044D02*
X186249439Y-98245330D01*
X186249439Y-98245330D02*
X186176867Y-98317901D01*
X186176867Y-98317901D02*
X186140582Y-98463044D01*
X186140582Y-98463044D02*
X186140582Y-98717044D01*
X186140582Y-98717044D02*
X186176867Y-98862187D01*
X186176867Y-98862187D02*
X186249439Y-98934759D01*
X186249439Y-98934759D02*
X186322010Y-98971044D01*
X186322010Y-98971044D02*
X186467153Y-98971044D01*
X186467153Y-98971044D02*
X186539725Y-98934759D01*
X186539725Y-98934759D02*
X186612296Y-98862187D01*
X186612296Y-98862187D02*
X186648582Y-98717044D01*
X186648582Y-98717044D02*
X186648582Y-98463044D01*
X186648582Y-98463044D02*
X186612296Y-98317901D01*
X186612296Y-98317901D02*
X186539725Y-98245330D01*
X186539725Y-98245330D02*
X186467153Y-98209044D01*
X185886581Y-98209044D02*
X185705153Y-98971044D01*
X185705153Y-98971044D02*
X185560010Y-98426759D01*
X185560010Y-98426759D02*
X185414867Y-98971044D01*
X185414867Y-98971044D02*
X185233439Y-98209044D01*
X184943153Y-98571901D02*
X184689153Y-98571901D01*
X184580296Y-98971044D02*
X184943153Y-98971044D01*
X184943153Y-98971044D02*
X184943153Y-98209044D01*
X184943153Y-98209044D02*
X184580296Y-98209044D01*
X183818295Y-98971044D02*
X184072295Y-98608187D01*
X184253724Y-98971044D02*
X184253724Y-98209044D01*
X184253724Y-98209044D02*
X183963438Y-98209044D01*
X183963438Y-98209044D02*
X183890867Y-98245330D01*
X183890867Y-98245330D02*
X183854581Y-98281616D01*
X183854581Y-98281616D02*
X183818295Y-98354187D01*
X183818295Y-98354187D02*
X183818295Y-98463044D01*
X183818295Y-98463044D02*
X183854581Y-98535616D01*
X183854581Y-98535616D02*
X183890867Y-98571901D01*
X183890867Y-98571901D02*
X183963438Y-98608187D01*
X183963438Y-98608187D02*
X184253724Y-98608187D01*
D10*
X174738699Y-100366195D02*
X174109746Y-100366195D01*
X174109746Y-100366195D02*
X174448413Y-100753243D01*
X174448413Y-100753243D02*
X174303270Y-100753243D01*
X174303270Y-100753243D02*
X174206508Y-100801624D01*
X174206508Y-100801624D02*
X174158127Y-100850005D01*
X174158127Y-100850005D02*
X174109746Y-100946767D01*
X174109746Y-100946767D02*
X174109746Y-101188672D01*
X174109746Y-101188672D02*
X174158127Y-101285434D01*
X174158127Y-101285434D02*
X174206508Y-101333815D01*
X174206508Y-101333815D02*
X174303270Y-101382195D01*
X174303270Y-101382195D02*
X174593556Y-101382195D01*
X174593556Y-101382195D02*
X174690318Y-101333815D01*
X174690318Y-101333815D02*
X174738699Y-101285434D01*
X173674318Y-101285434D02*
X173625937Y-101333815D01*
X173625937Y-101333815D02*
X173674318Y-101382195D01*
X173674318Y-101382195D02*
X173722699Y-101333815D01*
X173722699Y-101333815D02*
X173674318Y-101285434D01*
X173674318Y-101285434D02*
X173674318Y-101382195D01*
X172706698Y-100366195D02*
X173190508Y-100366195D01*
X173190508Y-100366195D02*
X173238889Y-100850005D01*
X173238889Y-100850005D02*
X173190508Y-100801624D01*
X173190508Y-100801624D02*
X173093746Y-100753243D01*
X173093746Y-100753243D02*
X172851841Y-100753243D01*
X172851841Y-100753243D02*
X172755079Y-100801624D01*
X172755079Y-100801624D02*
X172706698Y-100850005D01*
X172706698Y-100850005D02*
X172658317Y-100946767D01*
X172658317Y-100946767D02*
X172658317Y-101188672D01*
X172658317Y-101188672D02*
X172706698Y-101285434D01*
X172706698Y-101285434D02*
X172755079Y-101333815D01*
X172755079Y-101333815D02*
X172851841Y-101382195D01*
X172851841Y-101382195D02*
X173093746Y-101382195D01*
X173093746Y-101382195D02*
X173190508Y-101333815D01*
X173190508Y-101333815D02*
X173238889Y-101285434D01*
X172222889Y-100995148D02*
X171448794Y-100995148D01*
X171013365Y-100462957D02*
X170964984Y-100414576D01*
X170964984Y-100414576D02*
X170868222Y-100366195D01*
X170868222Y-100366195D02*
X170626317Y-100366195D01*
X170626317Y-100366195D02*
X170529555Y-100414576D01*
X170529555Y-100414576D02*
X170481174Y-100462957D01*
X170481174Y-100462957D02*
X170432793Y-100559719D01*
X170432793Y-100559719D02*
X170432793Y-100656481D01*
X170432793Y-100656481D02*
X170481174Y-100801624D01*
X170481174Y-100801624D02*
X171061746Y-101382195D01*
X171061746Y-101382195D02*
X170432793Y-101382195D01*
X169852222Y-100801624D02*
X169948984Y-100753243D01*
X169948984Y-100753243D02*
X169997365Y-100704862D01*
X169997365Y-100704862D02*
X170045746Y-100608100D01*
X170045746Y-100608100D02*
X170045746Y-100559719D01*
X170045746Y-100559719D02*
X169997365Y-100462957D01*
X169997365Y-100462957D02*
X169948984Y-100414576D01*
X169948984Y-100414576D02*
X169852222Y-100366195D01*
X169852222Y-100366195D02*
X169658698Y-100366195D01*
X169658698Y-100366195D02*
X169561936Y-100414576D01*
X169561936Y-100414576D02*
X169513555Y-100462957D01*
X169513555Y-100462957D02*
X169465174Y-100559719D01*
X169465174Y-100559719D02*
X169465174Y-100608100D01*
X169465174Y-100608100D02*
X169513555Y-100704862D01*
X169513555Y-100704862D02*
X169561936Y-100753243D01*
X169561936Y-100753243D02*
X169658698Y-100801624D01*
X169658698Y-100801624D02*
X169852222Y-100801624D01*
X169852222Y-100801624D02*
X169948984Y-100850005D01*
X169948984Y-100850005D02*
X169997365Y-100898386D01*
X169997365Y-100898386D02*
X170045746Y-100995148D01*
X170045746Y-100995148D02*
X170045746Y-101188672D01*
X170045746Y-101188672D02*
X169997365Y-101285434D01*
X169997365Y-101285434D02*
X169948984Y-101333815D01*
X169948984Y-101333815D02*
X169852222Y-101382195D01*
X169852222Y-101382195D02*
X169658698Y-101382195D01*
X169658698Y-101382195D02*
X169561936Y-101333815D01*
X169561936Y-101333815D02*
X169513555Y-101285434D01*
X169513555Y-101285434D02*
X169465174Y-101188672D01*
X169465174Y-101188672D02*
X169465174Y-100995148D01*
X169465174Y-100995148D02*
X169513555Y-100898386D01*
X169513555Y-100898386D02*
X169561936Y-100850005D01*
X169561936Y-100850005D02*
X169658698Y-100801624D01*
X169174889Y-100366195D02*
X168836222Y-101382195D01*
X168836222Y-101382195D02*
X168497555Y-100366195D01*
X179794497Y-88724565D02*
X180278307Y-88724565D01*
X180278307Y-88724565D02*
X180326688Y-89208375D01*
X180326688Y-89208375D02*
X180278307Y-89159994D01*
X180278307Y-89159994D02*
X180181545Y-89111613D01*
X180181545Y-89111613D02*
X179939640Y-89111613D01*
X179939640Y-89111613D02*
X179842878Y-89159994D01*
X179842878Y-89159994D02*
X179794497Y-89208375D01*
X179794497Y-89208375D02*
X179746116Y-89305137D01*
X179746116Y-89305137D02*
X179746116Y-89547042D01*
X179746116Y-89547042D02*
X179794497Y-89643804D01*
X179794497Y-89643804D02*
X179842878Y-89692185D01*
X179842878Y-89692185D02*
X179939640Y-89740565D01*
X179939640Y-89740565D02*
X180181545Y-89740565D01*
X180181545Y-89740565D02*
X180278307Y-89692185D01*
X180278307Y-89692185D02*
X180326688Y-89643804D01*
X179455831Y-88724565D02*
X179117164Y-89740565D01*
X179117164Y-89740565D02*
X178778497Y-88724565D01*
X178681736Y-89837327D02*
X177907640Y-89837327D01*
X177472212Y-88724565D02*
X177278688Y-88724565D01*
X177278688Y-88724565D02*
X177181926Y-88772946D01*
X177181926Y-88772946D02*
X177085164Y-88869708D01*
X177085164Y-88869708D02*
X177036783Y-89063232D01*
X177036783Y-89063232D02*
X177036783Y-89401899D01*
X177036783Y-89401899D02*
X177085164Y-89595423D01*
X177085164Y-89595423D02*
X177181926Y-89692185D01*
X177181926Y-89692185D02*
X177278688Y-89740565D01*
X177278688Y-89740565D02*
X177472212Y-89740565D01*
X177472212Y-89740565D02*
X177568974Y-89692185D01*
X177568974Y-89692185D02*
X177665736Y-89595423D01*
X177665736Y-89595423D02*
X177714117Y-89401899D01*
X177714117Y-89401899D02*
X177714117Y-89063232D01*
X177714117Y-89063232D02*
X177665736Y-88869708D01*
X177665736Y-88869708D02*
X177568974Y-88772946D01*
X177568974Y-88772946D02*
X177472212Y-88724565D01*
X176601355Y-88724565D02*
X176601355Y-89547042D01*
X176601355Y-89547042D02*
X176552974Y-89643804D01*
X176552974Y-89643804D02*
X176504593Y-89692185D01*
X176504593Y-89692185D02*
X176407831Y-89740565D01*
X176407831Y-89740565D02*
X176214307Y-89740565D01*
X176214307Y-89740565D02*
X176117545Y-89692185D01*
X176117545Y-89692185D02*
X176069164Y-89643804D01*
X176069164Y-89643804D02*
X176020783Y-89547042D01*
X176020783Y-89547042D02*
X176020783Y-88724565D01*
X175682117Y-88724565D02*
X175101545Y-88724565D01*
X175391831Y-89740565D02*
X175391831Y-88724565D01*
X169707080Y-103287195D02*
X169707080Y-102271195D01*
X169223270Y-103287195D02*
X169223270Y-102271195D01*
X169223270Y-102271195D02*
X168642698Y-103287195D01*
X168642698Y-103287195D02*
X168642698Y-102271195D01*
D12*
X115464504Y-90156919D02*
X114893076Y-90156919D01*
X115178790Y-91156919D02*
X115178790Y-90156919D01*
X114559742Y-91156919D02*
X114559742Y-90156919D01*
X114559742Y-90156919D02*
X114178790Y-90156919D01*
X114178790Y-90156919D02*
X114083552Y-90204538D01*
X114083552Y-90204538D02*
X114035933Y-90252157D01*
X114035933Y-90252157D02*
X113988314Y-90347395D01*
X113988314Y-90347395D02*
X113988314Y-90490252D01*
X113988314Y-90490252D02*
X114035933Y-90585490D01*
X114035933Y-90585490D02*
X114083552Y-90633109D01*
X114083552Y-90633109D02*
X114178790Y-90680728D01*
X114178790Y-90680728D02*
X114559742Y-90680728D01*
X113654980Y-90156919D02*
X113035933Y-90156919D01*
X113035933Y-90156919D02*
X113369266Y-90537871D01*
X113369266Y-90537871D02*
X113226409Y-90537871D01*
X113226409Y-90537871D02*
X113131171Y-90585490D01*
X113131171Y-90585490D02*
X113083552Y-90633109D01*
X113083552Y-90633109D02*
X113035933Y-90728347D01*
X113035933Y-90728347D02*
X113035933Y-90966442D01*
X113035933Y-90966442D02*
X113083552Y-91061680D01*
X113083552Y-91061680D02*
X113131171Y-91109300D01*
X113131171Y-91109300D02*
X113226409Y-91156919D01*
X113226409Y-91156919D02*
X113512123Y-91156919D01*
X113512123Y-91156919D02*
X113607361Y-91109300D01*
X113607361Y-91109300D02*
X113654980Y-91061680D01*
X116464504Y-84656919D02*
X115893076Y-84656919D01*
X116178790Y-85656919D02*
X116178790Y-84656919D01*
X115559742Y-85656919D02*
X115559742Y-84656919D01*
X115559742Y-84656919D02*
X115178790Y-84656919D01*
X115178790Y-84656919D02*
X115083552Y-84704538D01*
X115083552Y-84704538D02*
X115035933Y-84752157D01*
X115035933Y-84752157D02*
X114988314Y-84847395D01*
X114988314Y-84847395D02*
X114988314Y-84990252D01*
X114988314Y-84990252D02*
X115035933Y-85085490D01*
X115035933Y-85085490D02*
X115083552Y-85133109D01*
X115083552Y-85133109D02*
X115178790Y-85180728D01*
X115178790Y-85180728D02*
X115559742Y-85180728D01*
X114083552Y-84656919D02*
X114559742Y-84656919D01*
X114559742Y-84656919D02*
X114607361Y-85133109D01*
X114607361Y-85133109D02*
X114559742Y-85085490D01*
X114559742Y-85085490D02*
X114464504Y-85037871D01*
X114464504Y-85037871D02*
X114226409Y-85037871D01*
X114226409Y-85037871D02*
X114131171Y-85085490D01*
X114131171Y-85085490D02*
X114083552Y-85133109D01*
X114083552Y-85133109D02*
X114035933Y-85228347D01*
X114035933Y-85228347D02*
X114035933Y-85466442D01*
X114035933Y-85466442D02*
X114083552Y-85561680D01*
X114083552Y-85561680D02*
X114131171Y-85609300D01*
X114131171Y-85609300D02*
X114226409Y-85656919D01*
X114226409Y-85656919D02*
X114464504Y-85656919D01*
X114464504Y-85656919D02*
X114559742Y-85609300D01*
X114559742Y-85609300D02*
X114607361Y-85561680D01*
D13*
%TO.C,J53*%
X167359891Y-178896902D02*
G75*
G02*
X166597891Y-178896902I-381000J0D01*
G01*
X166597891Y-178896902D02*
G75*
G02*
X167359891Y-178896902I381000J0D01*
G01*
%TO.C,J54*%
X182859891Y-178896902D02*
G75*
G02*
X182097891Y-178896902I-381000J0D01*
G01*
X182097891Y-178896902D02*
G75*
G02*
X182859891Y-178896902I381000J0D01*
G01*
%TO.C,J52*%
X175109891Y-178896902D02*
G75*
G02*
X174347891Y-178896902I-381000J0D01*
G01*
X174347891Y-178896902D02*
G75*
G02*
X175109891Y-178896902I381000J0D01*
G01*
%TO.C,J6*%
X136691800Y-87481200D02*
G75*
G02*
X135929800Y-87481200I-381000J0D01*
G01*
X135929800Y-87481200D02*
G75*
G02*
X136691800Y-87481200I381000J0D01*
G01*
%TO.C,J51*%
X159859891Y-178896902D02*
G75*
G02*
X159097891Y-178896902I-381000J0D01*
G01*
X159097891Y-178896902D02*
G75*
G02*
X159859891Y-178896902I381000J0D01*
G01*
%TO.C,J10*%
X145705400Y-87481200D02*
G75*
G02*
X144943400Y-87481200I-381000J0D01*
G01*
X144943400Y-87481200D02*
G75*
G02*
X145705400Y-87481200I381000J0D01*
G01*
%TO.C,J17*%
X154191800Y-87481200D02*
G75*
G02*
X153429800Y-87481200I-381000J0D01*
G01*
X153429800Y-87481200D02*
G75*
G02*
X154191800Y-87481200I381000J0D01*
G01*
%TO.C,J1*%
X128232600Y-87481200D02*
G75*
G02*
X127470600Y-87481200I-381000J0D01*
G01*
X127470600Y-87481200D02*
G75*
G02*
X128232600Y-87481200I381000J0D01*
G01*
D14*
%TO.C,TP3*%
X113002600Y-87504100D02*
X115402600Y-87504100D01*
X113002600Y-89904100D02*
X113002600Y-87504100D01*
X115402600Y-87504100D02*
X115402600Y-89904100D01*
X115402600Y-89904100D02*
X113002600Y-89904100D01*
%TO.C,TP5*%
X114002600Y-82004100D02*
X116402600Y-82004100D01*
X114002600Y-84404100D02*
X114002600Y-82004100D01*
X116402600Y-82004100D02*
X116402600Y-84404100D01*
X116402600Y-84404100D02*
X114002600Y-84404100D01*
%TD*%
M02*
