%TF.GenerationSoftware,KiCad,Pcbnew,9.0.6*%
%TF.CreationDate,2025-10-31T11:06:48-04:00*%
%TF.ProjectId,libreboard,6c696272-6562-46f6-9172-642e6b696361,rev?*%
%TF.SameCoordinates,Original*%
%TF.FileFunction,Drillmap*%
%TF.FilePolarity,Positive*%
%FSLAX45Y45*%
G04 Gerber Fmt 4.5, Leading zero omitted, Abs format (unit mm)*
G04 Created by KiCad (PCBNEW 9.0.6) date 2025-10-31 11:06:48*
%MOMM*%
%LPD*%
G01*
G04 APERTURE LIST*
%ADD10C,0.100000*%
%ADD11C,0.200000*%
%ADD12C,0.115000*%
%ADD13C,0.129540*%
%ADD14C,0.165000*%
%ADD15C,0.270000*%
%ADD16C,0.320000*%
G04 APERTURE END LIST*
D10*
X12003889Y-7870430D02*
X23991889Y-7870430D01*
X11747889Y-20114430D02*
X11747889Y-8126430D01*
X11747889Y-8126430D02*
G75*
G02*
X12003889Y-7870429I256001J0D01*
G01*
X23991889Y-20370430D02*
X12003889Y-20370430D01*
X24247889Y-8126430D02*
X24247889Y-20114430D01*
X24247889Y-20114430D02*
G75*
G02*
X23991889Y-20370429I-255999J0D01*
G01*
X12003889Y-20370430D02*
G75*
G02*
X11747890Y-20114430I1J256000D01*
G01*
X23991889Y-7870430D02*
G75*
G02*
X24247890Y-8126430I1J-256000D01*
G01*
D11*
D10*
X12265389Y-10923910D02*
X12330389Y-10988910D01*
X12330389Y-10923910D02*
X12265389Y-10988910D01*
X12265389Y-11501910D02*
X12330389Y-11566910D01*
X12330389Y-11501910D02*
X12265389Y-11566910D01*
D12*
X23552760Y-15470410D02*
G75*
G02*
X23437760Y-15470410I-57500J0D01*
G01*
X23437760Y-15470410D02*
G75*
G02*
X23552760Y-15470410I57500J0D01*
G01*
D13*
X16163889Y-18538660D02*
X16163889Y-18668200D01*
X16099119Y-18603430D02*
X16228659Y-18603430D01*
X16936260Y-18535640D02*
X16936260Y-18665180D01*
X16871490Y-18600410D02*
X17001030Y-18600410D01*
X17696260Y-18538640D02*
X17696260Y-18668180D01*
X17631490Y-18603410D02*
X17761030Y-18603410D01*
X18500940Y-18538304D02*
X18500940Y-18667844D01*
X18436170Y-18603074D02*
X18565710Y-18603074D01*
D14*
X23553597Y-17528747D02*
X23553597Y-17412073D01*
X23436923Y-17412073D01*
X23436923Y-17528747D01*
X23553597Y-17528747D01*
D15*
X12200000Y-10335000D02*
X12335000Y-10200000D01*
X12200000Y-10065000D01*
X12065000Y-10200000D01*
X12200000Y-10335000D01*
X12200000Y-20035000D02*
X12335000Y-19900000D01*
X12200000Y-19765000D01*
X12065000Y-19900000D01*
X12200000Y-20035000D01*
X12869130Y-15082801D02*
X13004130Y-14947801D01*
X12869130Y-14812801D01*
X12734130Y-14947801D01*
X12869130Y-15082801D01*
X12873889Y-10182410D02*
X13008889Y-10047410D01*
X12873889Y-9912410D01*
X12738889Y-10047410D01*
X12873889Y-10182410D01*
X18669130Y-10182410D02*
X18804130Y-10047410D01*
X18669130Y-9912410D01*
X18534130Y-10047410D01*
X18669130Y-10182410D01*
X18669130Y-15082801D02*
X18804130Y-14947801D01*
X18669130Y-14812801D01*
X18534130Y-14947801D01*
X18669130Y-15082801D01*
X19632631Y-8310039D02*
X19767631Y-8175039D01*
X19632631Y-8040039D01*
X19497631Y-8175039D01*
X19632631Y-8310039D01*
X19632631Y-13110039D02*
X19767631Y-12975039D01*
X19632631Y-12840039D01*
X19497631Y-12975039D01*
X19632631Y-13110039D01*
X22932631Y-8310039D02*
X23067631Y-8175039D01*
X22932631Y-8040039D01*
X22797631Y-8175039D01*
X22932631Y-8310039D01*
X22932631Y-13110039D02*
X23067631Y-12975039D01*
X22932631Y-12840039D01*
X22797631Y-12975039D01*
X22932631Y-13110039D01*
X23800000Y-10335000D02*
X23935000Y-10200000D01*
X23800000Y-10065000D01*
X23665000Y-10200000D01*
X23800000Y-10335000D01*
X23800000Y-20035000D02*
X23935000Y-19900000D01*
X23800000Y-19765000D01*
X23665000Y-19900000D01*
X23800000Y-20035000D01*
D16*
X20476389Y-19293430D02*
X20796389Y-19613430D01*
X20796389Y-19293430D02*
X20476389Y-19613430D01*
X20796389Y-19453430D02*
G75*
G02*
X20476389Y-19453430I-160000J0D01*
G01*
X20476389Y-19453430D02*
G75*
G02*
X20796389Y-19453430I160000J0D01*
G01*
X21619389Y-19293430D02*
X21939389Y-19613430D01*
X21939389Y-19293430D02*
X21619389Y-19613430D01*
X21939389Y-19453430D02*
G75*
G02*
X21619389Y-19453430I-160000J0D01*
G01*
X21619389Y-19453430D02*
G75*
G02*
X21939389Y-19453430I160000J0D01*
G01*
D11*
X12003666Y-20686914D02*
X12003666Y-20486914D01*
X12003666Y-20486914D02*
X12051285Y-20486914D01*
X12051285Y-20486914D02*
X12079856Y-20496438D01*
X12079856Y-20496438D02*
X12098904Y-20515485D01*
X12098904Y-20515485D02*
X12108428Y-20534533D01*
X12108428Y-20534533D02*
X12117952Y-20572628D01*
X12117952Y-20572628D02*
X12117952Y-20601200D01*
X12117952Y-20601200D02*
X12108428Y-20639295D01*
X12108428Y-20639295D02*
X12098904Y-20658343D01*
X12098904Y-20658343D02*
X12079856Y-20677390D01*
X12079856Y-20677390D02*
X12051285Y-20686914D01*
X12051285Y-20686914D02*
X12003666Y-20686914D01*
X12203666Y-20686914D02*
X12203666Y-20553581D01*
X12203666Y-20591676D02*
X12213190Y-20572628D01*
X12213190Y-20572628D02*
X12222713Y-20563104D01*
X12222713Y-20563104D02*
X12241761Y-20553581D01*
X12241761Y-20553581D02*
X12260809Y-20553581D01*
X12327475Y-20686914D02*
X12327475Y-20553581D01*
X12327475Y-20486914D02*
X12317952Y-20496438D01*
X12317952Y-20496438D02*
X12327475Y-20505962D01*
X12327475Y-20505962D02*
X12336999Y-20496438D01*
X12336999Y-20496438D02*
X12327475Y-20486914D01*
X12327475Y-20486914D02*
X12327475Y-20505962D01*
X12451285Y-20686914D02*
X12432237Y-20677390D01*
X12432237Y-20677390D02*
X12422713Y-20658343D01*
X12422713Y-20658343D02*
X12422713Y-20486914D01*
X12556047Y-20686914D02*
X12536999Y-20677390D01*
X12536999Y-20677390D02*
X12527475Y-20658343D01*
X12527475Y-20658343D02*
X12527475Y-20486914D01*
X12784618Y-20686914D02*
X12784618Y-20486914D01*
X12784618Y-20486914D02*
X12851285Y-20629771D01*
X12851285Y-20629771D02*
X12917952Y-20486914D01*
X12917952Y-20486914D02*
X12917952Y-20686914D01*
X13098904Y-20686914D02*
X13098904Y-20582152D01*
X13098904Y-20582152D02*
X13089380Y-20563104D01*
X13089380Y-20563104D02*
X13070333Y-20553581D01*
X13070333Y-20553581D02*
X13032237Y-20553581D01*
X13032237Y-20553581D02*
X13013190Y-20563104D01*
X13098904Y-20677390D02*
X13079856Y-20686914D01*
X13079856Y-20686914D02*
X13032237Y-20686914D01*
X13032237Y-20686914D02*
X13013190Y-20677390D01*
X13013190Y-20677390D02*
X13003666Y-20658343D01*
X13003666Y-20658343D02*
X13003666Y-20639295D01*
X13003666Y-20639295D02*
X13013190Y-20620247D01*
X13013190Y-20620247D02*
X13032237Y-20610724D01*
X13032237Y-20610724D02*
X13079856Y-20610724D01*
X13079856Y-20610724D02*
X13098904Y-20601200D01*
X13194142Y-20553581D02*
X13194142Y-20753581D01*
X13194142Y-20563104D02*
X13213190Y-20553581D01*
X13213190Y-20553581D02*
X13251285Y-20553581D01*
X13251285Y-20553581D02*
X13270333Y-20563104D01*
X13270333Y-20563104D02*
X13279856Y-20572628D01*
X13279856Y-20572628D02*
X13289380Y-20591676D01*
X13289380Y-20591676D02*
X13289380Y-20648819D01*
X13289380Y-20648819D02*
X13279856Y-20667866D01*
X13279856Y-20667866D02*
X13270333Y-20677390D01*
X13270333Y-20677390D02*
X13251285Y-20686914D01*
X13251285Y-20686914D02*
X13213190Y-20686914D01*
X13213190Y-20686914D02*
X13194142Y-20677390D01*
X13375094Y-20667866D02*
X13384618Y-20677390D01*
X13384618Y-20677390D02*
X13375094Y-20686914D01*
X13375094Y-20686914D02*
X13365571Y-20677390D01*
X13365571Y-20677390D02*
X13375094Y-20667866D01*
X13375094Y-20667866D02*
X13375094Y-20686914D01*
X13375094Y-20563104D02*
X13384618Y-20572628D01*
X13384618Y-20572628D02*
X13375094Y-20582152D01*
X13375094Y-20582152D02*
X13365571Y-20572628D01*
X13365571Y-20572628D02*
X13375094Y-20563104D01*
X13375094Y-20563104D02*
X13375094Y-20582152D01*
D10*
X11677889Y-20982930D02*
X11742889Y-21047930D01*
X11742889Y-20982930D02*
X11677889Y-21047930D01*
D11*
X12041761Y-20906914D02*
X12060809Y-20906914D01*
X12060809Y-20906914D02*
X12079856Y-20916438D01*
X12079856Y-20916438D02*
X12089380Y-20925962D01*
X12089380Y-20925962D02*
X12098904Y-20945009D01*
X12098904Y-20945009D02*
X12108428Y-20983104D01*
X12108428Y-20983104D02*
X12108428Y-21030724D01*
X12108428Y-21030724D02*
X12098904Y-21068819D01*
X12098904Y-21068819D02*
X12089380Y-21087866D01*
X12089380Y-21087866D02*
X12079856Y-21097390D01*
X12079856Y-21097390D02*
X12060809Y-21106914D01*
X12060809Y-21106914D02*
X12041761Y-21106914D01*
X12041761Y-21106914D02*
X12022713Y-21097390D01*
X12022713Y-21097390D02*
X12013190Y-21087866D01*
X12013190Y-21087866D02*
X12003666Y-21068819D01*
X12003666Y-21068819D02*
X11994142Y-21030724D01*
X11994142Y-21030724D02*
X11994142Y-20983104D01*
X11994142Y-20983104D02*
X12003666Y-20945009D01*
X12003666Y-20945009D02*
X12013190Y-20925962D01*
X12013190Y-20925962D02*
X12022713Y-20916438D01*
X12022713Y-20916438D02*
X12041761Y-20906914D01*
X12194142Y-21087866D02*
X12203666Y-21097390D01*
X12203666Y-21097390D02*
X12194142Y-21106914D01*
X12194142Y-21106914D02*
X12184618Y-21097390D01*
X12184618Y-21097390D02*
X12194142Y-21087866D01*
X12194142Y-21087866D02*
X12194142Y-21106914D01*
X12375094Y-20906914D02*
X12336999Y-20906914D01*
X12336999Y-20906914D02*
X12317952Y-20916438D01*
X12317952Y-20916438D02*
X12308428Y-20925962D01*
X12308428Y-20925962D02*
X12289380Y-20954533D01*
X12289380Y-20954533D02*
X12279856Y-20992628D01*
X12279856Y-20992628D02*
X12279856Y-21068819D01*
X12279856Y-21068819D02*
X12289380Y-21087866D01*
X12289380Y-21087866D02*
X12298904Y-21097390D01*
X12298904Y-21097390D02*
X12317952Y-21106914D01*
X12317952Y-21106914D02*
X12356047Y-21106914D01*
X12356047Y-21106914D02*
X12375094Y-21097390D01*
X12375094Y-21097390D02*
X12384618Y-21087866D01*
X12384618Y-21087866D02*
X12394142Y-21068819D01*
X12394142Y-21068819D02*
X12394142Y-21021200D01*
X12394142Y-21021200D02*
X12384618Y-21002152D01*
X12384618Y-21002152D02*
X12375094Y-20992628D01*
X12375094Y-20992628D02*
X12356047Y-20983104D01*
X12356047Y-20983104D02*
X12317952Y-20983104D01*
X12317952Y-20983104D02*
X12298904Y-20992628D01*
X12298904Y-20992628D02*
X12289380Y-21002152D01*
X12289380Y-21002152D02*
X12279856Y-21021200D01*
X12575094Y-20906914D02*
X12479856Y-20906914D01*
X12479856Y-20906914D02*
X12470333Y-21002152D01*
X12470333Y-21002152D02*
X12479856Y-20992628D01*
X12479856Y-20992628D02*
X12498904Y-20983104D01*
X12498904Y-20983104D02*
X12546523Y-20983104D01*
X12546523Y-20983104D02*
X12565571Y-20992628D01*
X12565571Y-20992628D02*
X12575094Y-21002152D01*
X12575094Y-21002152D02*
X12584618Y-21021200D01*
X12584618Y-21021200D02*
X12584618Y-21068819D01*
X12584618Y-21068819D02*
X12575094Y-21087866D01*
X12575094Y-21087866D02*
X12565571Y-21097390D01*
X12565571Y-21097390D02*
X12546523Y-21106914D01*
X12546523Y-21106914D02*
X12498904Y-21106914D01*
X12498904Y-21106914D02*
X12479856Y-21097390D01*
X12479856Y-21097390D02*
X12470333Y-21087866D01*
X12708428Y-20906914D02*
X12727475Y-20906914D01*
X12727475Y-20906914D02*
X12746523Y-20916438D01*
X12746523Y-20916438D02*
X12756047Y-20925962D01*
X12756047Y-20925962D02*
X12765571Y-20945009D01*
X12765571Y-20945009D02*
X12775094Y-20983104D01*
X12775094Y-20983104D02*
X12775094Y-21030724D01*
X12775094Y-21030724D02*
X12765571Y-21068819D01*
X12765571Y-21068819D02*
X12756047Y-21087866D01*
X12756047Y-21087866D02*
X12746523Y-21097390D01*
X12746523Y-21097390D02*
X12727475Y-21106914D01*
X12727475Y-21106914D02*
X12708428Y-21106914D01*
X12708428Y-21106914D02*
X12689380Y-21097390D01*
X12689380Y-21097390D02*
X12679856Y-21087866D01*
X12679856Y-21087866D02*
X12670333Y-21068819D01*
X12670333Y-21068819D02*
X12660809Y-21030724D01*
X12660809Y-21030724D02*
X12660809Y-20983104D01*
X12660809Y-20983104D02*
X12670333Y-20945009D01*
X12670333Y-20945009D02*
X12679856Y-20925962D01*
X12679856Y-20925962D02*
X12689380Y-20916438D01*
X12689380Y-20916438D02*
X12708428Y-20906914D01*
X12860809Y-21106914D02*
X12860809Y-20973581D01*
X12860809Y-20992628D02*
X12870333Y-20983104D01*
X12870333Y-20983104D02*
X12889380Y-20973581D01*
X12889380Y-20973581D02*
X12917952Y-20973581D01*
X12917952Y-20973581D02*
X12936999Y-20983104D01*
X12936999Y-20983104D02*
X12946523Y-21002152D01*
X12946523Y-21002152D02*
X12946523Y-21106914D01*
X12946523Y-21002152D02*
X12956047Y-20983104D01*
X12956047Y-20983104D02*
X12975094Y-20973581D01*
X12975094Y-20973581D02*
X13003666Y-20973581D01*
X13003666Y-20973581D02*
X13022714Y-20983104D01*
X13022714Y-20983104D02*
X13032237Y-21002152D01*
X13032237Y-21002152D02*
X13032237Y-21106914D01*
X13127475Y-21106914D02*
X13127475Y-20973581D01*
X13127475Y-20992628D02*
X13136999Y-20983104D01*
X13136999Y-20983104D02*
X13156047Y-20973581D01*
X13156047Y-20973581D02*
X13184618Y-20973581D01*
X13184618Y-20973581D02*
X13203666Y-20983104D01*
X13203666Y-20983104D02*
X13213190Y-21002152D01*
X13213190Y-21002152D02*
X13213190Y-21106914D01*
X13213190Y-21002152D02*
X13222714Y-20983104D01*
X13222714Y-20983104D02*
X13241761Y-20973581D01*
X13241761Y-20973581D02*
X13270333Y-20973581D01*
X13270333Y-20973581D02*
X13289380Y-20983104D01*
X13289380Y-20983104D02*
X13298904Y-21002152D01*
X13298904Y-21002152D02*
X13298904Y-21106914D01*
X13689380Y-20897390D02*
X13517952Y-21154533D01*
X13946523Y-20906914D02*
X13965571Y-20906914D01*
X13965571Y-20906914D02*
X13984618Y-20916438D01*
X13984618Y-20916438D02*
X13994142Y-20925962D01*
X13994142Y-20925962D02*
X14003666Y-20945009D01*
X14003666Y-20945009D02*
X14013190Y-20983104D01*
X14013190Y-20983104D02*
X14013190Y-21030724D01*
X14013190Y-21030724D02*
X14003666Y-21068819D01*
X14003666Y-21068819D02*
X13994142Y-21087866D01*
X13994142Y-21087866D02*
X13984618Y-21097390D01*
X13984618Y-21097390D02*
X13965571Y-21106914D01*
X13965571Y-21106914D02*
X13946523Y-21106914D01*
X13946523Y-21106914D02*
X13927476Y-21097390D01*
X13927476Y-21097390D02*
X13917952Y-21087866D01*
X13917952Y-21087866D02*
X13908428Y-21068819D01*
X13908428Y-21068819D02*
X13898904Y-21030724D01*
X13898904Y-21030724D02*
X13898904Y-20983104D01*
X13898904Y-20983104D02*
X13908428Y-20945009D01*
X13908428Y-20945009D02*
X13917952Y-20925962D01*
X13917952Y-20925962D02*
X13927476Y-20916438D01*
X13927476Y-20916438D02*
X13946523Y-20906914D01*
X14098904Y-21087866D02*
X14108428Y-21097390D01*
X14108428Y-21097390D02*
X14098904Y-21106914D01*
X14098904Y-21106914D02*
X14089380Y-21097390D01*
X14089380Y-21097390D02*
X14098904Y-21087866D01*
X14098904Y-21087866D02*
X14098904Y-21106914D01*
X14232237Y-20906914D02*
X14251285Y-20906914D01*
X14251285Y-20906914D02*
X14270333Y-20916438D01*
X14270333Y-20916438D02*
X14279857Y-20925962D01*
X14279857Y-20925962D02*
X14289380Y-20945009D01*
X14289380Y-20945009D02*
X14298904Y-20983104D01*
X14298904Y-20983104D02*
X14298904Y-21030724D01*
X14298904Y-21030724D02*
X14289380Y-21068819D01*
X14289380Y-21068819D02*
X14279857Y-21087866D01*
X14279857Y-21087866D02*
X14270333Y-21097390D01*
X14270333Y-21097390D02*
X14251285Y-21106914D01*
X14251285Y-21106914D02*
X14232237Y-21106914D01*
X14232237Y-21106914D02*
X14213190Y-21097390D01*
X14213190Y-21097390D02*
X14203666Y-21087866D01*
X14203666Y-21087866D02*
X14194142Y-21068819D01*
X14194142Y-21068819D02*
X14184618Y-21030724D01*
X14184618Y-21030724D02*
X14184618Y-20983104D01*
X14184618Y-20983104D02*
X14194142Y-20945009D01*
X14194142Y-20945009D02*
X14203666Y-20925962D01*
X14203666Y-20925962D02*
X14213190Y-20916438D01*
X14213190Y-20916438D02*
X14232237Y-20906914D01*
X14375095Y-20925962D02*
X14384618Y-20916438D01*
X14384618Y-20916438D02*
X14403666Y-20906914D01*
X14403666Y-20906914D02*
X14451285Y-20906914D01*
X14451285Y-20906914D02*
X14470333Y-20916438D01*
X14470333Y-20916438D02*
X14479857Y-20925962D01*
X14479857Y-20925962D02*
X14489380Y-20945009D01*
X14489380Y-20945009D02*
X14489380Y-20964057D01*
X14489380Y-20964057D02*
X14479857Y-20992628D01*
X14479857Y-20992628D02*
X14365571Y-21106914D01*
X14365571Y-21106914D02*
X14489380Y-21106914D01*
X14670333Y-20906914D02*
X14575095Y-20906914D01*
X14575095Y-20906914D02*
X14565571Y-21002152D01*
X14565571Y-21002152D02*
X14575095Y-20992628D01*
X14575095Y-20992628D02*
X14594142Y-20983104D01*
X14594142Y-20983104D02*
X14641761Y-20983104D01*
X14641761Y-20983104D02*
X14660809Y-20992628D01*
X14660809Y-20992628D02*
X14670333Y-21002152D01*
X14670333Y-21002152D02*
X14679857Y-21021200D01*
X14679857Y-21021200D02*
X14679857Y-21068819D01*
X14679857Y-21068819D02*
X14670333Y-21087866D01*
X14670333Y-21087866D02*
X14660809Y-21097390D01*
X14660809Y-21097390D02*
X14641761Y-21106914D01*
X14641761Y-21106914D02*
X14594142Y-21106914D01*
X14594142Y-21106914D02*
X14575095Y-21097390D01*
X14575095Y-21097390D02*
X14565571Y-21087866D01*
X14851285Y-20906914D02*
X14813190Y-20906914D01*
X14813190Y-20906914D02*
X14794142Y-20916438D01*
X14794142Y-20916438D02*
X14784618Y-20925962D01*
X14784618Y-20925962D02*
X14765571Y-20954533D01*
X14765571Y-20954533D02*
X14756047Y-20992628D01*
X14756047Y-20992628D02*
X14756047Y-21068819D01*
X14756047Y-21068819D02*
X14765571Y-21087866D01*
X14765571Y-21087866D02*
X14775095Y-21097390D01*
X14775095Y-21097390D02*
X14794142Y-21106914D01*
X14794142Y-21106914D02*
X14832238Y-21106914D01*
X14832238Y-21106914D02*
X14851285Y-21097390D01*
X14851285Y-21097390D02*
X14860809Y-21087866D01*
X14860809Y-21087866D02*
X14870333Y-21068819D01*
X14870333Y-21068819D02*
X14870333Y-21021200D01*
X14870333Y-21021200D02*
X14860809Y-21002152D01*
X14860809Y-21002152D02*
X14851285Y-20992628D01*
X14851285Y-20992628D02*
X14832238Y-20983104D01*
X14832238Y-20983104D02*
X14794142Y-20983104D01*
X14794142Y-20983104D02*
X14775095Y-20992628D01*
X14775095Y-20992628D02*
X14765571Y-21002152D01*
X14765571Y-21002152D02*
X14756047Y-21021200D01*
X14946523Y-20906914D02*
X14946523Y-20945009D01*
X15022714Y-20906914D02*
X15022714Y-20945009D01*
X15317952Y-21183104D02*
X15308428Y-21173581D01*
X15308428Y-21173581D02*
X15289380Y-21145009D01*
X15289380Y-21145009D02*
X15279857Y-21125962D01*
X15279857Y-21125962D02*
X15270333Y-21097390D01*
X15270333Y-21097390D02*
X15260809Y-21049771D01*
X15260809Y-21049771D02*
X15260809Y-21011676D01*
X15260809Y-21011676D02*
X15270333Y-20964057D01*
X15270333Y-20964057D02*
X15279857Y-20935485D01*
X15279857Y-20935485D02*
X15289380Y-20916438D01*
X15289380Y-20916438D02*
X15308428Y-20887866D01*
X15308428Y-20887866D02*
X15317952Y-20878343D01*
X15384619Y-20925962D02*
X15394142Y-20916438D01*
X15394142Y-20916438D02*
X15413190Y-20906914D01*
X15413190Y-20906914D02*
X15460809Y-20906914D01*
X15460809Y-20906914D02*
X15479857Y-20916438D01*
X15479857Y-20916438D02*
X15489380Y-20925962D01*
X15489380Y-20925962D02*
X15498904Y-20945009D01*
X15498904Y-20945009D02*
X15498904Y-20964057D01*
X15498904Y-20964057D02*
X15489380Y-20992628D01*
X15489380Y-20992628D02*
X15375095Y-21106914D01*
X15375095Y-21106914D02*
X15498904Y-21106914D01*
X15737000Y-21106914D02*
X15737000Y-20906914D01*
X15822714Y-21106914D02*
X15822714Y-21002152D01*
X15822714Y-21002152D02*
X15813190Y-20983104D01*
X15813190Y-20983104D02*
X15794142Y-20973581D01*
X15794142Y-20973581D02*
X15765571Y-20973581D01*
X15765571Y-20973581D02*
X15746523Y-20983104D01*
X15746523Y-20983104D02*
X15737000Y-20992628D01*
X15946523Y-21106914D02*
X15927476Y-21097390D01*
X15927476Y-21097390D02*
X15917952Y-21087866D01*
X15917952Y-21087866D02*
X15908428Y-21068819D01*
X15908428Y-21068819D02*
X15908428Y-21011676D01*
X15908428Y-21011676D02*
X15917952Y-20992628D01*
X15917952Y-20992628D02*
X15927476Y-20983104D01*
X15927476Y-20983104D02*
X15946523Y-20973581D01*
X15946523Y-20973581D02*
X15975095Y-20973581D01*
X15975095Y-20973581D02*
X15994142Y-20983104D01*
X15994142Y-20983104D02*
X16003666Y-20992628D01*
X16003666Y-20992628D02*
X16013190Y-21011676D01*
X16013190Y-21011676D02*
X16013190Y-21068819D01*
X16013190Y-21068819D02*
X16003666Y-21087866D01*
X16003666Y-21087866D02*
X15994142Y-21097390D01*
X15994142Y-21097390D02*
X15975095Y-21106914D01*
X15975095Y-21106914D02*
X15946523Y-21106914D01*
X16127476Y-21106914D02*
X16108428Y-21097390D01*
X16108428Y-21097390D02*
X16098904Y-21078343D01*
X16098904Y-21078343D02*
X16098904Y-20906914D01*
X16279857Y-21097390D02*
X16260809Y-21106914D01*
X16260809Y-21106914D02*
X16222714Y-21106914D01*
X16222714Y-21106914D02*
X16203666Y-21097390D01*
X16203666Y-21097390D02*
X16194142Y-21078343D01*
X16194142Y-21078343D02*
X16194142Y-21002152D01*
X16194142Y-21002152D02*
X16203666Y-20983104D01*
X16203666Y-20983104D02*
X16222714Y-20973581D01*
X16222714Y-20973581D02*
X16260809Y-20973581D01*
X16260809Y-20973581D02*
X16279857Y-20983104D01*
X16279857Y-20983104D02*
X16289381Y-21002152D01*
X16289381Y-21002152D02*
X16289381Y-21021200D01*
X16289381Y-21021200D02*
X16194142Y-21040247D01*
X16365571Y-21097390D02*
X16384619Y-21106914D01*
X16384619Y-21106914D02*
X16422714Y-21106914D01*
X16422714Y-21106914D02*
X16441762Y-21097390D01*
X16441762Y-21097390D02*
X16451285Y-21078343D01*
X16451285Y-21078343D02*
X16451285Y-21068819D01*
X16451285Y-21068819D02*
X16441762Y-21049771D01*
X16441762Y-21049771D02*
X16422714Y-21040247D01*
X16422714Y-21040247D02*
X16394142Y-21040247D01*
X16394142Y-21040247D02*
X16375095Y-21030724D01*
X16375095Y-21030724D02*
X16365571Y-21011676D01*
X16365571Y-21011676D02*
X16365571Y-21002152D01*
X16365571Y-21002152D02*
X16375095Y-20983104D01*
X16375095Y-20983104D02*
X16394142Y-20973581D01*
X16394142Y-20973581D02*
X16422714Y-20973581D01*
X16422714Y-20973581D02*
X16441762Y-20983104D01*
X16517952Y-21183104D02*
X16527476Y-21173581D01*
X16527476Y-21173581D02*
X16546523Y-21145009D01*
X16546523Y-21145009D02*
X16556047Y-21125962D01*
X16556047Y-21125962D02*
X16565571Y-21097390D01*
X16565571Y-21097390D02*
X16575095Y-21049771D01*
X16575095Y-21049771D02*
X16575095Y-21011676D01*
X16575095Y-21011676D02*
X16565571Y-20964057D01*
X16565571Y-20964057D02*
X16556047Y-20935485D01*
X16556047Y-20935485D02*
X16546523Y-20916438D01*
X16546523Y-20916438D02*
X16527476Y-20887866D01*
X16527476Y-20887866D02*
X16517952Y-20878343D01*
X16879857Y-21183104D02*
X16870333Y-21173581D01*
X16870333Y-21173581D02*
X16851285Y-21145009D01*
X16851285Y-21145009D02*
X16841762Y-21125962D01*
X16841762Y-21125962D02*
X16832238Y-21097390D01*
X16832238Y-21097390D02*
X16822714Y-21049771D01*
X16822714Y-21049771D02*
X16822714Y-21011676D01*
X16822714Y-21011676D02*
X16832238Y-20964057D01*
X16832238Y-20964057D02*
X16841762Y-20935485D01*
X16841762Y-20935485D02*
X16851285Y-20916438D01*
X16851285Y-20916438D02*
X16870333Y-20887866D01*
X16870333Y-20887866D02*
X16879857Y-20878343D01*
X16956047Y-20973581D02*
X16956047Y-21106914D01*
X16956047Y-20992628D02*
X16965571Y-20983104D01*
X16965571Y-20983104D02*
X16984619Y-20973581D01*
X16984619Y-20973581D02*
X17013190Y-20973581D01*
X17013190Y-20973581D02*
X17032238Y-20983104D01*
X17032238Y-20983104D02*
X17041762Y-21002152D01*
X17041762Y-21002152D02*
X17041762Y-21106914D01*
X17165571Y-21106914D02*
X17146524Y-21097390D01*
X17146524Y-21097390D02*
X17137000Y-21087866D01*
X17137000Y-21087866D02*
X17127476Y-21068819D01*
X17127476Y-21068819D02*
X17127476Y-21011676D01*
X17127476Y-21011676D02*
X17137000Y-20992628D01*
X17137000Y-20992628D02*
X17146524Y-20983104D01*
X17146524Y-20983104D02*
X17165571Y-20973581D01*
X17165571Y-20973581D02*
X17194143Y-20973581D01*
X17194143Y-20973581D02*
X17213190Y-20983104D01*
X17213190Y-20983104D02*
X17222714Y-20992628D01*
X17222714Y-20992628D02*
X17232238Y-21011676D01*
X17232238Y-21011676D02*
X17232238Y-21068819D01*
X17232238Y-21068819D02*
X17222714Y-21087866D01*
X17222714Y-21087866D02*
X17213190Y-21097390D01*
X17213190Y-21097390D02*
X17194143Y-21106914D01*
X17194143Y-21106914D02*
X17165571Y-21106914D01*
X17289381Y-20973581D02*
X17365571Y-20973581D01*
X17317952Y-20906914D02*
X17317952Y-21078343D01*
X17317952Y-21078343D02*
X17327476Y-21097390D01*
X17327476Y-21097390D02*
X17346524Y-21106914D01*
X17346524Y-21106914D02*
X17365571Y-21106914D01*
X17584619Y-20973581D02*
X17584619Y-21173581D01*
X17584619Y-20983104D02*
X17603666Y-20973581D01*
X17603666Y-20973581D02*
X17641762Y-20973581D01*
X17641762Y-20973581D02*
X17660809Y-20983104D01*
X17660809Y-20983104D02*
X17670333Y-20992628D01*
X17670333Y-20992628D02*
X17679857Y-21011676D01*
X17679857Y-21011676D02*
X17679857Y-21068819D01*
X17679857Y-21068819D02*
X17670333Y-21087866D01*
X17670333Y-21087866D02*
X17660809Y-21097390D01*
X17660809Y-21097390D02*
X17641762Y-21106914D01*
X17641762Y-21106914D02*
X17603666Y-21106914D01*
X17603666Y-21106914D02*
X17584619Y-21097390D01*
X17794143Y-21106914D02*
X17775095Y-21097390D01*
X17775095Y-21097390D02*
X17765571Y-21078343D01*
X17765571Y-21078343D02*
X17765571Y-20906914D01*
X17956047Y-21106914D02*
X17956047Y-21002152D01*
X17956047Y-21002152D02*
X17946524Y-20983104D01*
X17946524Y-20983104D02*
X17927476Y-20973581D01*
X17927476Y-20973581D02*
X17889381Y-20973581D01*
X17889381Y-20973581D02*
X17870333Y-20983104D01*
X17956047Y-21097390D02*
X17937000Y-21106914D01*
X17937000Y-21106914D02*
X17889381Y-21106914D01*
X17889381Y-21106914D02*
X17870333Y-21097390D01*
X17870333Y-21097390D02*
X17860809Y-21078343D01*
X17860809Y-21078343D02*
X17860809Y-21059295D01*
X17860809Y-21059295D02*
X17870333Y-21040247D01*
X17870333Y-21040247D02*
X17889381Y-21030724D01*
X17889381Y-21030724D02*
X17937000Y-21030724D01*
X17937000Y-21030724D02*
X17956047Y-21021200D01*
X18022714Y-20973581D02*
X18098905Y-20973581D01*
X18051286Y-20906914D02*
X18051286Y-21078343D01*
X18051286Y-21078343D02*
X18060809Y-21097390D01*
X18060809Y-21097390D02*
X18079857Y-21106914D01*
X18079857Y-21106914D02*
X18098905Y-21106914D01*
X18241762Y-21097390D02*
X18222714Y-21106914D01*
X18222714Y-21106914D02*
X18184619Y-21106914D01*
X18184619Y-21106914D02*
X18165571Y-21097390D01*
X18165571Y-21097390D02*
X18156047Y-21078343D01*
X18156047Y-21078343D02*
X18156047Y-21002152D01*
X18156047Y-21002152D02*
X18165571Y-20983104D01*
X18165571Y-20983104D02*
X18184619Y-20973581D01*
X18184619Y-20973581D02*
X18222714Y-20973581D01*
X18222714Y-20973581D02*
X18241762Y-20983104D01*
X18241762Y-20983104D02*
X18251286Y-21002152D01*
X18251286Y-21002152D02*
X18251286Y-21021200D01*
X18251286Y-21021200D02*
X18156047Y-21040247D01*
X18422714Y-21106914D02*
X18422714Y-20906914D01*
X18422714Y-21097390D02*
X18403667Y-21106914D01*
X18403667Y-21106914D02*
X18365571Y-21106914D01*
X18365571Y-21106914D02*
X18346524Y-21097390D01*
X18346524Y-21097390D02*
X18337000Y-21087866D01*
X18337000Y-21087866D02*
X18327476Y-21068819D01*
X18327476Y-21068819D02*
X18327476Y-21011676D01*
X18327476Y-21011676D02*
X18337000Y-20992628D01*
X18337000Y-20992628D02*
X18346524Y-20983104D01*
X18346524Y-20983104D02*
X18365571Y-20973581D01*
X18365571Y-20973581D02*
X18403667Y-20973581D01*
X18403667Y-20973581D02*
X18422714Y-20983104D01*
X18498905Y-21183104D02*
X18508428Y-21173581D01*
X18508428Y-21173581D02*
X18527476Y-21145009D01*
X18527476Y-21145009D02*
X18537000Y-21125962D01*
X18537000Y-21125962D02*
X18546524Y-21097390D01*
X18546524Y-21097390D02*
X18556047Y-21049771D01*
X18556047Y-21049771D02*
X18556047Y-21011676D01*
X18556047Y-21011676D02*
X18546524Y-20964057D01*
X18546524Y-20964057D02*
X18537000Y-20935485D01*
X18537000Y-20935485D02*
X18527476Y-20916438D01*
X18527476Y-20916438D02*
X18508428Y-20887866D01*
X18508428Y-20887866D02*
X18498905Y-20878343D01*
D12*
X11742889Y-21279430D02*
G75*
G02*
X11627889Y-21279430I-57500J0D01*
G01*
X11627889Y-21279430D02*
G75*
G02*
X11742889Y-21279430I57500J0D01*
G01*
D11*
X12108428Y-21370914D02*
X11994142Y-21370914D01*
X12051285Y-21370914D02*
X12051285Y-21170914D01*
X12051285Y-21170914D02*
X12032237Y-21199485D01*
X12032237Y-21199485D02*
X12013190Y-21218533D01*
X12013190Y-21218533D02*
X11994142Y-21228057D01*
X12194142Y-21351866D02*
X12203666Y-21361390D01*
X12203666Y-21361390D02*
X12194142Y-21370914D01*
X12194142Y-21370914D02*
X12184618Y-21361390D01*
X12184618Y-21361390D02*
X12194142Y-21351866D01*
X12194142Y-21351866D02*
X12194142Y-21370914D01*
X12394142Y-21370914D02*
X12279856Y-21370914D01*
X12336999Y-21370914D02*
X12336999Y-21170914D01*
X12336999Y-21170914D02*
X12317952Y-21199485D01*
X12317952Y-21199485D02*
X12298904Y-21218533D01*
X12298904Y-21218533D02*
X12279856Y-21228057D01*
X12575094Y-21170914D02*
X12479856Y-21170914D01*
X12479856Y-21170914D02*
X12470333Y-21266152D01*
X12470333Y-21266152D02*
X12479856Y-21256628D01*
X12479856Y-21256628D02*
X12498904Y-21247104D01*
X12498904Y-21247104D02*
X12546523Y-21247104D01*
X12546523Y-21247104D02*
X12565571Y-21256628D01*
X12565571Y-21256628D02*
X12575094Y-21266152D01*
X12575094Y-21266152D02*
X12584618Y-21285200D01*
X12584618Y-21285200D02*
X12584618Y-21332819D01*
X12584618Y-21332819D02*
X12575094Y-21351866D01*
X12575094Y-21351866D02*
X12565571Y-21361390D01*
X12565571Y-21361390D02*
X12546523Y-21370914D01*
X12546523Y-21370914D02*
X12498904Y-21370914D01*
X12498904Y-21370914D02*
X12479856Y-21361390D01*
X12479856Y-21361390D02*
X12470333Y-21351866D01*
X12708428Y-21170914D02*
X12727475Y-21170914D01*
X12727475Y-21170914D02*
X12746523Y-21180438D01*
X12746523Y-21180438D02*
X12756047Y-21189962D01*
X12756047Y-21189962D02*
X12765571Y-21209009D01*
X12765571Y-21209009D02*
X12775094Y-21247104D01*
X12775094Y-21247104D02*
X12775094Y-21294724D01*
X12775094Y-21294724D02*
X12765571Y-21332819D01*
X12765571Y-21332819D02*
X12756047Y-21351866D01*
X12756047Y-21351866D02*
X12746523Y-21361390D01*
X12746523Y-21361390D02*
X12727475Y-21370914D01*
X12727475Y-21370914D02*
X12708428Y-21370914D01*
X12708428Y-21370914D02*
X12689380Y-21361390D01*
X12689380Y-21361390D02*
X12679856Y-21351866D01*
X12679856Y-21351866D02*
X12670333Y-21332819D01*
X12670333Y-21332819D02*
X12660809Y-21294724D01*
X12660809Y-21294724D02*
X12660809Y-21247104D01*
X12660809Y-21247104D02*
X12670333Y-21209009D01*
X12670333Y-21209009D02*
X12679856Y-21189962D01*
X12679856Y-21189962D02*
X12689380Y-21180438D01*
X12689380Y-21180438D02*
X12708428Y-21170914D01*
X12860809Y-21370914D02*
X12860809Y-21237581D01*
X12860809Y-21256628D02*
X12870333Y-21247104D01*
X12870333Y-21247104D02*
X12889380Y-21237581D01*
X12889380Y-21237581D02*
X12917952Y-21237581D01*
X12917952Y-21237581D02*
X12936999Y-21247104D01*
X12936999Y-21247104D02*
X12946523Y-21266152D01*
X12946523Y-21266152D02*
X12946523Y-21370914D01*
X12946523Y-21266152D02*
X12956047Y-21247104D01*
X12956047Y-21247104D02*
X12975094Y-21237581D01*
X12975094Y-21237581D02*
X13003666Y-21237581D01*
X13003666Y-21237581D02*
X13022714Y-21247104D01*
X13022714Y-21247104D02*
X13032237Y-21266152D01*
X13032237Y-21266152D02*
X13032237Y-21370914D01*
X13127475Y-21370914D02*
X13127475Y-21237581D01*
X13127475Y-21256628D02*
X13136999Y-21247104D01*
X13136999Y-21247104D02*
X13156047Y-21237581D01*
X13156047Y-21237581D02*
X13184618Y-21237581D01*
X13184618Y-21237581D02*
X13203666Y-21247104D01*
X13203666Y-21247104D02*
X13213190Y-21266152D01*
X13213190Y-21266152D02*
X13213190Y-21370914D01*
X13213190Y-21266152D02*
X13222714Y-21247104D01*
X13222714Y-21247104D02*
X13241761Y-21237581D01*
X13241761Y-21237581D02*
X13270333Y-21237581D01*
X13270333Y-21237581D02*
X13289380Y-21247104D01*
X13289380Y-21247104D02*
X13298904Y-21266152D01*
X13298904Y-21266152D02*
X13298904Y-21370914D01*
X13689380Y-21161390D02*
X13517952Y-21418533D01*
X13946523Y-21170914D02*
X13965571Y-21170914D01*
X13965571Y-21170914D02*
X13984618Y-21180438D01*
X13984618Y-21180438D02*
X13994142Y-21189962D01*
X13994142Y-21189962D02*
X14003666Y-21209009D01*
X14003666Y-21209009D02*
X14013190Y-21247104D01*
X14013190Y-21247104D02*
X14013190Y-21294724D01*
X14013190Y-21294724D02*
X14003666Y-21332819D01*
X14003666Y-21332819D02*
X13994142Y-21351866D01*
X13994142Y-21351866D02*
X13984618Y-21361390D01*
X13984618Y-21361390D02*
X13965571Y-21370914D01*
X13965571Y-21370914D02*
X13946523Y-21370914D01*
X13946523Y-21370914D02*
X13927476Y-21361390D01*
X13927476Y-21361390D02*
X13917952Y-21351866D01*
X13917952Y-21351866D02*
X13908428Y-21332819D01*
X13908428Y-21332819D02*
X13898904Y-21294724D01*
X13898904Y-21294724D02*
X13898904Y-21247104D01*
X13898904Y-21247104D02*
X13908428Y-21209009D01*
X13908428Y-21209009D02*
X13917952Y-21189962D01*
X13917952Y-21189962D02*
X13927476Y-21180438D01*
X13927476Y-21180438D02*
X13946523Y-21170914D01*
X14098904Y-21351866D02*
X14108428Y-21361390D01*
X14108428Y-21361390D02*
X14098904Y-21370914D01*
X14098904Y-21370914D02*
X14089380Y-21361390D01*
X14089380Y-21361390D02*
X14098904Y-21351866D01*
X14098904Y-21351866D02*
X14098904Y-21370914D01*
X14232237Y-21170914D02*
X14251285Y-21170914D01*
X14251285Y-21170914D02*
X14270333Y-21180438D01*
X14270333Y-21180438D02*
X14279857Y-21189962D01*
X14279857Y-21189962D02*
X14289380Y-21209009D01*
X14289380Y-21209009D02*
X14298904Y-21247104D01*
X14298904Y-21247104D02*
X14298904Y-21294724D01*
X14298904Y-21294724D02*
X14289380Y-21332819D01*
X14289380Y-21332819D02*
X14279857Y-21351866D01*
X14279857Y-21351866D02*
X14270333Y-21361390D01*
X14270333Y-21361390D02*
X14251285Y-21370914D01*
X14251285Y-21370914D02*
X14232237Y-21370914D01*
X14232237Y-21370914D02*
X14213190Y-21361390D01*
X14213190Y-21361390D02*
X14203666Y-21351866D01*
X14203666Y-21351866D02*
X14194142Y-21332819D01*
X14194142Y-21332819D02*
X14184618Y-21294724D01*
X14184618Y-21294724D02*
X14184618Y-21247104D01*
X14184618Y-21247104D02*
X14194142Y-21209009D01*
X14194142Y-21209009D02*
X14203666Y-21189962D01*
X14203666Y-21189962D02*
X14213190Y-21180438D01*
X14213190Y-21180438D02*
X14232237Y-21170914D01*
X14470333Y-21237581D02*
X14470333Y-21370914D01*
X14422714Y-21161390D02*
X14375095Y-21304247D01*
X14375095Y-21304247D02*
X14498904Y-21304247D01*
X14670333Y-21170914D02*
X14575095Y-21170914D01*
X14575095Y-21170914D02*
X14565571Y-21266152D01*
X14565571Y-21266152D02*
X14575095Y-21256628D01*
X14575095Y-21256628D02*
X14594142Y-21247104D01*
X14594142Y-21247104D02*
X14641761Y-21247104D01*
X14641761Y-21247104D02*
X14660809Y-21256628D01*
X14660809Y-21256628D02*
X14670333Y-21266152D01*
X14670333Y-21266152D02*
X14679857Y-21285200D01*
X14679857Y-21285200D02*
X14679857Y-21332819D01*
X14679857Y-21332819D02*
X14670333Y-21351866D01*
X14670333Y-21351866D02*
X14660809Y-21361390D01*
X14660809Y-21361390D02*
X14641761Y-21370914D01*
X14641761Y-21370914D02*
X14594142Y-21370914D01*
X14594142Y-21370914D02*
X14575095Y-21361390D01*
X14575095Y-21361390D02*
X14565571Y-21351866D01*
X14746523Y-21170914D02*
X14870333Y-21170914D01*
X14870333Y-21170914D02*
X14803666Y-21247104D01*
X14803666Y-21247104D02*
X14832238Y-21247104D01*
X14832238Y-21247104D02*
X14851285Y-21256628D01*
X14851285Y-21256628D02*
X14860809Y-21266152D01*
X14860809Y-21266152D02*
X14870333Y-21285200D01*
X14870333Y-21285200D02*
X14870333Y-21332819D01*
X14870333Y-21332819D02*
X14860809Y-21351866D01*
X14860809Y-21351866D02*
X14851285Y-21361390D01*
X14851285Y-21361390D02*
X14832238Y-21370914D01*
X14832238Y-21370914D02*
X14775095Y-21370914D01*
X14775095Y-21370914D02*
X14756047Y-21361390D01*
X14756047Y-21361390D02*
X14746523Y-21351866D01*
X14946523Y-21170914D02*
X14946523Y-21209009D01*
X15022714Y-21170914D02*
X15022714Y-21209009D01*
X15317952Y-21447104D02*
X15308428Y-21437581D01*
X15308428Y-21437581D02*
X15289380Y-21409009D01*
X15289380Y-21409009D02*
X15279857Y-21389962D01*
X15279857Y-21389962D02*
X15270333Y-21361390D01*
X15270333Y-21361390D02*
X15260809Y-21313771D01*
X15260809Y-21313771D02*
X15260809Y-21275676D01*
X15260809Y-21275676D02*
X15270333Y-21228057D01*
X15270333Y-21228057D02*
X15279857Y-21199485D01*
X15279857Y-21199485D02*
X15289380Y-21180438D01*
X15289380Y-21180438D02*
X15308428Y-21151866D01*
X15308428Y-21151866D02*
X15317952Y-21142343D01*
X15498904Y-21370914D02*
X15384619Y-21370914D01*
X15441761Y-21370914D02*
X15441761Y-21170914D01*
X15441761Y-21170914D02*
X15422714Y-21199485D01*
X15422714Y-21199485D02*
X15403666Y-21218533D01*
X15403666Y-21218533D02*
X15384619Y-21228057D01*
X15737000Y-21370914D02*
X15737000Y-21170914D01*
X15822714Y-21370914D02*
X15822714Y-21266152D01*
X15822714Y-21266152D02*
X15813190Y-21247104D01*
X15813190Y-21247104D02*
X15794142Y-21237581D01*
X15794142Y-21237581D02*
X15765571Y-21237581D01*
X15765571Y-21237581D02*
X15746523Y-21247104D01*
X15746523Y-21247104D02*
X15737000Y-21256628D01*
X15946523Y-21370914D02*
X15927476Y-21361390D01*
X15927476Y-21361390D02*
X15917952Y-21351866D01*
X15917952Y-21351866D02*
X15908428Y-21332819D01*
X15908428Y-21332819D02*
X15908428Y-21275676D01*
X15908428Y-21275676D02*
X15917952Y-21256628D01*
X15917952Y-21256628D02*
X15927476Y-21247104D01*
X15927476Y-21247104D02*
X15946523Y-21237581D01*
X15946523Y-21237581D02*
X15975095Y-21237581D01*
X15975095Y-21237581D02*
X15994142Y-21247104D01*
X15994142Y-21247104D02*
X16003666Y-21256628D01*
X16003666Y-21256628D02*
X16013190Y-21275676D01*
X16013190Y-21275676D02*
X16013190Y-21332819D01*
X16013190Y-21332819D02*
X16003666Y-21351866D01*
X16003666Y-21351866D02*
X15994142Y-21361390D01*
X15994142Y-21361390D02*
X15975095Y-21370914D01*
X15975095Y-21370914D02*
X15946523Y-21370914D01*
X16127476Y-21370914D02*
X16108428Y-21361390D01*
X16108428Y-21361390D02*
X16098904Y-21342343D01*
X16098904Y-21342343D02*
X16098904Y-21170914D01*
X16279857Y-21361390D02*
X16260809Y-21370914D01*
X16260809Y-21370914D02*
X16222714Y-21370914D01*
X16222714Y-21370914D02*
X16203666Y-21361390D01*
X16203666Y-21361390D02*
X16194142Y-21342343D01*
X16194142Y-21342343D02*
X16194142Y-21266152D01*
X16194142Y-21266152D02*
X16203666Y-21247104D01*
X16203666Y-21247104D02*
X16222714Y-21237581D01*
X16222714Y-21237581D02*
X16260809Y-21237581D01*
X16260809Y-21237581D02*
X16279857Y-21247104D01*
X16279857Y-21247104D02*
X16289381Y-21266152D01*
X16289381Y-21266152D02*
X16289381Y-21285200D01*
X16289381Y-21285200D02*
X16194142Y-21304247D01*
X16356047Y-21447104D02*
X16365571Y-21437581D01*
X16365571Y-21437581D02*
X16384619Y-21409009D01*
X16384619Y-21409009D02*
X16394142Y-21389962D01*
X16394142Y-21389962D02*
X16403666Y-21361390D01*
X16403666Y-21361390D02*
X16413190Y-21313771D01*
X16413190Y-21313771D02*
X16413190Y-21275676D01*
X16413190Y-21275676D02*
X16403666Y-21228057D01*
X16403666Y-21228057D02*
X16394142Y-21199485D01*
X16394142Y-21199485D02*
X16384619Y-21180438D01*
X16384619Y-21180438D02*
X16365571Y-21151866D01*
X16365571Y-21151866D02*
X16356047Y-21142343D01*
X16717952Y-21447104D02*
X16708428Y-21437581D01*
X16708428Y-21437581D02*
X16689381Y-21409009D01*
X16689381Y-21409009D02*
X16679857Y-21389962D01*
X16679857Y-21389962D02*
X16670333Y-21361390D01*
X16670333Y-21361390D02*
X16660809Y-21313771D01*
X16660809Y-21313771D02*
X16660809Y-21275676D01*
X16660809Y-21275676D02*
X16670333Y-21228057D01*
X16670333Y-21228057D02*
X16679857Y-21199485D01*
X16679857Y-21199485D02*
X16689381Y-21180438D01*
X16689381Y-21180438D02*
X16708428Y-21151866D01*
X16708428Y-21151866D02*
X16717952Y-21142343D01*
X16794143Y-21237581D02*
X16794143Y-21370914D01*
X16794143Y-21256628D02*
X16803666Y-21247104D01*
X16803666Y-21247104D02*
X16822714Y-21237581D01*
X16822714Y-21237581D02*
X16851285Y-21237581D01*
X16851285Y-21237581D02*
X16870333Y-21247104D01*
X16870333Y-21247104D02*
X16879857Y-21266152D01*
X16879857Y-21266152D02*
X16879857Y-21370914D01*
X17003666Y-21370914D02*
X16984619Y-21361390D01*
X16984619Y-21361390D02*
X16975095Y-21351866D01*
X16975095Y-21351866D02*
X16965571Y-21332819D01*
X16965571Y-21332819D02*
X16965571Y-21275676D01*
X16965571Y-21275676D02*
X16975095Y-21256628D01*
X16975095Y-21256628D02*
X16984619Y-21247104D01*
X16984619Y-21247104D02*
X17003666Y-21237581D01*
X17003666Y-21237581D02*
X17032238Y-21237581D01*
X17032238Y-21237581D02*
X17051285Y-21247104D01*
X17051285Y-21247104D02*
X17060809Y-21256628D01*
X17060809Y-21256628D02*
X17070333Y-21275676D01*
X17070333Y-21275676D02*
X17070333Y-21332819D01*
X17070333Y-21332819D02*
X17060809Y-21351866D01*
X17060809Y-21351866D02*
X17051285Y-21361390D01*
X17051285Y-21361390D02*
X17032238Y-21370914D01*
X17032238Y-21370914D02*
X17003666Y-21370914D01*
X17127476Y-21237581D02*
X17203666Y-21237581D01*
X17156047Y-21170914D02*
X17156047Y-21342343D01*
X17156047Y-21342343D02*
X17165571Y-21361390D01*
X17165571Y-21361390D02*
X17184619Y-21370914D01*
X17184619Y-21370914D02*
X17203666Y-21370914D01*
X17422714Y-21237581D02*
X17422714Y-21437581D01*
X17422714Y-21247104D02*
X17441762Y-21237581D01*
X17441762Y-21237581D02*
X17479857Y-21237581D01*
X17479857Y-21237581D02*
X17498905Y-21247104D01*
X17498905Y-21247104D02*
X17508428Y-21256628D01*
X17508428Y-21256628D02*
X17517952Y-21275676D01*
X17517952Y-21275676D02*
X17517952Y-21332819D01*
X17517952Y-21332819D02*
X17508428Y-21351866D01*
X17508428Y-21351866D02*
X17498905Y-21361390D01*
X17498905Y-21361390D02*
X17479857Y-21370914D01*
X17479857Y-21370914D02*
X17441762Y-21370914D01*
X17441762Y-21370914D02*
X17422714Y-21361390D01*
X17632238Y-21370914D02*
X17613190Y-21361390D01*
X17613190Y-21361390D02*
X17603666Y-21342343D01*
X17603666Y-21342343D02*
X17603666Y-21170914D01*
X17794143Y-21370914D02*
X17794143Y-21266152D01*
X17794143Y-21266152D02*
X17784619Y-21247104D01*
X17784619Y-21247104D02*
X17765571Y-21237581D01*
X17765571Y-21237581D02*
X17727476Y-21237581D01*
X17727476Y-21237581D02*
X17708428Y-21247104D01*
X17794143Y-21361390D02*
X17775095Y-21370914D01*
X17775095Y-21370914D02*
X17727476Y-21370914D01*
X17727476Y-21370914D02*
X17708428Y-21361390D01*
X17708428Y-21361390D02*
X17698905Y-21342343D01*
X17698905Y-21342343D02*
X17698905Y-21323295D01*
X17698905Y-21323295D02*
X17708428Y-21304247D01*
X17708428Y-21304247D02*
X17727476Y-21294724D01*
X17727476Y-21294724D02*
X17775095Y-21294724D01*
X17775095Y-21294724D02*
X17794143Y-21285200D01*
X17860809Y-21237581D02*
X17937000Y-21237581D01*
X17889381Y-21170914D02*
X17889381Y-21342343D01*
X17889381Y-21342343D02*
X17898905Y-21361390D01*
X17898905Y-21361390D02*
X17917952Y-21370914D01*
X17917952Y-21370914D02*
X17937000Y-21370914D01*
X18079857Y-21361390D02*
X18060809Y-21370914D01*
X18060809Y-21370914D02*
X18022714Y-21370914D01*
X18022714Y-21370914D02*
X18003666Y-21361390D01*
X18003666Y-21361390D02*
X17994143Y-21342343D01*
X17994143Y-21342343D02*
X17994143Y-21266152D01*
X17994143Y-21266152D02*
X18003666Y-21247104D01*
X18003666Y-21247104D02*
X18022714Y-21237581D01*
X18022714Y-21237581D02*
X18060809Y-21237581D01*
X18060809Y-21237581D02*
X18079857Y-21247104D01*
X18079857Y-21247104D02*
X18089381Y-21266152D01*
X18089381Y-21266152D02*
X18089381Y-21285200D01*
X18089381Y-21285200D02*
X17994143Y-21304247D01*
X18260809Y-21370914D02*
X18260809Y-21170914D01*
X18260809Y-21361390D02*
X18241762Y-21370914D01*
X18241762Y-21370914D02*
X18203666Y-21370914D01*
X18203666Y-21370914D02*
X18184619Y-21361390D01*
X18184619Y-21361390D02*
X18175095Y-21351866D01*
X18175095Y-21351866D02*
X18165571Y-21332819D01*
X18165571Y-21332819D02*
X18165571Y-21275676D01*
X18165571Y-21275676D02*
X18175095Y-21256628D01*
X18175095Y-21256628D02*
X18184619Y-21247104D01*
X18184619Y-21247104D02*
X18203666Y-21237581D01*
X18203666Y-21237581D02*
X18241762Y-21237581D01*
X18241762Y-21237581D02*
X18260809Y-21247104D01*
X18337000Y-21447104D02*
X18346524Y-21437581D01*
X18346524Y-21437581D02*
X18365571Y-21409009D01*
X18365571Y-21409009D02*
X18375095Y-21389962D01*
X18375095Y-21389962D02*
X18384619Y-21361390D01*
X18384619Y-21361390D02*
X18394143Y-21313771D01*
X18394143Y-21313771D02*
X18394143Y-21275676D01*
X18394143Y-21275676D02*
X18384619Y-21228057D01*
X18384619Y-21228057D02*
X18375095Y-21199485D01*
X18375095Y-21199485D02*
X18365571Y-21180438D01*
X18365571Y-21180438D02*
X18346524Y-21151866D01*
X18346524Y-21151866D02*
X18337000Y-21142343D01*
D13*
X11678119Y-21478660D02*
X11678119Y-21608200D01*
X11613349Y-21543430D02*
X11742889Y-21543430D01*
D11*
X12108428Y-21634914D02*
X11994142Y-21634914D01*
X12051285Y-21634914D02*
X12051285Y-21434914D01*
X12051285Y-21434914D02*
X12032237Y-21463485D01*
X12032237Y-21463485D02*
X12013190Y-21482533D01*
X12013190Y-21482533D02*
X11994142Y-21492057D01*
X12194142Y-21615866D02*
X12203666Y-21625390D01*
X12203666Y-21625390D02*
X12194142Y-21634914D01*
X12194142Y-21634914D02*
X12184618Y-21625390D01*
X12184618Y-21625390D02*
X12194142Y-21615866D01*
X12194142Y-21615866D02*
X12194142Y-21634914D01*
X12279856Y-21453962D02*
X12289380Y-21444438D01*
X12289380Y-21444438D02*
X12308428Y-21434914D01*
X12308428Y-21434914D02*
X12356047Y-21434914D01*
X12356047Y-21434914D02*
X12375094Y-21444438D01*
X12375094Y-21444438D02*
X12384618Y-21453962D01*
X12384618Y-21453962D02*
X12394142Y-21473009D01*
X12394142Y-21473009D02*
X12394142Y-21492057D01*
X12394142Y-21492057D02*
X12384618Y-21520628D01*
X12384618Y-21520628D02*
X12270333Y-21634914D01*
X12270333Y-21634914D02*
X12394142Y-21634914D01*
X12489380Y-21634914D02*
X12527475Y-21634914D01*
X12527475Y-21634914D02*
X12546523Y-21625390D01*
X12546523Y-21625390D02*
X12556047Y-21615866D01*
X12556047Y-21615866D02*
X12575094Y-21587295D01*
X12575094Y-21587295D02*
X12584618Y-21549200D01*
X12584618Y-21549200D02*
X12584618Y-21473009D01*
X12584618Y-21473009D02*
X12575094Y-21453962D01*
X12575094Y-21453962D02*
X12565571Y-21444438D01*
X12565571Y-21444438D02*
X12546523Y-21434914D01*
X12546523Y-21434914D02*
X12508428Y-21434914D01*
X12508428Y-21434914D02*
X12489380Y-21444438D01*
X12489380Y-21444438D02*
X12479856Y-21453962D01*
X12479856Y-21453962D02*
X12470333Y-21473009D01*
X12470333Y-21473009D02*
X12470333Y-21520628D01*
X12470333Y-21520628D02*
X12479856Y-21539676D01*
X12479856Y-21539676D02*
X12489380Y-21549200D01*
X12489380Y-21549200D02*
X12508428Y-21558724D01*
X12508428Y-21558724D02*
X12546523Y-21558724D01*
X12546523Y-21558724D02*
X12565571Y-21549200D01*
X12565571Y-21549200D02*
X12575094Y-21539676D01*
X12575094Y-21539676D02*
X12584618Y-21520628D01*
X12765571Y-21434914D02*
X12670333Y-21434914D01*
X12670333Y-21434914D02*
X12660809Y-21530152D01*
X12660809Y-21530152D02*
X12670333Y-21520628D01*
X12670333Y-21520628D02*
X12689380Y-21511104D01*
X12689380Y-21511104D02*
X12736999Y-21511104D01*
X12736999Y-21511104D02*
X12756047Y-21520628D01*
X12756047Y-21520628D02*
X12765571Y-21530152D01*
X12765571Y-21530152D02*
X12775094Y-21549200D01*
X12775094Y-21549200D02*
X12775094Y-21596819D01*
X12775094Y-21596819D02*
X12765571Y-21615866D01*
X12765571Y-21615866D02*
X12756047Y-21625390D01*
X12756047Y-21625390D02*
X12736999Y-21634914D01*
X12736999Y-21634914D02*
X12689380Y-21634914D01*
X12689380Y-21634914D02*
X12670333Y-21625390D01*
X12670333Y-21625390D02*
X12660809Y-21615866D01*
X12860809Y-21634914D02*
X12860809Y-21501581D01*
X12860809Y-21520628D02*
X12870333Y-21511104D01*
X12870333Y-21511104D02*
X12889380Y-21501581D01*
X12889380Y-21501581D02*
X12917952Y-21501581D01*
X12917952Y-21501581D02*
X12936999Y-21511104D01*
X12936999Y-21511104D02*
X12946523Y-21530152D01*
X12946523Y-21530152D02*
X12946523Y-21634914D01*
X12946523Y-21530152D02*
X12956047Y-21511104D01*
X12956047Y-21511104D02*
X12975094Y-21501581D01*
X12975094Y-21501581D02*
X13003666Y-21501581D01*
X13003666Y-21501581D02*
X13022714Y-21511104D01*
X13022714Y-21511104D02*
X13032237Y-21530152D01*
X13032237Y-21530152D02*
X13032237Y-21634914D01*
X13127475Y-21634914D02*
X13127475Y-21501581D01*
X13127475Y-21520628D02*
X13136999Y-21511104D01*
X13136999Y-21511104D02*
X13156047Y-21501581D01*
X13156047Y-21501581D02*
X13184618Y-21501581D01*
X13184618Y-21501581D02*
X13203666Y-21511104D01*
X13203666Y-21511104D02*
X13213190Y-21530152D01*
X13213190Y-21530152D02*
X13213190Y-21634914D01*
X13213190Y-21530152D02*
X13222714Y-21511104D01*
X13222714Y-21511104D02*
X13241761Y-21501581D01*
X13241761Y-21501581D02*
X13270333Y-21501581D01*
X13270333Y-21501581D02*
X13289380Y-21511104D01*
X13289380Y-21511104D02*
X13298904Y-21530152D01*
X13298904Y-21530152D02*
X13298904Y-21634914D01*
X13689380Y-21425390D02*
X13517952Y-21682533D01*
X13946523Y-21434914D02*
X13965571Y-21434914D01*
X13965571Y-21434914D02*
X13984618Y-21444438D01*
X13984618Y-21444438D02*
X13994142Y-21453962D01*
X13994142Y-21453962D02*
X14003666Y-21473009D01*
X14003666Y-21473009D02*
X14013190Y-21511104D01*
X14013190Y-21511104D02*
X14013190Y-21558724D01*
X14013190Y-21558724D02*
X14003666Y-21596819D01*
X14003666Y-21596819D02*
X13994142Y-21615866D01*
X13994142Y-21615866D02*
X13984618Y-21625390D01*
X13984618Y-21625390D02*
X13965571Y-21634914D01*
X13965571Y-21634914D02*
X13946523Y-21634914D01*
X13946523Y-21634914D02*
X13927476Y-21625390D01*
X13927476Y-21625390D02*
X13917952Y-21615866D01*
X13917952Y-21615866D02*
X13908428Y-21596819D01*
X13908428Y-21596819D02*
X13898904Y-21558724D01*
X13898904Y-21558724D02*
X13898904Y-21511104D01*
X13898904Y-21511104D02*
X13908428Y-21473009D01*
X13908428Y-21473009D02*
X13917952Y-21453962D01*
X13917952Y-21453962D02*
X13927476Y-21444438D01*
X13927476Y-21444438D02*
X13946523Y-21434914D01*
X14098904Y-21615866D02*
X14108428Y-21625390D01*
X14108428Y-21625390D02*
X14098904Y-21634914D01*
X14098904Y-21634914D02*
X14089380Y-21625390D01*
X14089380Y-21625390D02*
X14098904Y-21615866D01*
X14098904Y-21615866D02*
X14098904Y-21634914D01*
X14232237Y-21434914D02*
X14251285Y-21434914D01*
X14251285Y-21434914D02*
X14270333Y-21444438D01*
X14270333Y-21444438D02*
X14279857Y-21453962D01*
X14279857Y-21453962D02*
X14289380Y-21473009D01*
X14289380Y-21473009D02*
X14298904Y-21511104D01*
X14298904Y-21511104D02*
X14298904Y-21558724D01*
X14298904Y-21558724D02*
X14289380Y-21596819D01*
X14289380Y-21596819D02*
X14279857Y-21615866D01*
X14279857Y-21615866D02*
X14270333Y-21625390D01*
X14270333Y-21625390D02*
X14251285Y-21634914D01*
X14251285Y-21634914D02*
X14232237Y-21634914D01*
X14232237Y-21634914D02*
X14213190Y-21625390D01*
X14213190Y-21625390D02*
X14203666Y-21615866D01*
X14203666Y-21615866D02*
X14194142Y-21596819D01*
X14194142Y-21596819D02*
X14184618Y-21558724D01*
X14184618Y-21558724D02*
X14184618Y-21511104D01*
X14184618Y-21511104D02*
X14194142Y-21473009D01*
X14194142Y-21473009D02*
X14203666Y-21453962D01*
X14203666Y-21453962D02*
X14213190Y-21444438D01*
X14213190Y-21444438D02*
X14232237Y-21434914D01*
X14479857Y-21434914D02*
X14384618Y-21434914D01*
X14384618Y-21434914D02*
X14375095Y-21530152D01*
X14375095Y-21530152D02*
X14384618Y-21520628D01*
X14384618Y-21520628D02*
X14403666Y-21511104D01*
X14403666Y-21511104D02*
X14451285Y-21511104D01*
X14451285Y-21511104D02*
X14470333Y-21520628D01*
X14470333Y-21520628D02*
X14479857Y-21530152D01*
X14479857Y-21530152D02*
X14489380Y-21549200D01*
X14489380Y-21549200D02*
X14489380Y-21596819D01*
X14489380Y-21596819D02*
X14479857Y-21615866D01*
X14479857Y-21615866D02*
X14470333Y-21625390D01*
X14470333Y-21625390D02*
X14451285Y-21634914D01*
X14451285Y-21634914D02*
X14403666Y-21634914D01*
X14403666Y-21634914D02*
X14384618Y-21625390D01*
X14384618Y-21625390D02*
X14375095Y-21615866D01*
X14679857Y-21634914D02*
X14565571Y-21634914D01*
X14622714Y-21634914D02*
X14622714Y-21434914D01*
X14622714Y-21434914D02*
X14603666Y-21463485D01*
X14603666Y-21463485D02*
X14584618Y-21482533D01*
X14584618Y-21482533D02*
X14565571Y-21492057D01*
X14803666Y-21434914D02*
X14822714Y-21434914D01*
X14822714Y-21434914D02*
X14841761Y-21444438D01*
X14841761Y-21444438D02*
X14851285Y-21453962D01*
X14851285Y-21453962D02*
X14860809Y-21473009D01*
X14860809Y-21473009D02*
X14870333Y-21511104D01*
X14870333Y-21511104D02*
X14870333Y-21558724D01*
X14870333Y-21558724D02*
X14860809Y-21596819D01*
X14860809Y-21596819D02*
X14851285Y-21615866D01*
X14851285Y-21615866D02*
X14841761Y-21625390D01*
X14841761Y-21625390D02*
X14822714Y-21634914D01*
X14822714Y-21634914D02*
X14803666Y-21634914D01*
X14803666Y-21634914D02*
X14784618Y-21625390D01*
X14784618Y-21625390D02*
X14775095Y-21615866D01*
X14775095Y-21615866D02*
X14765571Y-21596819D01*
X14765571Y-21596819D02*
X14756047Y-21558724D01*
X14756047Y-21558724D02*
X14756047Y-21511104D01*
X14756047Y-21511104D02*
X14765571Y-21473009D01*
X14765571Y-21473009D02*
X14775095Y-21453962D01*
X14775095Y-21453962D02*
X14784618Y-21444438D01*
X14784618Y-21444438D02*
X14803666Y-21434914D01*
X14946523Y-21434914D02*
X14946523Y-21473009D01*
X15022714Y-21434914D02*
X15022714Y-21473009D01*
X15317952Y-21711104D02*
X15308428Y-21701581D01*
X15308428Y-21701581D02*
X15289380Y-21673009D01*
X15289380Y-21673009D02*
X15279857Y-21653962D01*
X15279857Y-21653962D02*
X15270333Y-21625390D01*
X15270333Y-21625390D02*
X15260809Y-21577771D01*
X15260809Y-21577771D02*
X15260809Y-21539676D01*
X15260809Y-21539676D02*
X15270333Y-21492057D01*
X15270333Y-21492057D02*
X15279857Y-21463485D01*
X15279857Y-21463485D02*
X15289380Y-21444438D01*
X15289380Y-21444438D02*
X15308428Y-21415866D01*
X15308428Y-21415866D02*
X15317952Y-21406343D01*
X15479857Y-21501581D02*
X15479857Y-21634914D01*
X15432238Y-21425390D02*
X15384619Y-21568247D01*
X15384619Y-21568247D02*
X15508428Y-21568247D01*
X15737000Y-21634914D02*
X15737000Y-21434914D01*
X15822714Y-21634914D02*
X15822714Y-21530152D01*
X15822714Y-21530152D02*
X15813190Y-21511104D01*
X15813190Y-21511104D02*
X15794142Y-21501581D01*
X15794142Y-21501581D02*
X15765571Y-21501581D01*
X15765571Y-21501581D02*
X15746523Y-21511104D01*
X15746523Y-21511104D02*
X15737000Y-21520628D01*
X15946523Y-21634914D02*
X15927476Y-21625390D01*
X15927476Y-21625390D02*
X15917952Y-21615866D01*
X15917952Y-21615866D02*
X15908428Y-21596819D01*
X15908428Y-21596819D02*
X15908428Y-21539676D01*
X15908428Y-21539676D02*
X15917952Y-21520628D01*
X15917952Y-21520628D02*
X15927476Y-21511104D01*
X15927476Y-21511104D02*
X15946523Y-21501581D01*
X15946523Y-21501581D02*
X15975095Y-21501581D01*
X15975095Y-21501581D02*
X15994142Y-21511104D01*
X15994142Y-21511104D02*
X16003666Y-21520628D01*
X16003666Y-21520628D02*
X16013190Y-21539676D01*
X16013190Y-21539676D02*
X16013190Y-21596819D01*
X16013190Y-21596819D02*
X16003666Y-21615866D01*
X16003666Y-21615866D02*
X15994142Y-21625390D01*
X15994142Y-21625390D02*
X15975095Y-21634914D01*
X15975095Y-21634914D02*
X15946523Y-21634914D01*
X16127476Y-21634914D02*
X16108428Y-21625390D01*
X16108428Y-21625390D02*
X16098904Y-21606343D01*
X16098904Y-21606343D02*
X16098904Y-21434914D01*
X16279857Y-21625390D02*
X16260809Y-21634914D01*
X16260809Y-21634914D02*
X16222714Y-21634914D01*
X16222714Y-21634914D02*
X16203666Y-21625390D01*
X16203666Y-21625390D02*
X16194142Y-21606343D01*
X16194142Y-21606343D02*
X16194142Y-21530152D01*
X16194142Y-21530152D02*
X16203666Y-21511104D01*
X16203666Y-21511104D02*
X16222714Y-21501581D01*
X16222714Y-21501581D02*
X16260809Y-21501581D01*
X16260809Y-21501581D02*
X16279857Y-21511104D01*
X16279857Y-21511104D02*
X16289381Y-21530152D01*
X16289381Y-21530152D02*
X16289381Y-21549200D01*
X16289381Y-21549200D02*
X16194142Y-21568247D01*
X16365571Y-21625390D02*
X16384619Y-21634914D01*
X16384619Y-21634914D02*
X16422714Y-21634914D01*
X16422714Y-21634914D02*
X16441762Y-21625390D01*
X16441762Y-21625390D02*
X16451285Y-21606343D01*
X16451285Y-21606343D02*
X16451285Y-21596819D01*
X16451285Y-21596819D02*
X16441762Y-21577771D01*
X16441762Y-21577771D02*
X16422714Y-21568247D01*
X16422714Y-21568247D02*
X16394142Y-21568247D01*
X16394142Y-21568247D02*
X16375095Y-21558724D01*
X16375095Y-21558724D02*
X16365571Y-21539676D01*
X16365571Y-21539676D02*
X16365571Y-21530152D01*
X16365571Y-21530152D02*
X16375095Y-21511104D01*
X16375095Y-21511104D02*
X16394142Y-21501581D01*
X16394142Y-21501581D02*
X16422714Y-21501581D01*
X16422714Y-21501581D02*
X16441762Y-21511104D01*
X16517952Y-21711104D02*
X16527476Y-21701581D01*
X16527476Y-21701581D02*
X16546523Y-21673009D01*
X16546523Y-21673009D02*
X16556047Y-21653962D01*
X16556047Y-21653962D02*
X16565571Y-21625390D01*
X16565571Y-21625390D02*
X16575095Y-21577771D01*
X16575095Y-21577771D02*
X16575095Y-21539676D01*
X16575095Y-21539676D02*
X16565571Y-21492057D01*
X16565571Y-21492057D02*
X16556047Y-21463485D01*
X16556047Y-21463485D02*
X16546523Y-21444438D01*
X16546523Y-21444438D02*
X16527476Y-21415866D01*
X16527476Y-21415866D02*
X16517952Y-21406343D01*
X16879857Y-21711104D02*
X16870333Y-21701581D01*
X16870333Y-21701581D02*
X16851285Y-21673009D01*
X16851285Y-21673009D02*
X16841762Y-21653962D01*
X16841762Y-21653962D02*
X16832238Y-21625390D01*
X16832238Y-21625390D02*
X16822714Y-21577771D01*
X16822714Y-21577771D02*
X16822714Y-21539676D01*
X16822714Y-21539676D02*
X16832238Y-21492057D01*
X16832238Y-21492057D02*
X16841762Y-21463485D01*
X16841762Y-21463485D02*
X16851285Y-21444438D01*
X16851285Y-21444438D02*
X16870333Y-21415866D01*
X16870333Y-21415866D02*
X16879857Y-21406343D01*
X16956047Y-21501581D02*
X16956047Y-21634914D01*
X16956047Y-21520628D02*
X16965571Y-21511104D01*
X16965571Y-21511104D02*
X16984619Y-21501581D01*
X16984619Y-21501581D02*
X17013190Y-21501581D01*
X17013190Y-21501581D02*
X17032238Y-21511104D01*
X17032238Y-21511104D02*
X17041762Y-21530152D01*
X17041762Y-21530152D02*
X17041762Y-21634914D01*
X17165571Y-21634914D02*
X17146524Y-21625390D01*
X17146524Y-21625390D02*
X17137000Y-21615866D01*
X17137000Y-21615866D02*
X17127476Y-21596819D01*
X17127476Y-21596819D02*
X17127476Y-21539676D01*
X17127476Y-21539676D02*
X17137000Y-21520628D01*
X17137000Y-21520628D02*
X17146524Y-21511104D01*
X17146524Y-21511104D02*
X17165571Y-21501581D01*
X17165571Y-21501581D02*
X17194143Y-21501581D01*
X17194143Y-21501581D02*
X17213190Y-21511104D01*
X17213190Y-21511104D02*
X17222714Y-21520628D01*
X17222714Y-21520628D02*
X17232238Y-21539676D01*
X17232238Y-21539676D02*
X17232238Y-21596819D01*
X17232238Y-21596819D02*
X17222714Y-21615866D01*
X17222714Y-21615866D02*
X17213190Y-21625390D01*
X17213190Y-21625390D02*
X17194143Y-21634914D01*
X17194143Y-21634914D02*
X17165571Y-21634914D01*
X17289381Y-21501581D02*
X17365571Y-21501581D01*
X17317952Y-21434914D02*
X17317952Y-21606343D01*
X17317952Y-21606343D02*
X17327476Y-21625390D01*
X17327476Y-21625390D02*
X17346524Y-21634914D01*
X17346524Y-21634914D02*
X17365571Y-21634914D01*
X17584619Y-21501581D02*
X17584619Y-21701581D01*
X17584619Y-21511104D02*
X17603666Y-21501581D01*
X17603666Y-21501581D02*
X17641762Y-21501581D01*
X17641762Y-21501581D02*
X17660809Y-21511104D01*
X17660809Y-21511104D02*
X17670333Y-21520628D01*
X17670333Y-21520628D02*
X17679857Y-21539676D01*
X17679857Y-21539676D02*
X17679857Y-21596819D01*
X17679857Y-21596819D02*
X17670333Y-21615866D01*
X17670333Y-21615866D02*
X17660809Y-21625390D01*
X17660809Y-21625390D02*
X17641762Y-21634914D01*
X17641762Y-21634914D02*
X17603666Y-21634914D01*
X17603666Y-21634914D02*
X17584619Y-21625390D01*
X17794143Y-21634914D02*
X17775095Y-21625390D01*
X17775095Y-21625390D02*
X17765571Y-21606343D01*
X17765571Y-21606343D02*
X17765571Y-21434914D01*
X17956047Y-21634914D02*
X17956047Y-21530152D01*
X17956047Y-21530152D02*
X17946524Y-21511104D01*
X17946524Y-21511104D02*
X17927476Y-21501581D01*
X17927476Y-21501581D02*
X17889381Y-21501581D01*
X17889381Y-21501581D02*
X17870333Y-21511104D01*
X17956047Y-21625390D02*
X17937000Y-21634914D01*
X17937000Y-21634914D02*
X17889381Y-21634914D01*
X17889381Y-21634914D02*
X17870333Y-21625390D01*
X17870333Y-21625390D02*
X17860809Y-21606343D01*
X17860809Y-21606343D02*
X17860809Y-21587295D01*
X17860809Y-21587295D02*
X17870333Y-21568247D01*
X17870333Y-21568247D02*
X17889381Y-21558724D01*
X17889381Y-21558724D02*
X17937000Y-21558724D01*
X17937000Y-21558724D02*
X17956047Y-21549200D01*
X18022714Y-21501581D02*
X18098905Y-21501581D01*
X18051286Y-21434914D02*
X18051286Y-21606343D01*
X18051286Y-21606343D02*
X18060809Y-21625390D01*
X18060809Y-21625390D02*
X18079857Y-21634914D01*
X18079857Y-21634914D02*
X18098905Y-21634914D01*
X18241762Y-21625390D02*
X18222714Y-21634914D01*
X18222714Y-21634914D02*
X18184619Y-21634914D01*
X18184619Y-21634914D02*
X18165571Y-21625390D01*
X18165571Y-21625390D02*
X18156047Y-21606343D01*
X18156047Y-21606343D02*
X18156047Y-21530152D01*
X18156047Y-21530152D02*
X18165571Y-21511104D01*
X18165571Y-21511104D02*
X18184619Y-21501581D01*
X18184619Y-21501581D02*
X18222714Y-21501581D01*
X18222714Y-21501581D02*
X18241762Y-21511104D01*
X18241762Y-21511104D02*
X18251286Y-21530152D01*
X18251286Y-21530152D02*
X18251286Y-21549200D01*
X18251286Y-21549200D02*
X18156047Y-21568247D01*
X18422714Y-21634914D02*
X18422714Y-21434914D01*
X18422714Y-21625390D02*
X18403667Y-21634914D01*
X18403667Y-21634914D02*
X18365571Y-21634914D01*
X18365571Y-21634914D02*
X18346524Y-21625390D01*
X18346524Y-21625390D02*
X18337000Y-21615866D01*
X18337000Y-21615866D02*
X18327476Y-21596819D01*
X18327476Y-21596819D02*
X18327476Y-21539676D01*
X18327476Y-21539676D02*
X18337000Y-21520628D01*
X18337000Y-21520628D02*
X18346524Y-21511104D01*
X18346524Y-21511104D02*
X18365571Y-21501581D01*
X18365571Y-21501581D02*
X18403667Y-21501581D01*
X18403667Y-21501581D02*
X18422714Y-21511104D01*
X18498905Y-21711104D02*
X18508428Y-21701581D01*
X18508428Y-21701581D02*
X18527476Y-21673009D01*
X18527476Y-21673009D02*
X18537000Y-21653962D01*
X18537000Y-21653962D02*
X18546524Y-21625390D01*
X18546524Y-21625390D02*
X18556047Y-21577771D01*
X18556047Y-21577771D02*
X18556047Y-21539676D01*
X18556047Y-21539676D02*
X18546524Y-21492057D01*
X18546524Y-21492057D02*
X18537000Y-21463485D01*
X18537000Y-21463485D02*
X18527476Y-21444438D01*
X18527476Y-21444438D02*
X18508428Y-21415866D01*
X18508428Y-21415866D02*
X18498905Y-21406343D01*
D14*
X11718726Y-21865767D02*
X11718726Y-21749093D01*
X11602052Y-21749093D01*
X11602052Y-21865767D01*
X11718726Y-21865767D01*
D11*
X12108428Y-21898914D02*
X11994142Y-21898914D01*
X12051285Y-21898914D02*
X12051285Y-21698914D01*
X12051285Y-21698914D02*
X12032237Y-21727485D01*
X12032237Y-21727485D02*
X12013190Y-21746533D01*
X12013190Y-21746533D02*
X11994142Y-21756057D01*
X12194142Y-21879866D02*
X12203666Y-21889390D01*
X12203666Y-21889390D02*
X12194142Y-21898914D01*
X12194142Y-21898914D02*
X12184618Y-21889390D01*
X12184618Y-21889390D02*
X12194142Y-21879866D01*
X12194142Y-21879866D02*
X12194142Y-21898914D01*
X12375094Y-21698914D02*
X12336999Y-21698914D01*
X12336999Y-21698914D02*
X12317952Y-21708438D01*
X12317952Y-21708438D02*
X12308428Y-21717962D01*
X12308428Y-21717962D02*
X12289380Y-21746533D01*
X12289380Y-21746533D02*
X12279856Y-21784628D01*
X12279856Y-21784628D02*
X12279856Y-21860819D01*
X12279856Y-21860819D02*
X12289380Y-21879866D01*
X12289380Y-21879866D02*
X12298904Y-21889390D01*
X12298904Y-21889390D02*
X12317952Y-21898914D01*
X12317952Y-21898914D02*
X12356047Y-21898914D01*
X12356047Y-21898914D02*
X12375094Y-21889390D01*
X12375094Y-21889390D02*
X12384618Y-21879866D01*
X12384618Y-21879866D02*
X12394142Y-21860819D01*
X12394142Y-21860819D02*
X12394142Y-21813200D01*
X12394142Y-21813200D02*
X12384618Y-21794152D01*
X12384618Y-21794152D02*
X12375094Y-21784628D01*
X12375094Y-21784628D02*
X12356047Y-21775104D01*
X12356047Y-21775104D02*
X12317952Y-21775104D01*
X12317952Y-21775104D02*
X12298904Y-21784628D01*
X12298904Y-21784628D02*
X12289380Y-21794152D01*
X12289380Y-21794152D02*
X12279856Y-21813200D01*
X12575094Y-21698914D02*
X12479856Y-21698914D01*
X12479856Y-21698914D02*
X12470333Y-21794152D01*
X12470333Y-21794152D02*
X12479856Y-21784628D01*
X12479856Y-21784628D02*
X12498904Y-21775104D01*
X12498904Y-21775104D02*
X12546523Y-21775104D01*
X12546523Y-21775104D02*
X12565571Y-21784628D01*
X12565571Y-21784628D02*
X12575094Y-21794152D01*
X12575094Y-21794152D02*
X12584618Y-21813200D01*
X12584618Y-21813200D02*
X12584618Y-21860819D01*
X12584618Y-21860819D02*
X12575094Y-21879866D01*
X12575094Y-21879866D02*
X12565571Y-21889390D01*
X12565571Y-21889390D02*
X12546523Y-21898914D01*
X12546523Y-21898914D02*
X12498904Y-21898914D01*
X12498904Y-21898914D02*
X12479856Y-21889390D01*
X12479856Y-21889390D02*
X12470333Y-21879866D01*
X12708428Y-21698914D02*
X12727475Y-21698914D01*
X12727475Y-21698914D02*
X12746523Y-21708438D01*
X12746523Y-21708438D02*
X12756047Y-21717962D01*
X12756047Y-21717962D02*
X12765571Y-21737009D01*
X12765571Y-21737009D02*
X12775094Y-21775104D01*
X12775094Y-21775104D02*
X12775094Y-21822724D01*
X12775094Y-21822724D02*
X12765571Y-21860819D01*
X12765571Y-21860819D02*
X12756047Y-21879866D01*
X12756047Y-21879866D02*
X12746523Y-21889390D01*
X12746523Y-21889390D02*
X12727475Y-21898914D01*
X12727475Y-21898914D02*
X12708428Y-21898914D01*
X12708428Y-21898914D02*
X12689380Y-21889390D01*
X12689380Y-21889390D02*
X12679856Y-21879866D01*
X12679856Y-21879866D02*
X12670333Y-21860819D01*
X12670333Y-21860819D02*
X12660809Y-21822724D01*
X12660809Y-21822724D02*
X12660809Y-21775104D01*
X12660809Y-21775104D02*
X12670333Y-21737009D01*
X12670333Y-21737009D02*
X12679856Y-21717962D01*
X12679856Y-21717962D02*
X12689380Y-21708438D01*
X12689380Y-21708438D02*
X12708428Y-21698914D01*
X12860809Y-21898914D02*
X12860809Y-21765581D01*
X12860809Y-21784628D02*
X12870333Y-21775104D01*
X12870333Y-21775104D02*
X12889380Y-21765581D01*
X12889380Y-21765581D02*
X12917952Y-21765581D01*
X12917952Y-21765581D02*
X12936999Y-21775104D01*
X12936999Y-21775104D02*
X12946523Y-21794152D01*
X12946523Y-21794152D02*
X12946523Y-21898914D01*
X12946523Y-21794152D02*
X12956047Y-21775104D01*
X12956047Y-21775104D02*
X12975094Y-21765581D01*
X12975094Y-21765581D02*
X13003666Y-21765581D01*
X13003666Y-21765581D02*
X13022714Y-21775104D01*
X13022714Y-21775104D02*
X13032237Y-21794152D01*
X13032237Y-21794152D02*
X13032237Y-21898914D01*
X13127475Y-21898914D02*
X13127475Y-21765581D01*
X13127475Y-21784628D02*
X13136999Y-21775104D01*
X13136999Y-21775104D02*
X13156047Y-21765581D01*
X13156047Y-21765581D02*
X13184618Y-21765581D01*
X13184618Y-21765581D02*
X13203666Y-21775104D01*
X13203666Y-21775104D02*
X13213190Y-21794152D01*
X13213190Y-21794152D02*
X13213190Y-21898914D01*
X13213190Y-21794152D02*
X13222714Y-21775104D01*
X13222714Y-21775104D02*
X13241761Y-21765581D01*
X13241761Y-21765581D02*
X13270333Y-21765581D01*
X13270333Y-21765581D02*
X13289380Y-21775104D01*
X13289380Y-21775104D02*
X13298904Y-21794152D01*
X13298904Y-21794152D02*
X13298904Y-21898914D01*
X13689380Y-21689390D02*
X13517952Y-21946533D01*
X13946523Y-21698914D02*
X13965571Y-21698914D01*
X13965571Y-21698914D02*
X13984618Y-21708438D01*
X13984618Y-21708438D02*
X13994142Y-21717962D01*
X13994142Y-21717962D02*
X14003666Y-21737009D01*
X14003666Y-21737009D02*
X14013190Y-21775104D01*
X14013190Y-21775104D02*
X14013190Y-21822724D01*
X14013190Y-21822724D02*
X14003666Y-21860819D01*
X14003666Y-21860819D02*
X13994142Y-21879866D01*
X13994142Y-21879866D02*
X13984618Y-21889390D01*
X13984618Y-21889390D02*
X13965571Y-21898914D01*
X13965571Y-21898914D02*
X13946523Y-21898914D01*
X13946523Y-21898914D02*
X13927476Y-21889390D01*
X13927476Y-21889390D02*
X13917952Y-21879866D01*
X13917952Y-21879866D02*
X13908428Y-21860819D01*
X13908428Y-21860819D02*
X13898904Y-21822724D01*
X13898904Y-21822724D02*
X13898904Y-21775104D01*
X13898904Y-21775104D02*
X13908428Y-21737009D01*
X13908428Y-21737009D02*
X13917952Y-21717962D01*
X13917952Y-21717962D02*
X13927476Y-21708438D01*
X13927476Y-21708438D02*
X13946523Y-21698914D01*
X14098904Y-21879866D02*
X14108428Y-21889390D01*
X14108428Y-21889390D02*
X14098904Y-21898914D01*
X14098904Y-21898914D02*
X14089380Y-21889390D01*
X14089380Y-21889390D02*
X14098904Y-21879866D01*
X14098904Y-21879866D02*
X14098904Y-21898914D01*
X14232237Y-21698914D02*
X14251285Y-21698914D01*
X14251285Y-21698914D02*
X14270333Y-21708438D01*
X14270333Y-21708438D02*
X14279857Y-21717962D01*
X14279857Y-21717962D02*
X14289380Y-21737009D01*
X14289380Y-21737009D02*
X14298904Y-21775104D01*
X14298904Y-21775104D02*
X14298904Y-21822724D01*
X14298904Y-21822724D02*
X14289380Y-21860819D01*
X14289380Y-21860819D02*
X14279857Y-21879866D01*
X14279857Y-21879866D02*
X14270333Y-21889390D01*
X14270333Y-21889390D02*
X14251285Y-21898914D01*
X14251285Y-21898914D02*
X14232237Y-21898914D01*
X14232237Y-21898914D02*
X14213190Y-21889390D01*
X14213190Y-21889390D02*
X14203666Y-21879866D01*
X14203666Y-21879866D02*
X14194142Y-21860819D01*
X14194142Y-21860819D02*
X14184618Y-21822724D01*
X14184618Y-21822724D02*
X14184618Y-21775104D01*
X14184618Y-21775104D02*
X14194142Y-21737009D01*
X14194142Y-21737009D02*
X14203666Y-21717962D01*
X14203666Y-21717962D02*
X14213190Y-21708438D01*
X14213190Y-21708438D02*
X14232237Y-21698914D01*
X14470333Y-21698914D02*
X14432237Y-21698914D01*
X14432237Y-21698914D02*
X14413190Y-21708438D01*
X14413190Y-21708438D02*
X14403666Y-21717962D01*
X14403666Y-21717962D02*
X14384618Y-21746533D01*
X14384618Y-21746533D02*
X14375095Y-21784628D01*
X14375095Y-21784628D02*
X14375095Y-21860819D01*
X14375095Y-21860819D02*
X14384618Y-21879866D01*
X14384618Y-21879866D02*
X14394142Y-21889390D01*
X14394142Y-21889390D02*
X14413190Y-21898914D01*
X14413190Y-21898914D02*
X14451285Y-21898914D01*
X14451285Y-21898914D02*
X14470333Y-21889390D01*
X14470333Y-21889390D02*
X14479857Y-21879866D01*
X14479857Y-21879866D02*
X14489380Y-21860819D01*
X14489380Y-21860819D02*
X14489380Y-21813200D01*
X14489380Y-21813200D02*
X14479857Y-21794152D01*
X14479857Y-21794152D02*
X14470333Y-21784628D01*
X14470333Y-21784628D02*
X14451285Y-21775104D01*
X14451285Y-21775104D02*
X14413190Y-21775104D01*
X14413190Y-21775104D02*
X14394142Y-21784628D01*
X14394142Y-21784628D02*
X14384618Y-21794152D01*
X14384618Y-21794152D02*
X14375095Y-21813200D01*
X14670333Y-21698914D02*
X14575095Y-21698914D01*
X14575095Y-21698914D02*
X14565571Y-21794152D01*
X14565571Y-21794152D02*
X14575095Y-21784628D01*
X14575095Y-21784628D02*
X14594142Y-21775104D01*
X14594142Y-21775104D02*
X14641761Y-21775104D01*
X14641761Y-21775104D02*
X14660809Y-21784628D01*
X14660809Y-21784628D02*
X14670333Y-21794152D01*
X14670333Y-21794152D02*
X14679857Y-21813200D01*
X14679857Y-21813200D02*
X14679857Y-21860819D01*
X14679857Y-21860819D02*
X14670333Y-21879866D01*
X14670333Y-21879866D02*
X14660809Y-21889390D01*
X14660809Y-21889390D02*
X14641761Y-21898914D01*
X14641761Y-21898914D02*
X14594142Y-21898914D01*
X14594142Y-21898914D02*
X14575095Y-21889390D01*
X14575095Y-21889390D02*
X14565571Y-21879866D01*
X14803666Y-21698914D02*
X14822714Y-21698914D01*
X14822714Y-21698914D02*
X14841761Y-21708438D01*
X14841761Y-21708438D02*
X14851285Y-21717962D01*
X14851285Y-21717962D02*
X14860809Y-21737009D01*
X14860809Y-21737009D02*
X14870333Y-21775104D01*
X14870333Y-21775104D02*
X14870333Y-21822724D01*
X14870333Y-21822724D02*
X14860809Y-21860819D01*
X14860809Y-21860819D02*
X14851285Y-21879866D01*
X14851285Y-21879866D02*
X14841761Y-21889390D01*
X14841761Y-21889390D02*
X14822714Y-21898914D01*
X14822714Y-21898914D02*
X14803666Y-21898914D01*
X14803666Y-21898914D02*
X14784618Y-21889390D01*
X14784618Y-21889390D02*
X14775095Y-21879866D01*
X14775095Y-21879866D02*
X14765571Y-21860819D01*
X14765571Y-21860819D02*
X14756047Y-21822724D01*
X14756047Y-21822724D02*
X14756047Y-21775104D01*
X14756047Y-21775104D02*
X14765571Y-21737009D01*
X14765571Y-21737009D02*
X14775095Y-21717962D01*
X14775095Y-21717962D02*
X14784618Y-21708438D01*
X14784618Y-21708438D02*
X14803666Y-21698914D01*
X14946523Y-21698914D02*
X14946523Y-21737009D01*
X15022714Y-21698914D02*
X15022714Y-21737009D01*
X15317952Y-21975104D02*
X15308428Y-21965581D01*
X15308428Y-21965581D02*
X15289380Y-21937009D01*
X15289380Y-21937009D02*
X15279857Y-21917962D01*
X15279857Y-21917962D02*
X15270333Y-21889390D01*
X15270333Y-21889390D02*
X15260809Y-21841771D01*
X15260809Y-21841771D02*
X15260809Y-21803676D01*
X15260809Y-21803676D02*
X15270333Y-21756057D01*
X15270333Y-21756057D02*
X15279857Y-21727485D01*
X15279857Y-21727485D02*
X15289380Y-21708438D01*
X15289380Y-21708438D02*
X15308428Y-21679866D01*
X15308428Y-21679866D02*
X15317952Y-21670343D01*
X15498904Y-21898914D02*
X15384619Y-21898914D01*
X15441761Y-21898914D02*
X15441761Y-21698914D01*
X15441761Y-21698914D02*
X15422714Y-21727485D01*
X15422714Y-21727485D02*
X15403666Y-21746533D01*
X15403666Y-21746533D02*
X15384619Y-21756057D01*
X15737000Y-21898914D02*
X15737000Y-21698914D01*
X15822714Y-21898914D02*
X15822714Y-21794152D01*
X15822714Y-21794152D02*
X15813190Y-21775104D01*
X15813190Y-21775104D02*
X15794142Y-21765581D01*
X15794142Y-21765581D02*
X15765571Y-21765581D01*
X15765571Y-21765581D02*
X15746523Y-21775104D01*
X15746523Y-21775104D02*
X15737000Y-21784628D01*
X15946523Y-21898914D02*
X15927476Y-21889390D01*
X15927476Y-21889390D02*
X15917952Y-21879866D01*
X15917952Y-21879866D02*
X15908428Y-21860819D01*
X15908428Y-21860819D02*
X15908428Y-21803676D01*
X15908428Y-21803676D02*
X15917952Y-21784628D01*
X15917952Y-21784628D02*
X15927476Y-21775104D01*
X15927476Y-21775104D02*
X15946523Y-21765581D01*
X15946523Y-21765581D02*
X15975095Y-21765581D01*
X15975095Y-21765581D02*
X15994142Y-21775104D01*
X15994142Y-21775104D02*
X16003666Y-21784628D01*
X16003666Y-21784628D02*
X16013190Y-21803676D01*
X16013190Y-21803676D02*
X16013190Y-21860819D01*
X16013190Y-21860819D02*
X16003666Y-21879866D01*
X16003666Y-21879866D02*
X15994142Y-21889390D01*
X15994142Y-21889390D02*
X15975095Y-21898914D01*
X15975095Y-21898914D02*
X15946523Y-21898914D01*
X16127476Y-21898914D02*
X16108428Y-21889390D01*
X16108428Y-21889390D02*
X16098904Y-21870343D01*
X16098904Y-21870343D02*
X16098904Y-21698914D01*
X16279857Y-21889390D02*
X16260809Y-21898914D01*
X16260809Y-21898914D02*
X16222714Y-21898914D01*
X16222714Y-21898914D02*
X16203666Y-21889390D01*
X16203666Y-21889390D02*
X16194142Y-21870343D01*
X16194142Y-21870343D02*
X16194142Y-21794152D01*
X16194142Y-21794152D02*
X16203666Y-21775104D01*
X16203666Y-21775104D02*
X16222714Y-21765581D01*
X16222714Y-21765581D02*
X16260809Y-21765581D01*
X16260809Y-21765581D02*
X16279857Y-21775104D01*
X16279857Y-21775104D02*
X16289381Y-21794152D01*
X16289381Y-21794152D02*
X16289381Y-21813200D01*
X16289381Y-21813200D02*
X16194142Y-21832247D01*
X16356047Y-21975104D02*
X16365571Y-21965581D01*
X16365571Y-21965581D02*
X16384619Y-21937009D01*
X16384619Y-21937009D02*
X16394142Y-21917962D01*
X16394142Y-21917962D02*
X16403666Y-21889390D01*
X16403666Y-21889390D02*
X16413190Y-21841771D01*
X16413190Y-21841771D02*
X16413190Y-21803676D01*
X16413190Y-21803676D02*
X16403666Y-21756057D01*
X16403666Y-21756057D02*
X16394142Y-21727485D01*
X16394142Y-21727485D02*
X16384619Y-21708438D01*
X16384619Y-21708438D02*
X16365571Y-21679866D01*
X16365571Y-21679866D02*
X16356047Y-21670343D01*
X16717952Y-21975104D02*
X16708428Y-21965581D01*
X16708428Y-21965581D02*
X16689381Y-21937009D01*
X16689381Y-21937009D02*
X16679857Y-21917962D01*
X16679857Y-21917962D02*
X16670333Y-21889390D01*
X16670333Y-21889390D02*
X16660809Y-21841771D01*
X16660809Y-21841771D02*
X16660809Y-21803676D01*
X16660809Y-21803676D02*
X16670333Y-21756057D01*
X16670333Y-21756057D02*
X16679857Y-21727485D01*
X16679857Y-21727485D02*
X16689381Y-21708438D01*
X16689381Y-21708438D02*
X16708428Y-21679866D01*
X16708428Y-21679866D02*
X16717952Y-21670343D01*
X16794143Y-21765581D02*
X16794143Y-21898914D01*
X16794143Y-21784628D02*
X16803666Y-21775104D01*
X16803666Y-21775104D02*
X16822714Y-21765581D01*
X16822714Y-21765581D02*
X16851285Y-21765581D01*
X16851285Y-21765581D02*
X16870333Y-21775104D01*
X16870333Y-21775104D02*
X16879857Y-21794152D01*
X16879857Y-21794152D02*
X16879857Y-21898914D01*
X17003666Y-21898914D02*
X16984619Y-21889390D01*
X16984619Y-21889390D02*
X16975095Y-21879866D01*
X16975095Y-21879866D02*
X16965571Y-21860819D01*
X16965571Y-21860819D02*
X16965571Y-21803676D01*
X16965571Y-21803676D02*
X16975095Y-21784628D01*
X16975095Y-21784628D02*
X16984619Y-21775104D01*
X16984619Y-21775104D02*
X17003666Y-21765581D01*
X17003666Y-21765581D02*
X17032238Y-21765581D01*
X17032238Y-21765581D02*
X17051285Y-21775104D01*
X17051285Y-21775104D02*
X17060809Y-21784628D01*
X17060809Y-21784628D02*
X17070333Y-21803676D01*
X17070333Y-21803676D02*
X17070333Y-21860819D01*
X17070333Y-21860819D02*
X17060809Y-21879866D01*
X17060809Y-21879866D02*
X17051285Y-21889390D01*
X17051285Y-21889390D02*
X17032238Y-21898914D01*
X17032238Y-21898914D02*
X17003666Y-21898914D01*
X17127476Y-21765581D02*
X17203666Y-21765581D01*
X17156047Y-21698914D02*
X17156047Y-21870343D01*
X17156047Y-21870343D02*
X17165571Y-21889390D01*
X17165571Y-21889390D02*
X17184619Y-21898914D01*
X17184619Y-21898914D02*
X17203666Y-21898914D01*
X17422714Y-21765581D02*
X17422714Y-21965581D01*
X17422714Y-21775104D02*
X17441762Y-21765581D01*
X17441762Y-21765581D02*
X17479857Y-21765581D01*
X17479857Y-21765581D02*
X17498905Y-21775104D01*
X17498905Y-21775104D02*
X17508428Y-21784628D01*
X17508428Y-21784628D02*
X17517952Y-21803676D01*
X17517952Y-21803676D02*
X17517952Y-21860819D01*
X17517952Y-21860819D02*
X17508428Y-21879866D01*
X17508428Y-21879866D02*
X17498905Y-21889390D01*
X17498905Y-21889390D02*
X17479857Y-21898914D01*
X17479857Y-21898914D02*
X17441762Y-21898914D01*
X17441762Y-21898914D02*
X17422714Y-21889390D01*
X17632238Y-21898914D02*
X17613190Y-21889390D01*
X17613190Y-21889390D02*
X17603666Y-21870343D01*
X17603666Y-21870343D02*
X17603666Y-21698914D01*
X17794143Y-21898914D02*
X17794143Y-21794152D01*
X17794143Y-21794152D02*
X17784619Y-21775104D01*
X17784619Y-21775104D02*
X17765571Y-21765581D01*
X17765571Y-21765581D02*
X17727476Y-21765581D01*
X17727476Y-21765581D02*
X17708428Y-21775104D01*
X17794143Y-21889390D02*
X17775095Y-21898914D01*
X17775095Y-21898914D02*
X17727476Y-21898914D01*
X17727476Y-21898914D02*
X17708428Y-21889390D01*
X17708428Y-21889390D02*
X17698905Y-21870343D01*
X17698905Y-21870343D02*
X17698905Y-21851295D01*
X17698905Y-21851295D02*
X17708428Y-21832247D01*
X17708428Y-21832247D02*
X17727476Y-21822724D01*
X17727476Y-21822724D02*
X17775095Y-21822724D01*
X17775095Y-21822724D02*
X17794143Y-21813200D01*
X17860809Y-21765581D02*
X17937000Y-21765581D01*
X17889381Y-21698914D02*
X17889381Y-21870343D01*
X17889381Y-21870343D02*
X17898905Y-21889390D01*
X17898905Y-21889390D02*
X17917952Y-21898914D01*
X17917952Y-21898914D02*
X17937000Y-21898914D01*
X18079857Y-21889390D02*
X18060809Y-21898914D01*
X18060809Y-21898914D02*
X18022714Y-21898914D01*
X18022714Y-21898914D02*
X18003666Y-21889390D01*
X18003666Y-21889390D02*
X17994143Y-21870343D01*
X17994143Y-21870343D02*
X17994143Y-21794152D01*
X17994143Y-21794152D02*
X18003666Y-21775104D01*
X18003666Y-21775104D02*
X18022714Y-21765581D01*
X18022714Y-21765581D02*
X18060809Y-21765581D01*
X18060809Y-21765581D02*
X18079857Y-21775104D01*
X18079857Y-21775104D02*
X18089381Y-21794152D01*
X18089381Y-21794152D02*
X18089381Y-21813200D01*
X18089381Y-21813200D02*
X17994143Y-21832247D01*
X18260809Y-21898914D02*
X18260809Y-21698914D01*
X18260809Y-21889390D02*
X18241762Y-21898914D01*
X18241762Y-21898914D02*
X18203666Y-21898914D01*
X18203666Y-21898914D02*
X18184619Y-21889390D01*
X18184619Y-21889390D02*
X18175095Y-21879866D01*
X18175095Y-21879866D02*
X18165571Y-21860819D01*
X18165571Y-21860819D02*
X18165571Y-21803676D01*
X18165571Y-21803676D02*
X18175095Y-21784628D01*
X18175095Y-21784628D02*
X18184619Y-21775104D01*
X18184619Y-21775104D02*
X18203666Y-21765581D01*
X18203666Y-21765581D02*
X18241762Y-21765581D01*
X18241762Y-21765581D02*
X18260809Y-21775104D01*
X18337000Y-21975104D02*
X18346524Y-21965581D01*
X18346524Y-21965581D02*
X18365571Y-21937009D01*
X18365571Y-21937009D02*
X18375095Y-21917962D01*
X18375095Y-21917962D02*
X18384619Y-21889390D01*
X18384619Y-21889390D02*
X18394143Y-21841771D01*
X18394143Y-21841771D02*
X18394143Y-21803676D01*
X18394143Y-21803676D02*
X18384619Y-21756057D01*
X18384619Y-21756057D02*
X18375095Y-21727485D01*
X18375095Y-21727485D02*
X18365571Y-21708438D01*
X18365571Y-21708438D02*
X18346524Y-21679866D01*
X18346524Y-21679866D02*
X18337000Y-21670343D01*
X11642889Y-22192430D02*
X11742889Y-22092430D01*
X11642889Y-21992430D01*
X11542889Y-22092430D01*
X11642889Y-22192430D01*
X11994142Y-22002962D02*
X12003666Y-21993438D01*
X12003666Y-21993438D02*
X12022713Y-21983914D01*
X12022713Y-21983914D02*
X12070333Y-21983914D01*
X12070333Y-21983914D02*
X12089380Y-21993438D01*
X12089380Y-21993438D02*
X12098904Y-22002962D01*
X12098904Y-22002962D02*
X12108428Y-22022009D01*
X12108428Y-22022009D02*
X12108428Y-22041057D01*
X12108428Y-22041057D02*
X12098904Y-22069628D01*
X12098904Y-22069628D02*
X11984618Y-22183914D01*
X11984618Y-22183914D02*
X12108428Y-22183914D01*
X12194142Y-22164866D02*
X12203666Y-22174390D01*
X12203666Y-22174390D02*
X12194142Y-22183914D01*
X12194142Y-22183914D02*
X12184618Y-22174390D01*
X12184618Y-22174390D02*
X12194142Y-22164866D01*
X12194142Y-22164866D02*
X12194142Y-22183914D01*
X12270333Y-21983914D02*
X12403666Y-21983914D01*
X12403666Y-21983914D02*
X12317952Y-22183914D01*
X12517952Y-21983914D02*
X12536999Y-21983914D01*
X12536999Y-21983914D02*
X12556047Y-21993438D01*
X12556047Y-21993438D02*
X12565571Y-22002962D01*
X12565571Y-22002962D02*
X12575094Y-22022009D01*
X12575094Y-22022009D02*
X12584618Y-22060104D01*
X12584618Y-22060104D02*
X12584618Y-22107724D01*
X12584618Y-22107724D02*
X12575094Y-22145819D01*
X12575094Y-22145819D02*
X12565571Y-22164866D01*
X12565571Y-22164866D02*
X12556047Y-22174390D01*
X12556047Y-22174390D02*
X12536999Y-22183914D01*
X12536999Y-22183914D02*
X12517952Y-22183914D01*
X12517952Y-22183914D02*
X12498904Y-22174390D01*
X12498904Y-22174390D02*
X12489380Y-22164866D01*
X12489380Y-22164866D02*
X12479856Y-22145819D01*
X12479856Y-22145819D02*
X12470333Y-22107724D01*
X12470333Y-22107724D02*
X12470333Y-22060104D01*
X12470333Y-22060104D02*
X12479856Y-22022009D01*
X12479856Y-22022009D02*
X12489380Y-22002962D01*
X12489380Y-22002962D02*
X12498904Y-21993438D01*
X12498904Y-21993438D02*
X12517952Y-21983914D01*
X12708428Y-21983914D02*
X12727475Y-21983914D01*
X12727475Y-21983914D02*
X12746523Y-21993438D01*
X12746523Y-21993438D02*
X12756047Y-22002962D01*
X12756047Y-22002962D02*
X12765571Y-22022009D01*
X12765571Y-22022009D02*
X12775094Y-22060104D01*
X12775094Y-22060104D02*
X12775094Y-22107724D01*
X12775094Y-22107724D02*
X12765571Y-22145819D01*
X12765571Y-22145819D02*
X12756047Y-22164866D01*
X12756047Y-22164866D02*
X12746523Y-22174390D01*
X12746523Y-22174390D02*
X12727475Y-22183914D01*
X12727475Y-22183914D02*
X12708428Y-22183914D01*
X12708428Y-22183914D02*
X12689380Y-22174390D01*
X12689380Y-22174390D02*
X12679856Y-22164866D01*
X12679856Y-22164866D02*
X12670333Y-22145819D01*
X12670333Y-22145819D02*
X12660809Y-22107724D01*
X12660809Y-22107724D02*
X12660809Y-22060104D01*
X12660809Y-22060104D02*
X12670333Y-22022009D01*
X12670333Y-22022009D02*
X12679856Y-22002962D01*
X12679856Y-22002962D02*
X12689380Y-21993438D01*
X12689380Y-21993438D02*
X12708428Y-21983914D01*
X12860809Y-22183914D02*
X12860809Y-22050581D01*
X12860809Y-22069628D02*
X12870333Y-22060104D01*
X12870333Y-22060104D02*
X12889380Y-22050581D01*
X12889380Y-22050581D02*
X12917952Y-22050581D01*
X12917952Y-22050581D02*
X12936999Y-22060104D01*
X12936999Y-22060104D02*
X12946523Y-22079152D01*
X12946523Y-22079152D02*
X12946523Y-22183914D01*
X12946523Y-22079152D02*
X12956047Y-22060104D01*
X12956047Y-22060104D02*
X12975094Y-22050581D01*
X12975094Y-22050581D02*
X13003666Y-22050581D01*
X13003666Y-22050581D02*
X13022714Y-22060104D01*
X13022714Y-22060104D02*
X13032237Y-22079152D01*
X13032237Y-22079152D02*
X13032237Y-22183914D01*
X13127475Y-22183914D02*
X13127475Y-22050581D01*
X13127475Y-22069628D02*
X13136999Y-22060104D01*
X13136999Y-22060104D02*
X13156047Y-22050581D01*
X13156047Y-22050581D02*
X13184618Y-22050581D01*
X13184618Y-22050581D02*
X13203666Y-22060104D01*
X13203666Y-22060104D02*
X13213190Y-22079152D01*
X13213190Y-22079152D02*
X13213190Y-22183914D01*
X13213190Y-22079152D02*
X13222714Y-22060104D01*
X13222714Y-22060104D02*
X13241761Y-22050581D01*
X13241761Y-22050581D02*
X13270333Y-22050581D01*
X13270333Y-22050581D02*
X13289380Y-22060104D01*
X13289380Y-22060104D02*
X13298904Y-22079152D01*
X13298904Y-22079152D02*
X13298904Y-22183914D01*
X13689380Y-21974390D02*
X13517952Y-22231533D01*
X13946523Y-21983914D02*
X13965571Y-21983914D01*
X13965571Y-21983914D02*
X13984618Y-21993438D01*
X13984618Y-21993438D02*
X13994142Y-22002962D01*
X13994142Y-22002962D02*
X14003666Y-22022009D01*
X14003666Y-22022009D02*
X14013190Y-22060104D01*
X14013190Y-22060104D02*
X14013190Y-22107724D01*
X14013190Y-22107724D02*
X14003666Y-22145819D01*
X14003666Y-22145819D02*
X13994142Y-22164866D01*
X13994142Y-22164866D02*
X13984618Y-22174390D01*
X13984618Y-22174390D02*
X13965571Y-22183914D01*
X13965571Y-22183914D02*
X13946523Y-22183914D01*
X13946523Y-22183914D02*
X13927476Y-22174390D01*
X13927476Y-22174390D02*
X13917952Y-22164866D01*
X13917952Y-22164866D02*
X13908428Y-22145819D01*
X13908428Y-22145819D02*
X13898904Y-22107724D01*
X13898904Y-22107724D02*
X13898904Y-22060104D01*
X13898904Y-22060104D02*
X13908428Y-22022009D01*
X13908428Y-22022009D02*
X13917952Y-22002962D01*
X13917952Y-22002962D02*
X13927476Y-21993438D01*
X13927476Y-21993438D02*
X13946523Y-21983914D01*
X14098904Y-22164866D02*
X14108428Y-22174390D01*
X14108428Y-22174390D02*
X14098904Y-22183914D01*
X14098904Y-22183914D02*
X14089380Y-22174390D01*
X14089380Y-22174390D02*
X14098904Y-22164866D01*
X14098904Y-22164866D02*
X14098904Y-22183914D01*
X14298904Y-22183914D02*
X14184618Y-22183914D01*
X14241761Y-22183914D02*
X14241761Y-21983914D01*
X14241761Y-21983914D02*
X14222714Y-22012485D01*
X14222714Y-22012485D02*
X14203666Y-22031533D01*
X14203666Y-22031533D02*
X14184618Y-22041057D01*
X14422714Y-21983914D02*
X14441761Y-21983914D01*
X14441761Y-21983914D02*
X14460809Y-21993438D01*
X14460809Y-21993438D02*
X14470333Y-22002962D01*
X14470333Y-22002962D02*
X14479857Y-22022009D01*
X14479857Y-22022009D02*
X14489380Y-22060104D01*
X14489380Y-22060104D02*
X14489380Y-22107724D01*
X14489380Y-22107724D02*
X14479857Y-22145819D01*
X14479857Y-22145819D02*
X14470333Y-22164866D01*
X14470333Y-22164866D02*
X14460809Y-22174390D01*
X14460809Y-22174390D02*
X14441761Y-22183914D01*
X14441761Y-22183914D02*
X14422714Y-22183914D01*
X14422714Y-22183914D02*
X14403666Y-22174390D01*
X14403666Y-22174390D02*
X14394142Y-22164866D01*
X14394142Y-22164866D02*
X14384618Y-22145819D01*
X14384618Y-22145819D02*
X14375095Y-22107724D01*
X14375095Y-22107724D02*
X14375095Y-22060104D01*
X14375095Y-22060104D02*
X14384618Y-22022009D01*
X14384618Y-22022009D02*
X14394142Y-22002962D01*
X14394142Y-22002962D02*
X14403666Y-21993438D01*
X14403666Y-21993438D02*
X14422714Y-21983914D01*
X14660809Y-21983914D02*
X14622714Y-21983914D01*
X14622714Y-21983914D02*
X14603666Y-21993438D01*
X14603666Y-21993438D02*
X14594142Y-22002962D01*
X14594142Y-22002962D02*
X14575095Y-22031533D01*
X14575095Y-22031533D02*
X14565571Y-22069628D01*
X14565571Y-22069628D02*
X14565571Y-22145819D01*
X14565571Y-22145819D02*
X14575095Y-22164866D01*
X14575095Y-22164866D02*
X14584618Y-22174390D01*
X14584618Y-22174390D02*
X14603666Y-22183914D01*
X14603666Y-22183914D02*
X14641761Y-22183914D01*
X14641761Y-22183914D02*
X14660809Y-22174390D01*
X14660809Y-22174390D02*
X14670333Y-22164866D01*
X14670333Y-22164866D02*
X14679857Y-22145819D01*
X14679857Y-22145819D02*
X14679857Y-22098200D01*
X14679857Y-22098200D02*
X14670333Y-22079152D01*
X14670333Y-22079152D02*
X14660809Y-22069628D01*
X14660809Y-22069628D02*
X14641761Y-22060104D01*
X14641761Y-22060104D02*
X14603666Y-22060104D01*
X14603666Y-22060104D02*
X14584618Y-22069628D01*
X14584618Y-22069628D02*
X14575095Y-22079152D01*
X14575095Y-22079152D02*
X14565571Y-22098200D01*
X14746523Y-21983914D02*
X14870333Y-21983914D01*
X14870333Y-21983914D02*
X14803666Y-22060104D01*
X14803666Y-22060104D02*
X14832238Y-22060104D01*
X14832238Y-22060104D02*
X14851285Y-22069628D01*
X14851285Y-22069628D02*
X14860809Y-22079152D01*
X14860809Y-22079152D02*
X14870333Y-22098200D01*
X14870333Y-22098200D02*
X14870333Y-22145819D01*
X14870333Y-22145819D02*
X14860809Y-22164866D01*
X14860809Y-22164866D02*
X14851285Y-22174390D01*
X14851285Y-22174390D02*
X14832238Y-22183914D01*
X14832238Y-22183914D02*
X14775095Y-22183914D01*
X14775095Y-22183914D02*
X14756047Y-22174390D01*
X14756047Y-22174390D02*
X14746523Y-22164866D01*
X14946523Y-21983914D02*
X14946523Y-22022009D01*
X15022714Y-21983914D02*
X15022714Y-22022009D01*
X15317952Y-22260104D02*
X15308428Y-22250581D01*
X15308428Y-22250581D02*
X15289380Y-22222009D01*
X15289380Y-22222009D02*
X15279857Y-22202962D01*
X15279857Y-22202962D02*
X15270333Y-22174390D01*
X15270333Y-22174390D02*
X15260809Y-22126771D01*
X15260809Y-22126771D02*
X15260809Y-22088676D01*
X15260809Y-22088676D02*
X15270333Y-22041057D01*
X15270333Y-22041057D02*
X15279857Y-22012485D01*
X15279857Y-22012485D02*
X15289380Y-21993438D01*
X15289380Y-21993438D02*
X15308428Y-21964866D01*
X15308428Y-21964866D02*
X15317952Y-21955343D01*
X15498904Y-22183914D02*
X15384619Y-22183914D01*
X15441761Y-22183914D02*
X15441761Y-21983914D01*
X15441761Y-21983914D02*
X15422714Y-22012485D01*
X15422714Y-22012485D02*
X15403666Y-22031533D01*
X15403666Y-22031533D02*
X15384619Y-22041057D01*
X15575095Y-22002962D02*
X15584619Y-21993438D01*
X15584619Y-21993438D02*
X15603666Y-21983914D01*
X15603666Y-21983914D02*
X15651285Y-21983914D01*
X15651285Y-21983914D02*
X15670333Y-21993438D01*
X15670333Y-21993438D02*
X15679857Y-22002962D01*
X15679857Y-22002962D02*
X15689380Y-22022009D01*
X15689380Y-22022009D02*
X15689380Y-22041057D01*
X15689380Y-22041057D02*
X15679857Y-22069628D01*
X15679857Y-22069628D02*
X15565571Y-22183914D01*
X15565571Y-22183914D02*
X15689380Y-22183914D01*
X15927476Y-22183914D02*
X15927476Y-21983914D01*
X16013190Y-22183914D02*
X16013190Y-22079152D01*
X16013190Y-22079152D02*
X16003666Y-22060104D01*
X16003666Y-22060104D02*
X15984619Y-22050581D01*
X15984619Y-22050581D02*
X15956047Y-22050581D01*
X15956047Y-22050581D02*
X15937000Y-22060104D01*
X15937000Y-22060104D02*
X15927476Y-22069628D01*
X16137000Y-22183914D02*
X16117952Y-22174390D01*
X16117952Y-22174390D02*
X16108428Y-22164866D01*
X16108428Y-22164866D02*
X16098904Y-22145819D01*
X16098904Y-22145819D02*
X16098904Y-22088676D01*
X16098904Y-22088676D02*
X16108428Y-22069628D01*
X16108428Y-22069628D02*
X16117952Y-22060104D01*
X16117952Y-22060104D02*
X16137000Y-22050581D01*
X16137000Y-22050581D02*
X16165571Y-22050581D01*
X16165571Y-22050581D02*
X16184619Y-22060104D01*
X16184619Y-22060104D02*
X16194142Y-22069628D01*
X16194142Y-22069628D02*
X16203666Y-22088676D01*
X16203666Y-22088676D02*
X16203666Y-22145819D01*
X16203666Y-22145819D02*
X16194142Y-22164866D01*
X16194142Y-22164866D02*
X16184619Y-22174390D01*
X16184619Y-22174390D02*
X16165571Y-22183914D01*
X16165571Y-22183914D02*
X16137000Y-22183914D01*
X16317952Y-22183914D02*
X16298904Y-22174390D01*
X16298904Y-22174390D02*
X16289381Y-22155343D01*
X16289381Y-22155343D02*
X16289381Y-21983914D01*
X16470333Y-22174390D02*
X16451285Y-22183914D01*
X16451285Y-22183914D02*
X16413190Y-22183914D01*
X16413190Y-22183914D02*
X16394142Y-22174390D01*
X16394142Y-22174390D02*
X16384619Y-22155343D01*
X16384619Y-22155343D02*
X16384619Y-22079152D01*
X16384619Y-22079152D02*
X16394142Y-22060104D01*
X16394142Y-22060104D02*
X16413190Y-22050581D01*
X16413190Y-22050581D02*
X16451285Y-22050581D01*
X16451285Y-22050581D02*
X16470333Y-22060104D01*
X16470333Y-22060104D02*
X16479857Y-22079152D01*
X16479857Y-22079152D02*
X16479857Y-22098200D01*
X16479857Y-22098200D02*
X16384619Y-22117247D01*
X16556047Y-22174390D02*
X16575095Y-22183914D01*
X16575095Y-22183914D02*
X16613190Y-22183914D01*
X16613190Y-22183914D02*
X16632238Y-22174390D01*
X16632238Y-22174390D02*
X16641762Y-22155343D01*
X16641762Y-22155343D02*
X16641762Y-22145819D01*
X16641762Y-22145819D02*
X16632238Y-22126771D01*
X16632238Y-22126771D02*
X16613190Y-22117247D01*
X16613190Y-22117247D02*
X16584619Y-22117247D01*
X16584619Y-22117247D02*
X16565571Y-22107724D01*
X16565571Y-22107724D02*
X16556047Y-22088676D01*
X16556047Y-22088676D02*
X16556047Y-22079152D01*
X16556047Y-22079152D02*
X16565571Y-22060104D01*
X16565571Y-22060104D02*
X16584619Y-22050581D01*
X16584619Y-22050581D02*
X16613190Y-22050581D01*
X16613190Y-22050581D02*
X16632238Y-22060104D01*
X16708428Y-22260104D02*
X16717952Y-22250581D01*
X16717952Y-22250581D02*
X16737000Y-22222009D01*
X16737000Y-22222009D02*
X16746523Y-22202962D01*
X16746523Y-22202962D02*
X16756047Y-22174390D01*
X16756047Y-22174390D02*
X16765571Y-22126771D01*
X16765571Y-22126771D02*
X16765571Y-22088676D01*
X16765571Y-22088676D02*
X16756047Y-22041057D01*
X16756047Y-22041057D02*
X16746523Y-22012485D01*
X16746523Y-22012485D02*
X16737000Y-21993438D01*
X16737000Y-21993438D02*
X16717952Y-21964866D01*
X16717952Y-21964866D02*
X16708428Y-21955343D01*
X17070333Y-22260104D02*
X17060809Y-22250581D01*
X17060809Y-22250581D02*
X17041762Y-22222009D01*
X17041762Y-22222009D02*
X17032238Y-22202962D01*
X17032238Y-22202962D02*
X17022714Y-22174390D01*
X17022714Y-22174390D02*
X17013190Y-22126771D01*
X17013190Y-22126771D02*
X17013190Y-22088676D01*
X17013190Y-22088676D02*
X17022714Y-22041057D01*
X17022714Y-22041057D02*
X17032238Y-22012485D01*
X17032238Y-22012485D02*
X17041762Y-21993438D01*
X17041762Y-21993438D02*
X17060809Y-21964866D01*
X17060809Y-21964866D02*
X17070333Y-21955343D01*
X17146524Y-22050581D02*
X17146524Y-22183914D01*
X17146524Y-22069628D02*
X17156047Y-22060104D01*
X17156047Y-22060104D02*
X17175095Y-22050581D01*
X17175095Y-22050581D02*
X17203666Y-22050581D01*
X17203666Y-22050581D02*
X17222714Y-22060104D01*
X17222714Y-22060104D02*
X17232238Y-22079152D01*
X17232238Y-22079152D02*
X17232238Y-22183914D01*
X17356047Y-22183914D02*
X17337000Y-22174390D01*
X17337000Y-22174390D02*
X17327476Y-22164866D01*
X17327476Y-22164866D02*
X17317952Y-22145819D01*
X17317952Y-22145819D02*
X17317952Y-22088676D01*
X17317952Y-22088676D02*
X17327476Y-22069628D01*
X17327476Y-22069628D02*
X17337000Y-22060104D01*
X17337000Y-22060104D02*
X17356047Y-22050581D01*
X17356047Y-22050581D02*
X17384619Y-22050581D01*
X17384619Y-22050581D02*
X17403666Y-22060104D01*
X17403666Y-22060104D02*
X17413190Y-22069628D01*
X17413190Y-22069628D02*
X17422714Y-22088676D01*
X17422714Y-22088676D02*
X17422714Y-22145819D01*
X17422714Y-22145819D02*
X17413190Y-22164866D01*
X17413190Y-22164866D02*
X17403666Y-22174390D01*
X17403666Y-22174390D02*
X17384619Y-22183914D01*
X17384619Y-22183914D02*
X17356047Y-22183914D01*
X17479857Y-22050581D02*
X17556047Y-22050581D01*
X17508428Y-21983914D02*
X17508428Y-22155343D01*
X17508428Y-22155343D02*
X17517952Y-22174390D01*
X17517952Y-22174390D02*
X17537000Y-22183914D01*
X17537000Y-22183914D02*
X17556047Y-22183914D01*
X17775095Y-22050581D02*
X17775095Y-22250581D01*
X17775095Y-22060104D02*
X17794143Y-22050581D01*
X17794143Y-22050581D02*
X17832238Y-22050581D01*
X17832238Y-22050581D02*
X17851286Y-22060104D01*
X17851286Y-22060104D02*
X17860809Y-22069628D01*
X17860809Y-22069628D02*
X17870333Y-22088676D01*
X17870333Y-22088676D02*
X17870333Y-22145819D01*
X17870333Y-22145819D02*
X17860809Y-22164866D01*
X17860809Y-22164866D02*
X17851286Y-22174390D01*
X17851286Y-22174390D02*
X17832238Y-22183914D01*
X17832238Y-22183914D02*
X17794143Y-22183914D01*
X17794143Y-22183914D02*
X17775095Y-22174390D01*
X17984619Y-22183914D02*
X17965571Y-22174390D01*
X17965571Y-22174390D02*
X17956047Y-22155343D01*
X17956047Y-22155343D02*
X17956047Y-21983914D01*
X18146524Y-22183914D02*
X18146524Y-22079152D01*
X18146524Y-22079152D02*
X18137000Y-22060104D01*
X18137000Y-22060104D02*
X18117952Y-22050581D01*
X18117952Y-22050581D02*
X18079857Y-22050581D01*
X18079857Y-22050581D02*
X18060809Y-22060104D01*
X18146524Y-22174390D02*
X18127476Y-22183914D01*
X18127476Y-22183914D02*
X18079857Y-22183914D01*
X18079857Y-22183914D02*
X18060809Y-22174390D01*
X18060809Y-22174390D02*
X18051286Y-22155343D01*
X18051286Y-22155343D02*
X18051286Y-22136295D01*
X18051286Y-22136295D02*
X18060809Y-22117247D01*
X18060809Y-22117247D02*
X18079857Y-22107724D01*
X18079857Y-22107724D02*
X18127476Y-22107724D01*
X18127476Y-22107724D02*
X18146524Y-22098200D01*
X18213190Y-22050581D02*
X18289381Y-22050581D01*
X18241762Y-21983914D02*
X18241762Y-22155343D01*
X18241762Y-22155343D02*
X18251286Y-22174390D01*
X18251286Y-22174390D02*
X18270333Y-22183914D01*
X18270333Y-22183914D02*
X18289381Y-22183914D01*
X18432238Y-22174390D02*
X18413190Y-22183914D01*
X18413190Y-22183914D02*
X18375095Y-22183914D01*
X18375095Y-22183914D02*
X18356047Y-22174390D01*
X18356047Y-22174390D02*
X18346524Y-22155343D01*
X18346524Y-22155343D02*
X18346524Y-22079152D01*
X18346524Y-22079152D02*
X18356047Y-22060104D01*
X18356047Y-22060104D02*
X18375095Y-22050581D01*
X18375095Y-22050581D02*
X18413190Y-22050581D01*
X18413190Y-22050581D02*
X18432238Y-22060104D01*
X18432238Y-22060104D02*
X18441762Y-22079152D01*
X18441762Y-22079152D02*
X18441762Y-22098200D01*
X18441762Y-22098200D02*
X18346524Y-22117247D01*
X18613190Y-22183914D02*
X18613190Y-21983914D01*
X18613190Y-22174390D02*
X18594143Y-22183914D01*
X18594143Y-22183914D02*
X18556047Y-22183914D01*
X18556047Y-22183914D02*
X18537000Y-22174390D01*
X18537000Y-22174390D02*
X18527476Y-22164866D01*
X18527476Y-22164866D02*
X18517952Y-22145819D01*
X18517952Y-22145819D02*
X18517952Y-22088676D01*
X18517952Y-22088676D02*
X18527476Y-22069628D01*
X18527476Y-22069628D02*
X18537000Y-22060104D01*
X18537000Y-22060104D02*
X18556047Y-22050581D01*
X18556047Y-22050581D02*
X18594143Y-22050581D01*
X18594143Y-22050581D02*
X18613190Y-22060104D01*
X18689381Y-22260104D02*
X18698905Y-22250581D01*
X18698905Y-22250581D02*
X18717952Y-22222009D01*
X18717952Y-22222009D02*
X18727476Y-22202962D01*
X18727476Y-22202962D02*
X18737000Y-22174390D01*
X18737000Y-22174390D02*
X18746524Y-22126771D01*
X18746524Y-22126771D02*
X18746524Y-22088676D01*
X18746524Y-22088676D02*
X18737000Y-22041057D01*
X18737000Y-22041057D02*
X18727476Y-22012485D01*
X18727476Y-22012485D02*
X18717952Y-21993438D01*
X18717952Y-21993438D02*
X18698905Y-21964866D01*
X18698905Y-21964866D02*
X18689381Y-21955343D01*
X11542889Y-22312430D02*
X11742889Y-22512430D01*
X11742889Y-22312430D02*
X11542889Y-22512430D01*
X11742889Y-22412430D02*
G75*
G02*
X11542889Y-22412430I-100000J0D01*
G01*
X11542889Y-22412430D02*
G75*
G02*
X11742889Y-22412430I100000J0D01*
G01*
X11984618Y-22303914D02*
X12108428Y-22303914D01*
X12108428Y-22303914D02*
X12041761Y-22380104D01*
X12041761Y-22380104D02*
X12070333Y-22380104D01*
X12070333Y-22380104D02*
X12089380Y-22389628D01*
X12089380Y-22389628D02*
X12098904Y-22399152D01*
X12098904Y-22399152D02*
X12108428Y-22418200D01*
X12108428Y-22418200D02*
X12108428Y-22465819D01*
X12108428Y-22465819D02*
X12098904Y-22484866D01*
X12098904Y-22484866D02*
X12089380Y-22494390D01*
X12089380Y-22494390D02*
X12070333Y-22503914D01*
X12070333Y-22503914D02*
X12013190Y-22503914D01*
X12013190Y-22503914D02*
X11994142Y-22494390D01*
X11994142Y-22494390D02*
X11984618Y-22484866D01*
X12194142Y-22484866D02*
X12203666Y-22494390D01*
X12203666Y-22494390D02*
X12194142Y-22503914D01*
X12194142Y-22503914D02*
X12184618Y-22494390D01*
X12184618Y-22494390D02*
X12194142Y-22484866D01*
X12194142Y-22484866D02*
X12194142Y-22503914D01*
X12279856Y-22322962D02*
X12289380Y-22313438D01*
X12289380Y-22313438D02*
X12308428Y-22303914D01*
X12308428Y-22303914D02*
X12356047Y-22303914D01*
X12356047Y-22303914D02*
X12375094Y-22313438D01*
X12375094Y-22313438D02*
X12384618Y-22322962D01*
X12384618Y-22322962D02*
X12394142Y-22342009D01*
X12394142Y-22342009D02*
X12394142Y-22361057D01*
X12394142Y-22361057D02*
X12384618Y-22389628D01*
X12384618Y-22389628D02*
X12270333Y-22503914D01*
X12270333Y-22503914D02*
X12394142Y-22503914D01*
X12517952Y-22303914D02*
X12536999Y-22303914D01*
X12536999Y-22303914D02*
X12556047Y-22313438D01*
X12556047Y-22313438D02*
X12565571Y-22322962D01*
X12565571Y-22322962D02*
X12575094Y-22342009D01*
X12575094Y-22342009D02*
X12584618Y-22380104D01*
X12584618Y-22380104D02*
X12584618Y-22427723D01*
X12584618Y-22427723D02*
X12575094Y-22465819D01*
X12575094Y-22465819D02*
X12565571Y-22484866D01*
X12565571Y-22484866D02*
X12556047Y-22494390D01*
X12556047Y-22494390D02*
X12536999Y-22503914D01*
X12536999Y-22503914D02*
X12517952Y-22503914D01*
X12517952Y-22503914D02*
X12498904Y-22494390D01*
X12498904Y-22494390D02*
X12489380Y-22484866D01*
X12489380Y-22484866D02*
X12479856Y-22465819D01*
X12479856Y-22465819D02*
X12470333Y-22427723D01*
X12470333Y-22427723D02*
X12470333Y-22380104D01*
X12470333Y-22380104D02*
X12479856Y-22342009D01*
X12479856Y-22342009D02*
X12489380Y-22322962D01*
X12489380Y-22322962D02*
X12498904Y-22313438D01*
X12498904Y-22313438D02*
X12517952Y-22303914D01*
X12708428Y-22303914D02*
X12727475Y-22303914D01*
X12727475Y-22303914D02*
X12746523Y-22313438D01*
X12746523Y-22313438D02*
X12756047Y-22322962D01*
X12756047Y-22322962D02*
X12765571Y-22342009D01*
X12765571Y-22342009D02*
X12775094Y-22380104D01*
X12775094Y-22380104D02*
X12775094Y-22427723D01*
X12775094Y-22427723D02*
X12765571Y-22465819D01*
X12765571Y-22465819D02*
X12756047Y-22484866D01*
X12756047Y-22484866D02*
X12746523Y-22494390D01*
X12746523Y-22494390D02*
X12727475Y-22503914D01*
X12727475Y-22503914D02*
X12708428Y-22503914D01*
X12708428Y-22503914D02*
X12689380Y-22494390D01*
X12689380Y-22494390D02*
X12679856Y-22484866D01*
X12679856Y-22484866D02*
X12670333Y-22465819D01*
X12670333Y-22465819D02*
X12660809Y-22427723D01*
X12660809Y-22427723D02*
X12660809Y-22380104D01*
X12660809Y-22380104D02*
X12670333Y-22342009D01*
X12670333Y-22342009D02*
X12679856Y-22322962D01*
X12679856Y-22322962D02*
X12689380Y-22313438D01*
X12689380Y-22313438D02*
X12708428Y-22303914D01*
X12860809Y-22503914D02*
X12860809Y-22370581D01*
X12860809Y-22389628D02*
X12870333Y-22380104D01*
X12870333Y-22380104D02*
X12889380Y-22370581D01*
X12889380Y-22370581D02*
X12917952Y-22370581D01*
X12917952Y-22370581D02*
X12936999Y-22380104D01*
X12936999Y-22380104D02*
X12946523Y-22399152D01*
X12946523Y-22399152D02*
X12946523Y-22503914D01*
X12946523Y-22399152D02*
X12956047Y-22380104D01*
X12956047Y-22380104D02*
X12975094Y-22370581D01*
X12975094Y-22370581D02*
X13003666Y-22370581D01*
X13003666Y-22370581D02*
X13022714Y-22380104D01*
X13022714Y-22380104D02*
X13032237Y-22399152D01*
X13032237Y-22399152D02*
X13032237Y-22503914D01*
X13127475Y-22503914D02*
X13127475Y-22370581D01*
X13127475Y-22389628D02*
X13136999Y-22380104D01*
X13136999Y-22380104D02*
X13156047Y-22370581D01*
X13156047Y-22370581D02*
X13184618Y-22370581D01*
X13184618Y-22370581D02*
X13203666Y-22380104D01*
X13203666Y-22380104D02*
X13213190Y-22399152D01*
X13213190Y-22399152D02*
X13213190Y-22503914D01*
X13213190Y-22399152D02*
X13222714Y-22380104D01*
X13222714Y-22380104D02*
X13241761Y-22370581D01*
X13241761Y-22370581D02*
X13270333Y-22370581D01*
X13270333Y-22370581D02*
X13289380Y-22380104D01*
X13289380Y-22380104D02*
X13298904Y-22399152D01*
X13298904Y-22399152D02*
X13298904Y-22503914D01*
X13689380Y-22294390D02*
X13517952Y-22551533D01*
X13946523Y-22303914D02*
X13965571Y-22303914D01*
X13965571Y-22303914D02*
X13984618Y-22313438D01*
X13984618Y-22313438D02*
X13994142Y-22322962D01*
X13994142Y-22322962D02*
X14003666Y-22342009D01*
X14003666Y-22342009D02*
X14013190Y-22380104D01*
X14013190Y-22380104D02*
X14013190Y-22427723D01*
X14013190Y-22427723D02*
X14003666Y-22465819D01*
X14003666Y-22465819D02*
X13994142Y-22484866D01*
X13994142Y-22484866D02*
X13984618Y-22494390D01*
X13984618Y-22494390D02*
X13965571Y-22503914D01*
X13965571Y-22503914D02*
X13946523Y-22503914D01*
X13946523Y-22503914D02*
X13927476Y-22494390D01*
X13927476Y-22494390D02*
X13917952Y-22484866D01*
X13917952Y-22484866D02*
X13908428Y-22465819D01*
X13908428Y-22465819D02*
X13898904Y-22427723D01*
X13898904Y-22427723D02*
X13898904Y-22380104D01*
X13898904Y-22380104D02*
X13908428Y-22342009D01*
X13908428Y-22342009D02*
X13917952Y-22322962D01*
X13917952Y-22322962D02*
X13927476Y-22313438D01*
X13927476Y-22313438D02*
X13946523Y-22303914D01*
X14098904Y-22484866D02*
X14108428Y-22494390D01*
X14108428Y-22494390D02*
X14098904Y-22503914D01*
X14098904Y-22503914D02*
X14089380Y-22494390D01*
X14089380Y-22494390D02*
X14098904Y-22484866D01*
X14098904Y-22484866D02*
X14098904Y-22503914D01*
X14298904Y-22503914D02*
X14184618Y-22503914D01*
X14241761Y-22503914D02*
X14241761Y-22303914D01*
X14241761Y-22303914D02*
X14222714Y-22332485D01*
X14222714Y-22332485D02*
X14203666Y-22351533D01*
X14203666Y-22351533D02*
X14184618Y-22361057D01*
X14375095Y-22322962D02*
X14384618Y-22313438D01*
X14384618Y-22313438D02*
X14403666Y-22303914D01*
X14403666Y-22303914D02*
X14451285Y-22303914D01*
X14451285Y-22303914D02*
X14470333Y-22313438D01*
X14470333Y-22313438D02*
X14479857Y-22322962D01*
X14479857Y-22322962D02*
X14489380Y-22342009D01*
X14489380Y-22342009D02*
X14489380Y-22361057D01*
X14489380Y-22361057D02*
X14479857Y-22389628D01*
X14479857Y-22389628D02*
X14365571Y-22503914D01*
X14365571Y-22503914D02*
X14489380Y-22503914D01*
X14660809Y-22303914D02*
X14622714Y-22303914D01*
X14622714Y-22303914D02*
X14603666Y-22313438D01*
X14603666Y-22313438D02*
X14594142Y-22322962D01*
X14594142Y-22322962D02*
X14575095Y-22351533D01*
X14575095Y-22351533D02*
X14565571Y-22389628D01*
X14565571Y-22389628D02*
X14565571Y-22465819D01*
X14565571Y-22465819D02*
X14575095Y-22484866D01*
X14575095Y-22484866D02*
X14584618Y-22494390D01*
X14584618Y-22494390D02*
X14603666Y-22503914D01*
X14603666Y-22503914D02*
X14641761Y-22503914D01*
X14641761Y-22503914D02*
X14660809Y-22494390D01*
X14660809Y-22494390D02*
X14670333Y-22484866D01*
X14670333Y-22484866D02*
X14679857Y-22465819D01*
X14679857Y-22465819D02*
X14679857Y-22418200D01*
X14679857Y-22418200D02*
X14670333Y-22399152D01*
X14670333Y-22399152D02*
X14660809Y-22389628D01*
X14660809Y-22389628D02*
X14641761Y-22380104D01*
X14641761Y-22380104D02*
X14603666Y-22380104D01*
X14603666Y-22380104D02*
X14584618Y-22389628D01*
X14584618Y-22389628D02*
X14575095Y-22399152D01*
X14575095Y-22399152D02*
X14565571Y-22418200D01*
X14803666Y-22303914D02*
X14822714Y-22303914D01*
X14822714Y-22303914D02*
X14841761Y-22313438D01*
X14841761Y-22313438D02*
X14851285Y-22322962D01*
X14851285Y-22322962D02*
X14860809Y-22342009D01*
X14860809Y-22342009D02*
X14870333Y-22380104D01*
X14870333Y-22380104D02*
X14870333Y-22427723D01*
X14870333Y-22427723D02*
X14860809Y-22465819D01*
X14860809Y-22465819D02*
X14851285Y-22484866D01*
X14851285Y-22484866D02*
X14841761Y-22494390D01*
X14841761Y-22494390D02*
X14822714Y-22503914D01*
X14822714Y-22503914D02*
X14803666Y-22503914D01*
X14803666Y-22503914D02*
X14784618Y-22494390D01*
X14784618Y-22494390D02*
X14775095Y-22484866D01*
X14775095Y-22484866D02*
X14765571Y-22465819D01*
X14765571Y-22465819D02*
X14756047Y-22427723D01*
X14756047Y-22427723D02*
X14756047Y-22380104D01*
X14756047Y-22380104D02*
X14765571Y-22342009D01*
X14765571Y-22342009D02*
X14775095Y-22322962D01*
X14775095Y-22322962D02*
X14784618Y-22313438D01*
X14784618Y-22313438D02*
X14803666Y-22303914D01*
X14946523Y-22303914D02*
X14946523Y-22342009D01*
X15022714Y-22303914D02*
X15022714Y-22342009D01*
X15317952Y-22580104D02*
X15308428Y-22570581D01*
X15308428Y-22570581D02*
X15289380Y-22542009D01*
X15289380Y-22542009D02*
X15279857Y-22522962D01*
X15279857Y-22522962D02*
X15270333Y-22494390D01*
X15270333Y-22494390D02*
X15260809Y-22446771D01*
X15260809Y-22446771D02*
X15260809Y-22408676D01*
X15260809Y-22408676D02*
X15270333Y-22361057D01*
X15270333Y-22361057D02*
X15279857Y-22332485D01*
X15279857Y-22332485D02*
X15289380Y-22313438D01*
X15289380Y-22313438D02*
X15308428Y-22284866D01*
X15308428Y-22284866D02*
X15317952Y-22275343D01*
X15384619Y-22322962D02*
X15394142Y-22313438D01*
X15394142Y-22313438D02*
X15413190Y-22303914D01*
X15413190Y-22303914D02*
X15460809Y-22303914D01*
X15460809Y-22303914D02*
X15479857Y-22313438D01*
X15479857Y-22313438D02*
X15489380Y-22322962D01*
X15489380Y-22322962D02*
X15498904Y-22342009D01*
X15498904Y-22342009D02*
X15498904Y-22361057D01*
X15498904Y-22361057D02*
X15489380Y-22389628D01*
X15489380Y-22389628D02*
X15375095Y-22503914D01*
X15375095Y-22503914D02*
X15498904Y-22503914D01*
X15737000Y-22503914D02*
X15737000Y-22303914D01*
X15822714Y-22503914D02*
X15822714Y-22399152D01*
X15822714Y-22399152D02*
X15813190Y-22380104D01*
X15813190Y-22380104D02*
X15794142Y-22370581D01*
X15794142Y-22370581D02*
X15765571Y-22370581D01*
X15765571Y-22370581D02*
X15746523Y-22380104D01*
X15746523Y-22380104D02*
X15737000Y-22389628D01*
X15946523Y-22503914D02*
X15927476Y-22494390D01*
X15927476Y-22494390D02*
X15917952Y-22484866D01*
X15917952Y-22484866D02*
X15908428Y-22465819D01*
X15908428Y-22465819D02*
X15908428Y-22408676D01*
X15908428Y-22408676D02*
X15917952Y-22389628D01*
X15917952Y-22389628D02*
X15927476Y-22380104D01*
X15927476Y-22380104D02*
X15946523Y-22370581D01*
X15946523Y-22370581D02*
X15975095Y-22370581D01*
X15975095Y-22370581D02*
X15994142Y-22380104D01*
X15994142Y-22380104D02*
X16003666Y-22389628D01*
X16003666Y-22389628D02*
X16013190Y-22408676D01*
X16013190Y-22408676D02*
X16013190Y-22465819D01*
X16013190Y-22465819D02*
X16003666Y-22484866D01*
X16003666Y-22484866D02*
X15994142Y-22494390D01*
X15994142Y-22494390D02*
X15975095Y-22503914D01*
X15975095Y-22503914D02*
X15946523Y-22503914D01*
X16127476Y-22503914D02*
X16108428Y-22494390D01*
X16108428Y-22494390D02*
X16098904Y-22475342D01*
X16098904Y-22475342D02*
X16098904Y-22303914D01*
X16279857Y-22494390D02*
X16260809Y-22503914D01*
X16260809Y-22503914D02*
X16222714Y-22503914D01*
X16222714Y-22503914D02*
X16203666Y-22494390D01*
X16203666Y-22494390D02*
X16194142Y-22475342D01*
X16194142Y-22475342D02*
X16194142Y-22399152D01*
X16194142Y-22399152D02*
X16203666Y-22380104D01*
X16203666Y-22380104D02*
X16222714Y-22370581D01*
X16222714Y-22370581D02*
X16260809Y-22370581D01*
X16260809Y-22370581D02*
X16279857Y-22380104D01*
X16279857Y-22380104D02*
X16289381Y-22399152D01*
X16289381Y-22399152D02*
X16289381Y-22418200D01*
X16289381Y-22418200D02*
X16194142Y-22437247D01*
X16365571Y-22494390D02*
X16384619Y-22503914D01*
X16384619Y-22503914D02*
X16422714Y-22503914D01*
X16422714Y-22503914D02*
X16441762Y-22494390D01*
X16441762Y-22494390D02*
X16451285Y-22475342D01*
X16451285Y-22475342D02*
X16451285Y-22465819D01*
X16451285Y-22465819D02*
X16441762Y-22446771D01*
X16441762Y-22446771D02*
X16422714Y-22437247D01*
X16422714Y-22437247D02*
X16394142Y-22437247D01*
X16394142Y-22437247D02*
X16375095Y-22427723D01*
X16375095Y-22427723D02*
X16365571Y-22408676D01*
X16365571Y-22408676D02*
X16365571Y-22399152D01*
X16365571Y-22399152D02*
X16375095Y-22380104D01*
X16375095Y-22380104D02*
X16394142Y-22370581D01*
X16394142Y-22370581D02*
X16422714Y-22370581D01*
X16422714Y-22370581D02*
X16441762Y-22380104D01*
X16517952Y-22580104D02*
X16527476Y-22570581D01*
X16527476Y-22570581D02*
X16546523Y-22542009D01*
X16546523Y-22542009D02*
X16556047Y-22522962D01*
X16556047Y-22522962D02*
X16565571Y-22494390D01*
X16565571Y-22494390D02*
X16575095Y-22446771D01*
X16575095Y-22446771D02*
X16575095Y-22408676D01*
X16575095Y-22408676D02*
X16565571Y-22361057D01*
X16565571Y-22361057D02*
X16556047Y-22332485D01*
X16556047Y-22332485D02*
X16546523Y-22313438D01*
X16546523Y-22313438D02*
X16527476Y-22284866D01*
X16527476Y-22284866D02*
X16517952Y-22275343D01*
X16879857Y-22580104D02*
X16870333Y-22570581D01*
X16870333Y-22570581D02*
X16851285Y-22542009D01*
X16851285Y-22542009D02*
X16841762Y-22522962D01*
X16841762Y-22522962D02*
X16832238Y-22494390D01*
X16832238Y-22494390D02*
X16822714Y-22446771D01*
X16822714Y-22446771D02*
X16822714Y-22408676D01*
X16822714Y-22408676D02*
X16832238Y-22361057D01*
X16832238Y-22361057D02*
X16841762Y-22332485D01*
X16841762Y-22332485D02*
X16851285Y-22313438D01*
X16851285Y-22313438D02*
X16870333Y-22284866D01*
X16870333Y-22284866D02*
X16879857Y-22275343D01*
X16956047Y-22370581D02*
X16956047Y-22503914D01*
X16956047Y-22389628D02*
X16965571Y-22380104D01*
X16965571Y-22380104D02*
X16984619Y-22370581D01*
X16984619Y-22370581D02*
X17013190Y-22370581D01*
X17013190Y-22370581D02*
X17032238Y-22380104D01*
X17032238Y-22380104D02*
X17041762Y-22399152D01*
X17041762Y-22399152D02*
X17041762Y-22503914D01*
X17165571Y-22503914D02*
X17146524Y-22494390D01*
X17146524Y-22494390D02*
X17137000Y-22484866D01*
X17137000Y-22484866D02*
X17127476Y-22465819D01*
X17127476Y-22465819D02*
X17127476Y-22408676D01*
X17127476Y-22408676D02*
X17137000Y-22389628D01*
X17137000Y-22389628D02*
X17146524Y-22380104D01*
X17146524Y-22380104D02*
X17165571Y-22370581D01*
X17165571Y-22370581D02*
X17194143Y-22370581D01*
X17194143Y-22370581D02*
X17213190Y-22380104D01*
X17213190Y-22380104D02*
X17222714Y-22389628D01*
X17222714Y-22389628D02*
X17232238Y-22408676D01*
X17232238Y-22408676D02*
X17232238Y-22465819D01*
X17232238Y-22465819D02*
X17222714Y-22484866D01*
X17222714Y-22484866D02*
X17213190Y-22494390D01*
X17213190Y-22494390D02*
X17194143Y-22503914D01*
X17194143Y-22503914D02*
X17165571Y-22503914D01*
X17289381Y-22370581D02*
X17365571Y-22370581D01*
X17317952Y-22303914D02*
X17317952Y-22475342D01*
X17317952Y-22475342D02*
X17327476Y-22494390D01*
X17327476Y-22494390D02*
X17346524Y-22503914D01*
X17346524Y-22503914D02*
X17365571Y-22503914D01*
X17584619Y-22370581D02*
X17584619Y-22570581D01*
X17584619Y-22380104D02*
X17603666Y-22370581D01*
X17603666Y-22370581D02*
X17641762Y-22370581D01*
X17641762Y-22370581D02*
X17660809Y-22380104D01*
X17660809Y-22380104D02*
X17670333Y-22389628D01*
X17670333Y-22389628D02*
X17679857Y-22408676D01*
X17679857Y-22408676D02*
X17679857Y-22465819D01*
X17679857Y-22465819D02*
X17670333Y-22484866D01*
X17670333Y-22484866D02*
X17660809Y-22494390D01*
X17660809Y-22494390D02*
X17641762Y-22503914D01*
X17641762Y-22503914D02*
X17603666Y-22503914D01*
X17603666Y-22503914D02*
X17584619Y-22494390D01*
X17794143Y-22503914D02*
X17775095Y-22494390D01*
X17775095Y-22494390D02*
X17765571Y-22475342D01*
X17765571Y-22475342D02*
X17765571Y-22303914D01*
X17956047Y-22503914D02*
X17956047Y-22399152D01*
X17956047Y-22399152D02*
X17946524Y-22380104D01*
X17946524Y-22380104D02*
X17927476Y-22370581D01*
X17927476Y-22370581D02*
X17889381Y-22370581D01*
X17889381Y-22370581D02*
X17870333Y-22380104D01*
X17956047Y-22494390D02*
X17937000Y-22503914D01*
X17937000Y-22503914D02*
X17889381Y-22503914D01*
X17889381Y-22503914D02*
X17870333Y-22494390D01*
X17870333Y-22494390D02*
X17860809Y-22475342D01*
X17860809Y-22475342D02*
X17860809Y-22456295D01*
X17860809Y-22456295D02*
X17870333Y-22437247D01*
X17870333Y-22437247D02*
X17889381Y-22427723D01*
X17889381Y-22427723D02*
X17937000Y-22427723D01*
X17937000Y-22427723D02*
X17956047Y-22418200D01*
X18022714Y-22370581D02*
X18098905Y-22370581D01*
X18051286Y-22303914D02*
X18051286Y-22475342D01*
X18051286Y-22475342D02*
X18060809Y-22494390D01*
X18060809Y-22494390D02*
X18079857Y-22503914D01*
X18079857Y-22503914D02*
X18098905Y-22503914D01*
X18241762Y-22494390D02*
X18222714Y-22503914D01*
X18222714Y-22503914D02*
X18184619Y-22503914D01*
X18184619Y-22503914D02*
X18165571Y-22494390D01*
X18165571Y-22494390D02*
X18156047Y-22475342D01*
X18156047Y-22475342D02*
X18156047Y-22399152D01*
X18156047Y-22399152D02*
X18165571Y-22380104D01*
X18165571Y-22380104D02*
X18184619Y-22370581D01*
X18184619Y-22370581D02*
X18222714Y-22370581D01*
X18222714Y-22370581D02*
X18241762Y-22380104D01*
X18241762Y-22380104D02*
X18251286Y-22399152D01*
X18251286Y-22399152D02*
X18251286Y-22418200D01*
X18251286Y-22418200D02*
X18156047Y-22437247D01*
X18422714Y-22503914D02*
X18422714Y-22303914D01*
X18422714Y-22494390D02*
X18403667Y-22503914D01*
X18403667Y-22503914D02*
X18365571Y-22503914D01*
X18365571Y-22503914D02*
X18346524Y-22494390D01*
X18346524Y-22494390D02*
X18337000Y-22484866D01*
X18337000Y-22484866D02*
X18327476Y-22465819D01*
X18327476Y-22465819D02*
X18327476Y-22408676D01*
X18327476Y-22408676D02*
X18337000Y-22389628D01*
X18337000Y-22389628D02*
X18346524Y-22380104D01*
X18346524Y-22380104D02*
X18365571Y-22370581D01*
X18365571Y-22370581D02*
X18403667Y-22370581D01*
X18403667Y-22370581D02*
X18422714Y-22380104D01*
X18498905Y-22580104D02*
X18508428Y-22570581D01*
X18508428Y-22570581D02*
X18527476Y-22542009D01*
X18527476Y-22542009D02*
X18537000Y-22522962D01*
X18537000Y-22522962D02*
X18546524Y-22494390D01*
X18546524Y-22494390D02*
X18556047Y-22446771D01*
X18556047Y-22446771D02*
X18556047Y-22408676D01*
X18556047Y-22408676D02*
X18546524Y-22361057D01*
X18546524Y-22361057D02*
X18537000Y-22332485D01*
X18537000Y-22332485D02*
X18527476Y-22313438D01*
X18527476Y-22313438D02*
X18508428Y-22284866D01*
X18508428Y-22284866D02*
X18498905Y-22275343D01*
M02*
